<svg width="901" height="282" viewBox="0 0 901 282" fill="none" xmlns="http://www.w3.org/2000/svg">
<g clip-path="url(#clip0_2_2)">
<rect width="901" height="282" fill="#171717"/>
<path d="M356.504 84H354.502L351.279 78.6387C351.227 78.554 351.175 78.4564 351.123 78.3457C351.071 78.2285 351.016 78.0951 350.957 77.9453H350.918C350.885 78.0234 350.84 78.1211 350.781 78.2383C350.729 78.349 350.664 78.4824 350.586 78.6387L347.266 84H345.254L349.941 76.959L345.625 69.9961H347.637L350.498 74.918C350.589 75.0807 350.677 75.2435 350.762 75.4062C350.846 75.569 350.924 75.7318 350.996 75.8945H351.035C351.139 75.6797 351.237 75.4876 351.328 75.3184C351.419 75.1491 351.504 75.0026 351.582 74.8789L354.561 69.9961H356.445L352.041 76.9395L356.504 84ZM368.555 84H366.602L364.199 80.0254C363.75 79.2832 363.366 78.8079 363.047 78.5996C362.728 78.3848 362.34 78.2773 361.885 78.2773H360.273V84H358.633V69.9961H362.812C364.03 69.9961 365.042 70.3184 365.85 70.9629C366.663 71.6074 367.07 72.5579 367.07 73.8145C367.07 74.804 366.813 75.6341 366.299 76.3047C365.785 76.9753 365.078 77.4603 364.18 77.7598V77.7988C364.473 77.9746 364.73 78.1667 364.951 78.375C365.173 78.5833 365.407 78.8893 365.654 79.293L368.555 84ZM360.273 71.4805V76.793H362.5C363.314 76.793 363.991 76.5293 364.531 76.002C365.078 75.4746 365.352 74.791 365.352 73.9512C365.352 73.2025 365.107 72.6035 364.619 72.1543C364.137 71.7051 363.438 71.4805 362.52 71.4805H360.273ZM372.246 84H370.605V69.9961H372.246V84ZM388.105 82.3008C387.734 82.9453 387.262 83.4303 386.689 83.7559C386.123 84.0749 385.449 84.2344 384.668 84.2344C383.411 84.2344 382.406 83.7884 381.65 82.8965C380.902 81.998 380.527 80.7773 380.527 79.2344C380.527 77.5807 380.944 76.2559 381.777 75.2598C382.611 74.2637 383.721 73.7656 385.107 73.7656C385.798 73.7656 386.39 73.9023 386.885 74.1758C387.386 74.4427 387.793 74.8464 388.105 75.3867H388.145V69.1953H389.746V84H388.145V82.3008H388.105ZM382.168 79.1562C382.168 80.3086 382.435 81.2201 382.969 81.8906C383.509 82.5547 384.232 82.8867 385.137 82.8867C386.035 82.8867 386.761 82.5645 387.314 81.9199C387.868 81.2754 388.145 80.4616 388.145 79.4785V78.0039C388.145 77.1966 387.874 76.513 387.334 75.9531C386.8 75.3932 386.126 75.1133 385.312 75.1133C384.336 75.1133 383.568 75.4714 383.008 76.1875C382.448 76.9036 382.168 77.8932 382.168 79.1562ZM401.025 79.3613H393.955C393.981 80.4876 394.277 81.3568 394.844 81.9688C395.417 82.5742 396.217 82.877 397.246 82.877C397.695 82.877 398.145 82.8118 398.594 82.6816C399.049 82.5449 399.499 82.3301 399.941 82.0371L400.684 83.1797C400.117 83.5443 399.551 83.8112 398.984 83.9805C398.418 84.1497 397.796 84.2344 397.119 84.2344C395.609 84.2344 394.43 83.7852 393.584 82.8867C392.738 81.9883 392.311 80.735 392.305 79.127C392.298 77.5189 392.721 76.2233 393.574 75.2402C394.434 74.2572 395.547 73.7656 396.914 73.7656C398.216 73.7656 399.225 74.1921 399.941 75.0449C400.664 75.8913 401.025 77.0664 401.025 78.5703V79.3613ZM399.385 78.0527C399.378 77.1283 399.154 76.4089 398.711 75.8945C398.268 75.3737 397.66 75.1133 396.885 75.1133C396.123 75.1133 395.475 75.3802 394.941 75.9141C394.414 76.4414 394.092 77.1543 393.975 78.0527H399.385ZM408.232 70.5039C408.05 70.4453 407.884 70.403 407.734 70.377C407.591 70.3509 407.438 70.3379 407.275 70.3379C406.729 70.3379 406.322 70.4844 406.055 70.7773C405.788 71.0703 405.654 71.5 405.654 72.0664V74H407.998V75.3672H405.654V84H404.062V75.3672H402.354V74H404.062V71.9883C404.062 71.0443 404.352 70.3086 404.932 69.7812C405.511 69.2474 406.305 68.9805 407.314 68.9805C407.562 68.9805 407.786 69 407.988 69.0391C408.19 69.0716 408.398 69.1237 408.613 69.1953L408.232 70.5039ZM416.807 84H415.205V82.4375H415.166C414.821 83.0365 414.395 83.4857 413.887 83.7852C413.385 84.0846 412.799 84.2344 412.129 84.2344C411.191 84.2344 410.433 83.9609 409.854 83.4141C409.274 82.8672 408.984 82.1413 408.984 81.2363C408.984 80.3835 409.277 79.6771 409.863 79.1172C410.449 78.5573 411.279 78.1992 412.354 78.043L415.205 77.6621V77.4375C415.205 76.5977 415.01 76.002 414.619 75.6504C414.229 75.2923 413.708 75.1133 413.057 75.1133C412.536 75.1133 412.035 75.2109 411.553 75.4062C411.071 75.6016 410.618 75.901 410.195 76.3047L409.258 75.3379C409.818 74.7975 410.413 74.4004 411.045 74.1465C411.676 73.8926 412.38 73.7656 413.154 73.7656C414.365 73.7656 415.277 74.0781 415.889 74.7031C416.501 75.3216 416.807 76.2526 416.807 77.4961V84ZM415.205 79.9375V78.9414L412.793 79.2734C412.057 79.3776 411.504 79.5632 411.133 79.8301C410.762 80.097 410.576 80.5169 410.576 81.0898C410.576 81.6888 410.749 82.1478 411.094 82.4668C411.445 82.7793 411.872 82.9355 412.373 82.9355C413.239 82.9355 413.926 82.6523 414.434 82.0859C414.948 81.5195 415.205 80.8034 415.205 79.9375ZM427.988 84H426.387V82.418H426.348C426.016 83.0234 425.592 83.4792 425.078 83.7852C424.564 84.0846 423.958 84.2344 423.262 84.2344C422.07 84.2344 421.175 83.8796 420.576 83.1699C419.984 82.4603 419.688 81.3958 419.688 79.9766V74H421.279V79.7227C421.279 80.7773 421.481 81.5684 421.885 82.0957C422.288 82.623 422.894 82.8867 423.701 82.8867C424.482 82.8867 425.124 82.6003 425.625 82.0273C426.133 81.4479 426.387 80.6927 426.387 79.7617V74H427.988V84ZM431.23 84V69.1953H432.832V84H431.23ZM440.84 83.8828C440.566 83.9935 440.296 84.0749 440.029 84.127C439.769 84.1855 439.473 84.2148 439.141 84.2148C438.346 84.2148 437.721 83.9837 437.266 83.5215C436.816 83.0527 436.592 82.3626 436.592 81.4512V75.3672H434.873V74H436.592V71.5586L438.193 71.041V74H440.713V75.3672H438.193V81.2656C438.193 81.8385 438.294 82.252 438.496 82.5059C438.704 82.7598 439.014 82.8867 439.424 82.8867C439.619 82.8867 439.808 82.8639 439.99 82.8184C440.173 82.7728 440.326 82.7207 440.449 82.6621L440.84 83.8828ZM449.98 82.7109H449.941V84H448.34V69.1953H449.941V75.7578H449.98C450.378 75.0938 450.863 74.5957 451.436 74.2637C452.015 73.9316 452.682 73.7656 453.438 73.7656C454.72 73.7656 455.723 74.2148 456.445 75.1133C457.174 76.0052 457.539 77.2031 457.539 78.707C457.539 80.3802 457.132 81.7214 456.318 82.7305C455.505 83.7331 454.391 84.2344 452.979 84.2344C452.321 84.2344 451.742 84.1074 451.24 83.8535C450.739 83.5996 450.319 83.2188 449.98 82.7109ZM449.941 78.5215V79.918C449.941 80.7448 450.208 81.4479 450.742 82.0273C451.283 82.6003 451.966 82.8867 452.793 82.8867C453.763 82.8867 454.521 82.5156 455.068 81.7734C455.622 81.0312 455.898 79.9993 455.898 78.6777C455.898 77.5645 455.641 76.6921 455.127 76.0605C454.613 75.429 453.916 75.1133 453.037 75.1133C452.106 75.1133 451.357 75.4388 450.791 76.0898C450.225 76.7344 449.941 77.5449 449.941 78.5215ZM468.135 79.3613H461.064C461.09 80.4876 461.387 81.3568 461.953 81.9688C462.526 82.5742 463.327 82.877 464.355 82.877C464.805 82.877 465.254 82.8118 465.703 82.6816C466.159 82.5449 466.608 82.3301 467.051 82.0371L467.793 83.1797C467.227 83.5443 466.66 83.8112 466.094 83.9805C465.527 84.1497 464.906 84.2344 464.229 84.2344C462.718 84.2344 461.54 83.7852 460.693 82.8867C459.847 81.9883 459.421 80.735 459.414 79.127C459.408 77.5189 459.831 76.2233 460.684 75.2402C461.543 74.2572 462.656 73.7656 464.023 73.7656C465.326 73.7656 466.335 74.1921 467.051 75.0449C467.773 75.8913 468.135 77.0664 468.135 78.5703V79.3613ZM466.494 78.0527C466.488 77.1283 466.263 76.4089 465.82 75.8945C465.378 75.3737 464.769 75.1133 463.994 75.1133C463.232 75.1133 462.585 75.3802 462.051 75.9141C461.523 76.4414 461.201 77.1543 461.084 78.0527H466.494ZM478.867 84H477.266V78.2383C477.266 77.1966 477.07 76.4154 476.68 75.8945C476.296 75.3737 475.716 75.1133 474.941 75.1133C474.16 75.1133 473.503 75.416 472.969 76.0215C472.435 76.6204 472.168 77.3919 472.168 78.3359V84H470.566V69.1953H472.168V75.6602H472.207C472.591 75.0286 473.057 74.5566 473.604 74.2441C474.15 73.9251 474.779 73.7656 475.488 73.7656C476.615 73.7656 477.458 74.1042 478.018 74.7812C478.584 75.4583 478.867 76.4772 478.867 77.8379V84ZM488.975 84H487.373V82.4375H487.334C486.989 83.0365 486.562 83.4857 486.055 83.7852C485.553 84.0846 484.967 84.2344 484.297 84.2344C483.359 84.2344 482.601 83.9609 482.021 83.4141C481.442 82.8672 481.152 82.1413 481.152 81.2363C481.152 80.3835 481.445 79.6771 482.031 79.1172C482.617 78.5573 483.447 78.1992 484.521 78.043L487.373 77.6621V77.4375C487.373 76.5977 487.178 76.002 486.787 75.6504C486.396 75.2923 485.876 75.1133 485.225 75.1133C484.704 75.1133 484.202 75.2109 483.721 75.4062C483.239 75.6016 482.786 75.901 482.363 76.3047L481.426 75.3379C481.986 74.7975 482.581 74.4004 483.213 74.1465C483.844 73.8926 484.548 73.7656 485.322 73.7656C486.533 73.7656 487.445 74.0781 488.057 74.7031C488.669 75.3216 488.975 76.2526 488.975 77.4961V84ZM487.373 79.9375V78.9414L484.961 79.2734C484.225 79.3776 483.672 79.5632 483.301 79.8301C482.93 80.097 482.744 80.5169 482.744 81.0898C482.744 81.6888 482.917 82.1478 483.262 82.4668C483.613 82.7793 484.04 82.9355 484.541 82.9355C485.407 82.9355 486.094 82.6523 486.602 82.0859C487.116 81.5195 487.373 80.8034 487.373 79.9375ZM499.932 74L495.947 84H494.375L490.586 74H492.344L494.883 81.2656C494.974 81.5326 495.049 81.7832 495.107 82.0176C495.166 82.2454 495.208 82.4603 495.234 82.6621H495.273C495.306 82.4082 495.348 82.1706 495.4 81.9492C495.452 81.7214 495.514 81.5065 495.586 81.3047L498.242 74H499.932ZM502.48 71.6074C502.155 71.6074 501.882 71.5 501.66 71.2852C501.439 71.0638 501.328 70.7936 501.328 70.4746C501.328 70.1556 501.439 69.8887 501.66 69.6738C501.882 69.4525 502.155 69.3418 502.48 69.3418C502.806 69.3418 503.079 69.4525 503.301 69.6738C503.522 69.8887 503.633 70.1556 503.633 70.4746C503.633 70.7936 503.522 71.0638 503.301 71.2852C503.079 71.5 502.806 71.6074 502.48 71.6074ZM503.262 84H501.66V74H503.262V84ZM510.684 84.2344C509.206 84.2344 508.024 83.7689 507.139 82.8379C506.26 81.9004 505.82 80.6602 505.82 79.1172C505.82 77.444 506.276 76.1354 507.188 75.1914C508.099 74.2474 509.342 73.7721 510.918 73.7656C512.409 73.7591 513.571 74.2181 514.404 75.1426C515.244 76.0671 515.664 77.3398 515.664 78.9609C515.664 80.5625 515.212 81.8418 514.307 82.7988C513.408 83.7559 512.201 84.2344 510.684 84.2344ZM510.801 82.8867C511.836 82.8867 512.63 82.5514 513.184 81.8809C513.743 81.2038 514.023 80.25 514.023 79.0195C514.023 77.763 513.743 76.7995 513.184 76.1289C512.624 75.4518 511.829 75.1133 510.801 75.1133C509.772 75.1133 508.958 75.4648 508.359 76.168C507.76 76.8711 507.461 77.8346 507.461 79.0586C507.461 80.2435 507.764 81.1777 508.369 81.8613C508.975 82.5449 509.785 82.8867 510.801 82.8867ZM526.309 84H524.707V82.418H524.668C524.336 83.0234 523.913 83.4792 523.398 83.7852C522.884 84.0846 522.279 84.2344 521.582 84.2344C520.391 84.2344 519.495 83.8796 518.896 83.1699C518.304 82.4603 518.008 81.3958 518.008 79.9766V74H519.6V79.7227C519.6 80.7773 519.801 81.5684 520.205 82.0957C520.609 82.623 521.214 82.8867 522.021 82.8867C522.803 82.8867 523.444 82.6003 523.945 82.0273C524.453 81.4479 524.707 80.6927 524.707 79.7617V74H526.309V84ZM534.482 75.3672C534.359 75.3281 534.248 75.3021 534.15 75.2891C534.053 75.2695 533.929 75.2598 533.779 75.2598C532.965 75.2598 532.324 75.6081 531.855 76.3047C531.387 76.9948 531.152 77.8607 531.152 78.9023V84H529.551V74H531.152V75.9824H531.191C531.419 75.2793 531.768 74.7454 532.236 74.3809C532.705 74.0098 533.245 73.8242 533.857 73.8242C534.059 73.8242 534.229 73.834 534.365 73.8535C534.508 73.873 534.635 73.9023 534.746 73.9414L534.482 75.3672Z" fill="#E2E2E2" fill-opacity="0.67"/>
<path d="M353.945 137.48H348.477V142.324H353.535V143.799H348.477V150H346.836V135.996H353.945V137.48ZM357.207 137.607C356.882 137.607 356.608 137.5 356.387 137.285C356.165 137.064 356.055 136.794 356.055 136.475C356.055 136.156 356.165 135.889 356.387 135.674C356.608 135.452 356.882 135.342 357.207 135.342C357.533 135.342 357.806 135.452 358.027 135.674C358.249 135.889 358.359 136.156 358.359 136.475C358.359 136.794 358.249 137.064 358.027 137.285C357.806 137.5 357.533 137.607 357.207 137.607ZM357.988 150H356.387V140H357.988V150ZM361.23 150V135.195H362.832V150H361.23ZM370.84 149.883C370.566 149.993 370.296 150.075 370.029 150.127C369.769 150.186 369.473 150.215 369.141 150.215C368.346 150.215 367.721 149.984 367.266 149.521C366.816 149.053 366.592 148.363 366.592 147.451V141.367H364.873V140H366.592V137.559L368.193 137.041V140H370.713V141.367H368.193V147.266C368.193 147.839 368.294 148.252 368.496 148.506C368.704 148.76 369.014 148.887 369.424 148.887C369.619 148.887 369.808 148.864 369.99 148.818C370.173 148.773 370.326 148.721 370.449 148.662L370.84 149.883ZM380.889 145.361H373.818C373.844 146.488 374.141 147.357 374.707 147.969C375.28 148.574 376.081 148.877 377.109 148.877C377.559 148.877 378.008 148.812 378.457 148.682C378.913 148.545 379.362 148.33 379.805 148.037L380.547 149.18C379.98 149.544 379.414 149.811 378.848 149.98C378.281 150.15 377.66 150.234 376.982 150.234C375.472 150.234 374.294 149.785 373.447 148.887C372.601 147.988 372.174 146.735 372.168 145.127C372.161 143.519 372.585 142.223 373.438 141.24C374.297 140.257 375.41 139.766 376.777 139.766C378.079 139.766 379.089 140.192 379.805 141.045C380.527 141.891 380.889 143.066 380.889 144.57V145.361ZM379.248 144.053C379.242 143.128 379.017 142.409 378.574 141.895C378.132 141.374 377.523 141.113 376.748 141.113C375.986 141.113 375.339 141.38 374.805 141.914C374.277 142.441 373.955 143.154 373.838 144.053H379.248ZM388.252 141.367C388.128 141.328 388.018 141.302 387.92 141.289C387.822 141.27 387.699 141.26 387.549 141.26C386.735 141.26 386.094 141.608 385.625 142.305C385.156 142.995 384.922 143.861 384.922 144.902V150H383.32V140H384.922V141.982H384.961C385.189 141.279 385.537 140.745 386.006 140.381C386.475 140.01 387.015 139.824 387.627 139.824C387.829 139.824 387.998 139.834 388.135 139.854C388.278 139.873 388.405 139.902 388.516 139.941L388.252 141.367ZM389.336 149.248L390.098 148.018C390.534 148.304 390.96 148.522 391.377 148.672C391.794 148.815 392.243 148.887 392.725 148.887C393.408 148.887 393.926 148.76 394.277 148.506C394.635 148.252 394.814 147.871 394.814 147.363C394.814 146.953 394.655 146.608 394.336 146.328C394.023 146.042 393.532 145.814 392.861 145.645C391.611 145.326 390.755 144.925 390.293 144.443C389.831 143.955 389.6 143.356 389.6 142.646C389.6 141.826 389.909 141.143 390.527 140.596C391.146 140.042 392.008 139.766 393.115 139.766C393.649 139.766 394.157 139.834 394.639 139.971C395.12 140.107 395.612 140.342 396.113 140.674L395.4 141.885C394.945 141.598 394.535 141.4 394.17 141.289C393.812 141.172 393.447 141.113 393.076 141.113C392.432 141.113 391.94 141.234 391.602 141.475C391.263 141.709 391.094 142.051 391.094 142.5C391.094 142.949 391.266 143.288 391.611 143.516C391.963 143.743 392.526 143.958 393.301 144.16C394.316 144.434 395.075 144.818 395.576 145.312C396.084 145.801 396.338 146.442 396.338 147.236C396.338 148.161 396.009 148.893 395.352 149.434C394.701 149.967 393.805 150.234 392.666 150.234C392.054 150.234 391.465 150.15 390.898 149.98C390.339 149.811 389.818 149.567 389.336 149.248ZM411.338 150H409.736V148.438H409.697C409.352 149.036 408.926 149.486 408.418 149.785C407.917 150.085 407.331 150.234 406.66 150.234C405.723 150.234 404.964 149.961 404.385 149.414C403.805 148.867 403.516 148.141 403.516 147.236C403.516 146.383 403.809 145.677 404.395 145.117C404.98 144.557 405.811 144.199 406.885 144.043L409.736 143.662V143.438C409.736 142.598 409.541 142.002 409.15 141.65C408.76 141.292 408.239 141.113 407.588 141.113C407.067 141.113 406.566 141.211 406.084 141.406C405.602 141.602 405.15 141.901 404.727 142.305L403.789 141.338C404.349 140.798 404.945 140.4 405.576 140.146C406.208 139.893 406.911 139.766 407.686 139.766C408.896 139.766 409.808 140.078 410.42 140.703C411.032 141.322 411.338 142.253 411.338 143.496V150ZM409.736 145.938V144.941L407.324 145.273C406.589 145.378 406.035 145.563 405.664 145.83C405.293 146.097 405.107 146.517 405.107 147.09C405.107 147.689 405.28 148.148 405.625 148.467C405.977 148.779 406.403 148.936 406.904 148.936C407.77 148.936 408.457 148.652 408.965 148.086C409.479 147.52 409.736 146.803 409.736 145.938ZM422.734 150H421.133V144.297C421.133 143.236 420.938 142.441 420.547 141.914C420.163 141.38 419.583 141.113 418.809 141.113C418.008 141.113 417.344 141.416 416.816 142.021C416.296 142.62 416.035 143.379 416.035 144.297V150H414.434V140H416.035V141.66H416.074C416.452 141.029 416.914 140.557 417.461 140.244C418.008 139.925 418.639 139.766 419.355 139.766C420.449 139.766 421.286 140.12 421.865 140.83C422.445 141.533 422.734 142.552 422.734 143.887V150ZM432.656 148.301C432.285 148.945 431.813 149.43 431.24 149.756C430.674 150.075 430 150.234 429.219 150.234C427.962 150.234 426.956 149.788 426.201 148.896C425.452 147.998 425.078 146.777 425.078 145.234C425.078 143.581 425.495 142.256 426.328 141.26C427.161 140.264 428.271 139.766 429.658 139.766C430.348 139.766 430.941 139.902 431.436 140.176C431.937 140.443 432.344 140.846 432.656 141.387H432.695V135.195H434.297V150H432.695V148.301H432.656ZM426.719 145.156C426.719 146.309 426.986 147.22 427.52 147.891C428.06 148.555 428.783 148.887 429.688 148.887C430.586 148.887 431.312 148.564 431.865 147.92C432.419 147.275 432.695 146.462 432.695 145.479V144.004C432.695 143.197 432.425 142.513 431.885 141.953C431.351 141.393 430.677 141.113 429.863 141.113C428.887 141.113 428.118 141.471 427.559 142.188C426.999 142.904 426.719 143.893 426.719 145.156ZM449.922 148.301C449.551 148.945 449.079 149.43 448.506 149.756C447.939 150.075 447.266 150.234 446.484 150.234C445.228 150.234 444.222 149.788 443.467 148.896C442.718 147.998 442.344 146.777 442.344 145.234C442.344 143.581 442.76 142.256 443.594 141.26C444.427 140.264 445.537 139.766 446.924 139.766C447.614 139.766 448.206 139.902 448.701 140.176C449.202 140.443 449.609 140.846 449.922 141.387H449.961V135.195H451.562V150H449.961V148.301H449.922ZM443.984 145.156C443.984 146.309 444.251 147.22 444.785 147.891C445.326 148.555 446.048 148.887 446.953 148.887C447.852 148.887 448.577 148.564 449.131 147.92C449.684 147.275 449.961 146.462 449.961 145.479V144.004C449.961 143.197 449.691 142.513 449.15 141.953C448.617 141.393 447.943 141.113 447.129 141.113C446.152 141.113 445.384 141.471 444.824 142.188C444.264 142.904 443.984 143.893 443.984 145.156ZM455.625 137.607C455.299 137.607 455.026 137.5 454.805 137.285C454.583 137.064 454.473 136.794 454.473 136.475C454.473 136.156 454.583 135.889 454.805 135.674C455.026 135.452 455.299 135.342 455.625 135.342C455.951 135.342 456.224 135.452 456.445 135.674C456.667 135.889 456.777 136.156 456.777 136.475C456.777 136.794 456.667 137.064 456.445 137.285C456.224 137.5 455.951 137.607 455.625 137.607ZM456.406 150H454.805V140H456.406V150ZM458.711 149.248L459.473 148.018C459.909 148.304 460.335 148.522 460.752 148.672C461.169 148.815 461.618 148.887 462.1 148.887C462.783 148.887 463.301 148.76 463.652 148.506C464.01 148.252 464.189 147.871 464.189 147.363C464.189 146.953 464.03 146.608 463.711 146.328C463.398 146.042 462.907 145.814 462.236 145.645C460.986 145.326 460.13 144.925 459.668 144.443C459.206 143.955 458.975 143.356 458.975 142.646C458.975 141.826 459.284 141.143 459.902 140.596C460.521 140.042 461.383 139.766 462.49 139.766C463.024 139.766 463.532 139.834 464.014 139.971C464.495 140.107 464.987 140.342 465.488 140.674L464.775 141.885C464.32 141.598 463.91 141.4 463.545 141.289C463.187 141.172 462.822 141.113 462.451 141.113C461.807 141.113 461.315 141.234 460.977 141.475C460.638 141.709 460.469 142.051 460.469 142.5C460.469 142.949 460.641 143.288 460.986 143.516C461.338 143.743 461.901 143.958 462.676 144.16C463.691 144.434 464.45 144.818 464.951 145.312C465.459 145.801 465.713 146.442 465.713 147.236C465.713 148.161 465.384 148.893 464.727 149.434C464.076 149.967 463.18 150.234 462.041 150.234C461.429 150.234 460.84 150.15 460.273 149.98C459.714 149.811 459.193 149.567 458.711 149.248ZM475.225 150H473.623V148.438H473.584C473.239 149.036 472.812 149.486 472.305 149.785C471.803 150.085 471.217 150.234 470.547 150.234C469.609 150.234 468.851 149.961 468.271 149.414C467.692 148.867 467.402 148.141 467.402 147.236C467.402 146.383 467.695 145.677 468.281 145.117C468.867 144.557 469.697 144.199 470.771 144.043L473.623 143.662V143.438C473.623 142.598 473.428 142.002 473.037 141.65C472.646 141.292 472.126 141.113 471.475 141.113C470.954 141.113 470.452 141.211 469.971 141.406C469.489 141.602 469.036 141.901 468.613 142.305L467.676 141.338C468.236 140.798 468.831 140.4 469.463 140.146C470.094 139.893 470.798 139.766 471.572 139.766C472.783 139.766 473.695 140.078 474.307 140.703C474.919 141.322 475.225 142.253 475.225 143.496V150ZM473.623 145.938V144.941L471.211 145.273C470.475 145.378 469.922 145.563 469.551 145.83C469.18 146.097 468.994 146.517 468.994 147.09C468.994 147.689 469.167 148.148 469.512 148.467C469.863 148.779 470.29 148.936 470.791 148.936C471.657 148.936 472.344 148.652 472.852 148.086C473.366 147.52 473.623 146.803 473.623 145.938ZM492.52 150H490.918V144.258C490.918 143.151 490.745 142.35 490.4 141.855C490.062 141.361 489.489 141.113 488.682 141.113C487.998 141.113 487.415 141.426 486.934 142.051C486.458 142.676 486.221 143.424 486.221 144.297V150H484.619V144.062C484.619 143.079 484.43 142.344 484.053 141.855C483.675 141.361 483.105 141.113 482.344 141.113C481.641 141.113 481.061 141.41 480.605 142.002C480.15 142.588 479.922 143.353 479.922 144.297V150H478.32V140H479.922V141.582H479.961C480.319 140.977 480.755 140.524 481.27 140.225C481.79 139.919 482.389 139.766 483.066 139.766C483.75 139.766 484.346 139.958 484.854 140.342C485.361 140.719 485.71 141.217 485.898 141.836C486.27 141.146 486.732 140.628 487.285 140.283C487.839 139.938 488.483 139.766 489.219 139.766C490.319 139.766 491.143 140.104 491.689 140.781C492.243 141.458 492.52 142.477 492.52 143.838V150ZM497.188 148.711H497.148V150H495.547V135.195H497.148V141.758H497.188C497.585 141.094 498.07 140.596 498.643 140.264C499.222 139.932 499.889 139.766 500.645 139.766C501.927 139.766 502.93 140.215 503.652 141.113C504.382 142.005 504.746 143.203 504.746 144.707C504.746 146.38 504.339 147.721 503.525 148.73C502.712 149.733 501.598 150.234 500.186 150.234C499.528 150.234 498.949 150.107 498.447 149.854C497.946 149.6 497.526 149.219 497.188 148.711ZM497.148 144.521V145.918C497.148 146.745 497.415 147.448 497.949 148.027C498.49 148.6 499.173 148.887 500 148.887C500.97 148.887 501.729 148.516 502.275 147.773C502.829 147.031 503.105 145.999 503.105 144.678C503.105 143.564 502.848 142.692 502.334 142.061C501.82 141.429 501.123 141.113 500.244 141.113C499.313 141.113 498.564 141.439 497.998 142.09C497.432 142.734 497.148 143.545 497.148 144.521ZM508.125 137.607C507.799 137.607 507.526 137.5 507.305 137.285C507.083 137.064 506.973 136.794 506.973 136.475C506.973 136.156 507.083 135.889 507.305 135.674C507.526 135.452 507.799 135.342 508.125 135.342C508.451 135.342 508.724 135.452 508.945 135.674C509.167 135.889 509.277 136.156 509.277 136.475C509.277 136.794 509.167 137.064 508.945 137.285C508.724 137.5 508.451 137.607 508.125 137.607ZM508.906 150H507.305V140H508.906V150ZM520.684 149.463C520.684 151.214 520.234 152.526 519.336 153.398C518.444 154.271 517.22 154.707 515.664 154.707C514.98 154.707 514.342 154.642 513.75 154.512C513.164 154.382 512.559 154.17 511.934 153.877L512.52 152.646C513.04 152.887 513.548 153.063 514.043 153.174C514.544 153.285 515.078 153.34 515.645 153.34C516.712 153.34 517.552 153.037 518.164 152.432C518.776 151.826 519.082 150.908 519.082 149.678V148.32H519.043C518.665 148.958 518.19 149.437 517.617 149.756C517.044 150.075 516.374 150.234 515.605 150.234C514.362 150.234 513.359 149.792 512.598 148.906C511.842 148.014 511.465 146.82 511.465 145.322C511.465 143.682 511.882 142.347 512.715 141.318C513.555 140.283 514.665 139.766 516.045 139.766C516.722 139.766 517.308 139.902 517.803 140.176C518.304 140.443 518.717 140.846 519.043 141.387H519.082V140H520.684V149.463ZM519.082 145.479V144.004C519.082 143.21 518.812 142.529 518.271 141.963C517.738 141.396 517.07 141.113 516.27 141.113C515.286 141.113 514.512 141.452 513.945 142.129C513.385 142.806 513.105 143.835 513.105 145.215C513.105 146.4 513.366 147.308 513.887 147.939C514.408 148.571 515.127 148.887 516.045 148.887C516.943 148.887 517.673 148.568 518.232 147.93C518.799 147.292 519.082 146.475 519.082 145.479ZM532.012 150H530.41V148.418H530.371C530.039 149.023 529.616 149.479 529.102 149.785C528.587 150.085 527.982 150.234 527.285 150.234C526.094 150.234 525.199 149.88 524.6 149.17C524.007 148.46 523.711 147.396 523.711 145.977V140H525.303V145.723C525.303 146.777 525.505 147.568 525.908 148.096C526.312 148.623 526.917 148.887 527.725 148.887C528.506 148.887 529.147 148.6 529.648 148.027C530.156 147.448 530.41 146.693 530.41 145.762V140H532.012V150ZM542.334 150H540.732V148.438H540.693C540.348 149.036 539.922 149.486 539.414 149.785C538.913 150.085 538.327 150.234 537.656 150.234C536.719 150.234 535.96 149.961 535.381 149.414C534.801 148.867 534.512 148.141 534.512 147.236C534.512 146.383 534.805 145.677 535.391 145.117C535.977 144.557 536.807 144.199 537.881 144.043L540.732 143.662V143.438C540.732 142.598 540.537 142.002 540.146 141.65C539.756 141.292 539.235 141.113 538.584 141.113C538.063 141.113 537.562 141.211 537.08 141.406C536.598 141.602 536.146 141.901 535.723 142.305L534.785 141.338C535.345 140.798 535.941 140.4 536.572 140.146C537.204 139.893 537.907 139.766 538.682 139.766C539.893 139.766 540.804 140.078 541.416 140.703C542.028 141.322 542.334 142.253 542.334 143.496V150ZM540.732 145.938V144.941L538.32 145.273C537.585 145.378 537.031 145.563 536.66 145.83C536.289 146.097 536.104 146.517 536.104 147.09C536.104 147.689 536.276 148.148 536.621 148.467C536.973 148.779 537.399 148.936 537.9 148.936C538.766 148.936 539.453 148.652 539.961 148.086C540.475 147.52 540.732 146.803 540.732 145.938ZM550.195 149.883C549.922 149.993 549.652 150.075 549.385 150.127C549.124 150.186 548.828 150.215 548.496 150.215C547.702 150.215 547.077 149.984 546.621 149.521C546.172 149.053 545.947 148.363 545.947 147.451V141.367H544.229V140H545.947V137.559L547.549 137.041V140H550.068V141.367H547.549V147.266C547.549 147.839 547.65 148.252 547.852 148.506C548.06 148.76 548.369 148.887 548.779 148.887C548.975 148.887 549.163 148.864 549.346 148.818C549.528 148.773 549.681 148.721 549.805 148.662L550.195 149.883ZM560.244 145.361H553.174C553.2 146.488 553.496 147.357 554.062 147.969C554.635 148.574 555.436 148.877 556.465 148.877C556.914 148.877 557.363 148.812 557.812 148.682C558.268 148.545 558.717 148.33 559.16 148.037L559.902 149.18C559.336 149.544 558.77 149.811 558.203 149.98C557.637 150.15 557.015 150.234 556.338 150.234C554.827 150.234 553.649 149.785 552.803 148.887C551.956 147.988 551.53 146.735 551.523 145.127C551.517 143.519 551.94 142.223 552.793 141.24C553.652 140.257 554.766 139.766 556.133 139.766C557.435 139.766 558.444 140.192 559.16 141.045C559.883 141.891 560.244 143.066 560.244 144.57V145.361ZM558.604 144.053C558.597 143.128 558.372 142.409 557.93 141.895C557.487 141.374 556.878 141.113 556.104 141.113C555.342 141.113 554.694 141.38 554.16 141.914C553.633 142.441 553.311 143.154 553.193 144.053H558.604ZM561.738 149.248L562.5 148.018C562.936 148.304 563.363 148.522 563.779 148.672C564.196 148.815 564.645 148.887 565.127 148.887C565.811 148.887 566.328 148.76 566.68 148.506C567.038 148.252 567.217 147.871 567.217 147.363C567.217 146.953 567.057 146.608 566.738 146.328C566.426 146.042 565.934 145.814 565.264 145.645C564.014 145.326 563.158 144.925 562.695 144.443C562.233 143.955 562.002 143.356 562.002 142.646C562.002 141.826 562.311 141.143 562.93 140.596C563.548 140.042 564.411 139.766 565.518 139.766C566.051 139.766 566.559 139.834 567.041 139.971C567.523 140.107 568.014 140.342 568.516 140.674L567.803 141.885C567.347 141.598 566.937 141.4 566.572 141.289C566.214 141.172 565.85 141.113 565.479 141.113C564.834 141.113 564.342 141.234 564.004 141.475C563.665 141.709 563.496 142.051 563.496 142.5C563.496 142.949 563.669 143.288 564.014 143.516C564.365 143.743 564.928 143.958 565.703 144.16C566.719 144.434 567.477 144.818 567.979 145.312C568.486 145.801 568.74 146.442 568.74 147.236C568.74 148.161 568.411 148.893 567.754 149.434C567.103 149.967 566.208 150.234 565.068 150.234C564.456 150.234 563.867 150.15 563.301 149.98C562.741 149.811 562.22 149.567 561.738 149.248ZM578.301 148.711H578.262V150H576.66V135.195H578.262V141.758H578.301C578.698 141.094 579.183 140.596 579.756 140.264C580.335 139.932 581.003 139.766 581.758 139.766C583.04 139.766 584.043 140.215 584.766 141.113C585.495 142.005 585.859 143.203 585.859 144.707C585.859 146.38 585.452 147.721 584.639 148.73C583.825 149.733 582.712 150.234 581.299 150.234C580.641 150.234 580.062 150.107 579.561 149.854C579.059 149.6 578.639 149.219 578.301 148.711ZM578.262 144.521V145.918C578.262 146.745 578.529 147.448 579.062 148.027C579.603 148.6 580.286 148.887 581.113 148.887C582.083 148.887 582.842 148.516 583.389 147.773C583.942 147.031 584.219 145.999 584.219 144.678C584.219 143.564 583.962 142.692 583.447 142.061C582.933 141.429 582.236 141.113 581.357 141.113C580.426 141.113 579.678 141.439 579.111 142.09C578.545 142.734 578.262 143.545 578.262 144.521ZM596.455 145.361H589.385C589.411 146.488 589.707 147.357 590.273 147.969C590.846 148.574 591.647 148.877 592.676 148.877C593.125 148.877 593.574 148.812 594.023 148.682C594.479 148.545 594.928 148.33 595.371 148.037L596.113 149.18C595.547 149.544 594.98 149.811 594.414 149.98C593.848 150.15 593.226 150.234 592.549 150.234C591.038 150.234 589.86 149.785 589.014 148.887C588.167 147.988 587.741 146.735 587.734 145.127C587.728 143.519 588.151 142.223 589.004 141.24C589.863 140.257 590.977 139.766 592.344 139.766C593.646 139.766 594.655 140.192 595.371 141.045C596.094 141.891 596.455 143.066 596.455 144.57V145.361ZM594.814 144.053C594.808 143.128 594.583 142.409 594.141 141.895C593.698 141.374 593.089 141.113 592.314 141.113C591.553 141.113 590.905 141.38 590.371 141.914C589.844 142.441 589.521 143.154 589.404 144.053H594.814ZM603.652 149.883C603.379 149.993 603.109 150.075 602.842 150.127C602.581 150.186 602.285 150.215 601.953 150.215C601.159 150.215 600.534 149.984 600.078 149.521C599.629 149.053 599.404 148.363 599.404 147.451V141.367H597.686V140H599.404V137.559L601.006 137.041V140H603.525V141.367H601.006V147.266C601.006 147.839 601.107 148.252 601.309 148.506C601.517 148.76 601.826 148.887 602.236 148.887C602.432 148.887 602.62 148.864 602.803 148.818C602.985 148.773 603.138 148.721 603.262 148.662L603.652 149.883ZM618.262 140L615.264 150H613.604L611.533 142.822C611.481 142.64 611.445 142.487 611.426 142.363C611.413 142.233 611.4 142.083 611.387 141.914H611.348C611.335 142.083 611.312 142.23 611.279 142.354C611.247 142.477 611.201 142.633 611.143 142.822L608.906 150H607.305L604.277 140H605.957L608.027 147.52C608.06 147.63 608.086 147.76 608.105 147.91C608.132 148.06 608.151 148.229 608.164 148.418H608.242C608.255 148.275 608.275 148.128 608.301 147.979C608.327 147.822 608.366 147.663 608.418 147.5L610.723 140H612.188L614.258 147.539C614.29 147.663 614.316 147.799 614.336 147.949C614.362 148.092 614.385 148.255 614.404 148.438H614.482C614.489 148.307 614.505 148.167 614.531 148.018C614.564 147.868 614.603 147.708 614.648 147.539L616.68 140H618.262ZM628.154 145.361H621.084C621.11 146.488 621.406 147.357 621.973 147.969C622.546 148.574 623.346 148.877 624.375 148.877C624.824 148.877 625.273 148.812 625.723 148.682C626.178 148.545 626.628 148.33 627.07 148.037L627.812 149.18C627.246 149.544 626.68 149.811 626.113 149.98C625.547 150.15 624.925 150.234 624.248 150.234C622.738 150.234 621.559 149.785 620.713 148.887C619.867 147.988 619.44 146.735 619.434 145.127C619.427 143.519 619.85 142.223 620.703 141.24C621.562 140.257 622.676 139.766 624.043 139.766C625.345 139.766 626.354 140.192 627.07 141.045C627.793 141.891 628.154 143.066 628.154 144.57V145.361ZM626.514 144.053C626.507 143.128 626.283 142.409 625.84 141.895C625.397 141.374 624.788 141.113 624.014 141.113C623.252 141.113 622.604 141.38 622.07 141.914C621.543 142.441 621.221 143.154 621.104 144.053H626.514ZM638.623 145.361H631.553C631.579 146.488 631.875 147.357 632.441 147.969C633.014 148.574 633.815 148.877 634.844 148.877C635.293 148.877 635.742 148.812 636.191 148.682C636.647 148.545 637.096 148.33 637.539 148.037L638.281 149.18C637.715 149.544 637.148 149.811 636.582 149.98C636.016 150.15 635.394 150.234 634.717 150.234C633.206 150.234 632.028 149.785 631.182 148.887C630.335 147.988 629.909 146.735 629.902 145.127C629.896 143.519 630.319 142.223 631.172 141.24C632.031 140.257 633.145 139.766 634.512 139.766C635.814 139.766 636.823 140.192 637.539 141.045C638.262 141.891 638.623 143.066 638.623 144.57V145.361ZM636.982 144.053C636.976 143.128 636.751 142.409 636.309 141.895C635.866 141.374 635.257 141.113 634.482 141.113C633.721 141.113 633.073 141.38 632.539 141.914C632.012 142.441 631.689 143.154 631.572 144.053H636.982ZM649.355 150H647.754V144.297C647.754 143.236 647.559 142.441 647.168 141.914C646.784 141.38 646.204 141.113 645.43 141.113C644.629 141.113 643.965 141.416 643.438 142.021C642.917 142.62 642.656 143.379 642.656 144.297V150H641.055V140H642.656V141.66H642.695C643.073 141.029 643.535 140.557 644.082 140.244C644.629 139.925 645.26 139.766 645.977 139.766C647.07 139.766 647.907 140.12 648.486 140.83C649.066 141.533 649.355 142.552 649.355 143.887V150ZM658.691 137.607C658.366 137.607 658.092 137.5 657.871 137.285C657.65 137.064 657.539 136.794 657.539 136.475C657.539 136.156 657.65 135.889 657.871 135.674C658.092 135.452 658.366 135.342 658.691 135.342C659.017 135.342 659.29 135.452 659.512 135.674C659.733 135.889 659.844 136.156 659.844 136.475C659.844 136.794 659.733 137.064 659.512 137.285C659.29 137.5 659.017 137.607 658.691 137.607ZM659.473 150H657.871V140H659.473V150ZM671.016 150H669.414V144.297C669.414 143.236 669.219 142.441 668.828 141.914C668.444 141.38 667.865 141.113 667.09 141.113C666.289 141.113 665.625 141.416 665.098 142.021C664.577 142.62 664.316 143.379 664.316 144.297V150H662.715V140H664.316V141.66H664.355C664.733 141.029 665.195 140.557 665.742 140.244C666.289 139.925 666.921 139.766 667.637 139.766C668.73 139.766 669.567 140.12 670.146 140.83C670.726 141.533 671.016 142.552 671.016 143.887V150ZM678.809 149.883C678.535 149.993 678.265 150.075 677.998 150.127C677.738 150.186 677.441 150.215 677.109 150.215C676.315 150.215 675.69 149.984 675.234 149.521C674.785 149.053 674.561 148.363 674.561 147.451V141.367H672.842V140H674.561V137.559L676.162 137.041V140H678.682V141.367H676.162V147.266C676.162 147.839 676.263 148.252 676.465 148.506C676.673 148.76 676.982 148.887 677.393 148.887C677.588 148.887 677.777 148.864 677.959 148.818C678.141 148.773 678.294 148.721 678.418 148.662L678.809 149.883ZM688.857 145.361H681.787C681.813 146.488 682.109 147.357 682.676 147.969C683.249 148.574 684.049 148.877 685.078 148.877C685.527 148.877 685.977 148.812 686.426 148.682C686.882 148.545 687.331 148.33 687.773 148.037L688.516 149.18C687.949 149.544 687.383 149.811 686.816 149.98C686.25 150.15 685.628 150.234 684.951 150.234C683.441 150.234 682.262 149.785 681.416 148.887C680.57 147.988 680.143 146.735 680.137 145.127C680.13 143.519 680.553 142.223 681.406 141.24C682.266 140.257 683.379 139.766 684.746 139.766C686.048 139.766 687.057 140.192 687.773 141.045C688.496 141.891 688.857 143.066 688.857 144.57V145.361ZM687.217 144.053C687.21 143.128 686.986 142.409 686.543 141.895C686.1 141.374 685.492 141.113 684.717 141.113C683.955 141.113 683.307 141.38 682.773 141.914C682.246 142.441 681.924 143.154 681.807 144.053H687.217ZM696.221 141.367C696.097 141.328 695.986 141.302 695.889 141.289C695.791 141.27 695.667 141.26 695.518 141.26C694.704 141.26 694.062 141.608 693.594 142.305C693.125 142.995 692.891 143.861 692.891 144.902V150H691.289V140H692.891V141.982H692.93C693.158 141.279 693.506 140.745 693.975 140.381C694.443 140.01 694.984 139.824 695.596 139.824C695.798 139.824 695.967 139.834 696.104 139.854C696.247 139.873 696.374 139.902 696.484 139.941L696.221 141.367ZM705.322 150H703.721V148.438H703.682C703.337 149.036 702.91 149.486 702.402 149.785C701.901 150.085 701.315 150.234 700.645 150.234C699.707 150.234 698.949 149.961 698.369 149.414C697.79 148.867 697.5 148.141 697.5 147.236C697.5 146.383 697.793 145.677 698.379 145.117C698.965 144.557 699.795 144.199 700.869 144.043L703.721 143.662V143.438C703.721 142.598 703.525 142.002 703.135 141.65C702.744 141.292 702.223 141.113 701.572 141.113C701.051 141.113 700.55 141.211 700.068 141.406C699.587 141.602 699.134 141.901 698.711 142.305L697.773 141.338C698.333 140.798 698.929 140.4 699.561 140.146C700.192 139.893 700.895 139.766 701.67 139.766C702.881 139.766 703.792 140.078 704.404 140.703C705.016 141.322 705.322 142.253 705.322 143.496V150ZM703.721 145.938V144.941L701.309 145.273C700.573 145.378 700.02 145.563 699.648 145.83C699.277 146.097 699.092 146.517 699.092 147.09C699.092 147.689 699.264 148.148 699.609 148.467C699.961 148.779 700.387 148.936 700.889 148.936C701.755 148.936 702.441 148.652 702.949 148.086C703.464 147.52 703.721 146.803 703.721 145.938ZM715.449 149.404C714.987 149.691 714.525 149.899 714.062 150.029C713.6 150.166 713.096 150.234 712.549 150.234C711.143 150.234 709.987 149.798 709.082 148.926C708.184 148.053 707.734 146.816 707.734 145.215C707.734 143.587 708.187 142.272 709.092 141.27C710.003 140.267 711.253 139.766 712.842 139.766C713.356 139.766 713.844 139.827 714.307 139.951C714.775 140.075 715.247 140.277 715.723 140.557L715.049 141.729C714.678 141.52 714.313 141.367 713.955 141.27C713.597 141.172 713.206 141.123 712.783 141.123C711.683 141.123 710.84 141.491 710.254 142.227C709.668 142.962 709.375 143.896 709.375 145.029C709.375 146.279 709.681 147.233 710.293 147.891C710.911 148.548 711.709 148.877 712.686 148.877C713.005 148.877 713.337 148.828 713.682 148.73C714.033 148.626 714.385 148.467 714.736 148.252L715.449 149.404ZM722.422 149.883C722.148 149.993 721.878 150.075 721.611 150.127C721.351 150.186 721.055 150.215 720.723 150.215C719.928 150.215 719.303 149.984 718.848 149.521C718.398 149.053 718.174 148.363 718.174 147.451V141.367H716.455V140H718.174V137.559L719.775 137.041V140H722.295V141.367H719.775V147.266C719.775 147.839 719.876 148.252 720.078 148.506C720.286 148.76 720.596 148.887 721.006 148.887C721.201 148.887 721.39 148.864 721.572 148.818C721.755 148.773 721.908 148.721 722.031 148.662L722.422 149.883ZM725.254 137.607C724.928 137.607 724.655 137.5 724.434 137.285C724.212 137.064 724.102 136.794 724.102 136.475C724.102 136.156 724.212 135.889 724.434 135.674C724.655 135.452 724.928 135.342 725.254 135.342C725.579 135.342 725.853 135.452 726.074 135.674C726.296 135.889 726.406 136.156 726.406 136.475C726.406 136.794 726.296 137.064 726.074 137.285C725.853 137.5 725.579 137.607 725.254 137.607ZM726.035 150H724.434V140H726.035V150ZM733.457 150.234C731.979 150.234 730.798 149.769 729.912 148.838C729.033 147.9 728.594 146.66 728.594 145.117C728.594 143.444 729.049 142.135 729.961 141.191C730.872 140.247 732.116 139.772 733.691 139.766C735.182 139.759 736.344 140.218 737.178 141.143C738.018 142.067 738.438 143.34 738.438 144.961C738.438 146.562 737.985 147.842 737.08 148.799C736.182 149.756 734.974 150.234 733.457 150.234ZM733.574 148.887C734.609 148.887 735.404 148.551 735.957 147.881C736.517 147.204 736.797 146.25 736.797 145.02C736.797 143.763 736.517 142.799 735.957 142.129C735.397 141.452 734.603 141.113 733.574 141.113C732.546 141.113 731.732 141.465 731.133 142.168C730.534 142.871 730.234 143.835 730.234 145.059C730.234 146.243 730.537 147.178 731.143 147.861C731.748 148.545 732.559 148.887 733.574 148.887ZM749.297 150H747.695V144.297C747.695 143.236 747.5 142.441 747.109 141.914C746.725 141.38 746.146 141.113 745.371 141.113C744.57 141.113 743.906 141.416 743.379 142.021C742.858 142.62 742.598 143.379 742.598 144.297V150H740.996V140H742.598V141.66H742.637C743.014 141.029 743.477 140.557 744.023 140.244C744.57 139.925 745.202 139.766 745.918 139.766C747.012 139.766 747.848 140.12 748.428 140.83C749.007 141.533 749.297 142.552 749.297 143.887V150ZM762.578 149.883C762.305 149.993 762.035 150.075 761.768 150.127C761.507 150.186 761.211 150.215 760.879 150.215C760.085 150.215 759.46 149.984 759.004 149.521C758.555 149.053 758.33 148.363 758.33 147.451V141.367H756.611V140H758.33V137.559L759.932 137.041V140H762.451V141.367H759.932V147.266C759.932 147.839 760.033 148.252 760.234 148.506C760.443 148.76 760.752 148.887 761.162 148.887C761.357 148.887 761.546 148.864 761.729 148.818C761.911 148.773 762.064 148.721 762.188 148.662L762.578 149.883ZM772.549 140L767.832 151.904C767.461 152.842 766.995 153.542 766.436 154.004C765.876 154.473 765.218 154.707 764.463 154.707C764.268 154.707 764.089 154.694 763.926 154.668C763.763 154.648 763.607 154.619 763.457 154.58L763.77 153.213C763.887 153.252 763.994 153.278 764.092 153.291C764.196 153.311 764.297 153.32 764.395 153.32C764.824 153.32 765.179 153.21 765.459 152.988C765.745 152.767 765.973 152.454 766.143 152.051L767.012 149.98L763.105 140H764.883L767.588 147.695C767.601 147.741 767.624 147.829 767.656 147.959C767.695 148.089 767.741 148.255 767.793 148.457H767.852C767.871 148.379 767.894 148.278 767.92 148.154C767.952 148.031 767.995 147.884 768.047 147.715L770.889 140H772.549ZM775.918 148.555H775.879V154.6H774.277V140H775.879V141.758H775.918C776.315 141.094 776.8 140.596 777.373 140.264C777.952 139.932 778.62 139.766 779.375 139.766C780.664 139.766 781.67 140.215 782.393 141.113C783.115 142.005 783.477 143.203 783.477 144.707C783.477 146.38 783.07 147.721 782.256 148.73C781.442 149.733 780.329 150.234 778.916 150.234C778.271 150.234 777.699 150.094 777.197 149.814C776.696 149.535 776.27 149.115 775.918 148.555ZM775.879 144.521V145.918C775.879 146.745 776.146 147.448 776.68 148.027C777.22 148.6 777.904 148.887 778.73 148.887C779.701 148.887 780.459 148.516 781.006 147.773C781.559 147.031 781.836 145.999 781.836 144.678C781.836 143.564 781.579 142.692 781.064 142.061C780.55 141.429 779.854 141.113 778.975 141.113C778.044 141.113 777.295 141.439 776.729 142.09C776.162 142.734 775.879 143.545 775.879 144.521ZM794.072 145.361H787.002C787.028 146.488 787.324 147.357 787.891 147.969C788.464 148.574 789.264 148.877 790.293 148.877C790.742 148.877 791.191 148.812 791.641 148.682C792.096 148.545 792.546 148.33 792.988 148.037L793.73 149.18C793.164 149.544 792.598 149.811 792.031 149.98C791.465 150.15 790.843 150.234 790.166 150.234C788.656 150.234 787.477 149.785 786.631 148.887C785.785 147.988 785.358 146.735 785.352 145.127C785.345 143.519 785.768 142.223 786.621 141.24C787.48 140.257 788.594 139.766 789.961 139.766C791.263 139.766 792.272 140.192 792.988 141.045C793.711 141.891 794.072 143.066 794.072 144.57V145.361ZM792.432 144.053C792.425 143.128 792.201 142.409 791.758 141.895C791.315 141.374 790.706 141.113 789.932 141.113C789.17 141.113 788.522 141.38 787.988 141.914C787.461 142.441 787.139 143.154 787.021 144.053H792.432ZM795.566 149.248L796.328 148.018C796.764 148.304 797.191 148.522 797.607 148.672C798.024 148.815 798.473 148.887 798.955 148.887C799.639 148.887 800.156 148.76 800.508 148.506C800.866 148.252 801.045 147.871 801.045 147.363C801.045 146.953 800.885 146.608 800.566 146.328C800.254 146.042 799.762 145.814 799.092 145.645C797.842 145.326 796.986 144.925 796.523 144.443C796.061 143.955 795.83 143.356 795.83 142.646C795.83 141.826 796.139 141.143 796.758 140.596C797.376 140.042 798.239 139.766 799.346 139.766C799.88 139.766 800.387 139.834 800.869 139.971C801.351 140.107 801.842 140.342 802.344 140.674L801.631 141.885C801.175 141.598 800.765 141.4 800.4 141.289C800.042 141.172 799.678 141.113 799.307 141.113C798.662 141.113 798.171 141.234 797.832 141.475C797.493 141.709 797.324 142.051 797.324 142.5C797.324 142.949 797.497 143.288 797.842 143.516C798.193 143.743 798.757 143.958 799.531 144.16C800.547 144.434 801.305 144.818 801.807 145.312C802.314 145.801 802.568 146.442 802.568 147.236C802.568 148.161 802.24 148.893 801.582 149.434C800.931 149.967 800.036 150.234 798.896 150.234C798.285 150.234 797.695 150.15 797.129 149.98C796.569 149.811 796.048 149.567 795.566 149.248Z" fill="#E2E2E2" fill-opacity="0.67"/>
<path d="M355.098 203.48H351.055V216H349.414V203.48H345.381V201.996H355.098V203.48ZM359.336 216.234C357.858 216.234 356.676 215.769 355.791 214.838C354.912 213.9 354.473 212.66 354.473 211.117C354.473 209.444 354.928 208.135 355.84 207.191C356.751 206.247 357.995 205.772 359.57 205.766C361.061 205.759 362.223 206.218 363.057 207.143C363.896 208.067 364.316 209.34 364.316 210.961C364.316 212.562 363.864 213.842 362.959 214.799C362.061 215.756 360.853 216.234 359.336 216.234ZM359.453 214.887C360.488 214.887 361.283 214.551 361.836 213.881C362.396 213.204 362.676 212.25 362.676 211.02C362.676 209.763 362.396 208.799 361.836 208.129C361.276 207.452 360.482 207.113 359.453 207.113C358.424 207.113 357.611 207.465 357.012 208.168C356.413 208.871 356.113 209.835 356.113 211.059C356.113 212.243 356.416 213.178 357.021 213.861C357.627 214.545 358.438 214.887 359.453 214.887ZM375.41 215.463C375.41 217.214 374.961 218.526 374.062 219.398C373.171 220.271 371.947 220.707 370.391 220.707C369.707 220.707 369.069 220.642 368.477 220.512C367.891 220.382 367.285 220.17 366.66 219.877L367.246 218.646C367.767 218.887 368.275 219.063 368.77 219.174C369.271 219.285 369.805 219.34 370.371 219.34C371.439 219.34 372.279 219.037 372.891 218.432C373.503 217.826 373.809 216.908 373.809 215.678V214.32H373.77C373.392 214.958 372.917 215.437 372.344 215.756C371.771 216.075 371.1 216.234 370.332 216.234C369.089 216.234 368.086 215.792 367.324 214.906C366.569 214.014 366.191 212.82 366.191 211.322C366.191 209.682 366.608 208.347 367.441 207.318C368.281 206.283 369.391 205.766 370.771 205.766C371.449 205.766 372.035 205.902 372.529 206.176C373.031 206.443 373.444 206.846 373.77 207.387H373.809V206H375.41V215.463ZM373.809 211.479V210.004C373.809 209.21 373.538 208.529 372.998 207.963C372.464 207.396 371.797 207.113 370.996 207.113C370.013 207.113 369.238 207.452 368.672 208.129C368.112 208.806 367.832 209.835 367.832 211.215C367.832 212.4 368.092 213.308 368.613 213.939C369.134 214.571 369.854 214.887 370.771 214.887C371.67 214.887 372.399 214.568 372.959 213.93C373.525 213.292 373.809 212.475 373.809 211.479ZM387.188 215.463C387.188 217.214 386.738 218.526 385.84 219.398C384.948 220.271 383.724 220.707 382.168 220.707C381.484 220.707 380.846 220.642 380.254 220.512C379.668 220.382 379.062 220.17 378.438 219.877L379.023 218.646C379.544 218.887 380.052 219.063 380.547 219.174C381.048 219.285 381.582 219.34 382.148 219.34C383.216 219.34 384.056 219.037 384.668 218.432C385.28 217.826 385.586 216.908 385.586 215.678V214.32H385.547C385.169 214.958 384.694 215.437 384.121 215.756C383.548 216.075 382.878 216.234 382.109 216.234C380.866 216.234 379.863 215.792 379.102 214.906C378.346 214.014 377.969 212.82 377.969 211.322C377.969 209.682 378.385 208.347 379.219 207.318C380.059 206.283 381.169 205.766 382.549 205.766C383.226 205.766 383.812 205.902 384.307 206.176C384.808 206.443 385.221 206.846 385.547 207.387H385.586V206H387.188V215.463ZM385.586 211.479V210.004C385.586 209.21 385.316 208.529 384.775 207.963C384.242 207.396 383.574 207.113 382.773 207.113C381.79 207.113 381.016 207.452 380.449 208.129C379.889 208.806 379.609 209.835 379.609 211.215C379.609 212.4 379.87 213.308 380.391 213.939C380.911 214.571 381.631 214.887 382.549 214.887C383.447 214.887 384.176 214.568 384.736 213.93C385.303 213.292 385.586 212.475 385.586 211.479ZM390.43 216V201.195H392.031V216H390.43ZM403.311 211.361H396.24C396.266 212.488 396.562 213.357 397.129 213.969C397.702 214.574 398.503 214.877 399.531 214.877C399.98 214.877 400.43 214.812 400.879 214.682C401.335 214.545 401.784 214.33 402.227 214.037L402.969 215.18C402.402 215.544 401.836 215.811 401.27 215.98C400.703 216.15 400.081 216.234 399.404 216.234C397.894 216.234 396.715 215.785 395.869 214.887C395.023 213.988 394.596 212.735 394.59 211.127C394.583 209.519 395.007 208.223 395.859 207.24C396.719 206.257 397.832 205.766 399.199 205.766C400.501 205.766 401.51 206.192 402.227 207.045C402.949 207.891 403.311 209.066 403.311 210.57V211.361ZM401.67 210.053C401.663 209.128 401.439 208.409 400.996 207.895C400.553 207.374 399.945 207.113 399.17 207.113C398.408 207.113 397.76 207.38 397.227 207.914C396.699 208.441 396.377 209.154 396.26 210.053H401.67ZM404.805 215.248L405.566 214.018C406.003 214.304 406.429 214.522 406.846 214.672C407.262 214.815 407.712 214.887 408.193 214.887C408.877 214.887 409.395 214.76 409.746 214.506C410.104 214.252 410.283 213.871 410.283 213.363C410.283 212.953 410.124 212.608 409.805 212.328C409.492 212.042 409.001 211.814 408.33 211.645C407.08 211.326 406.224 210.925 405.762 210.443C405.299 209.955 405.068 209.356 405.068 208.646C405.068 207.826 405.378 207.143 405.996 206.596C406.615 206.042 407.477 205.766 408.584 205.766C409.118 205.766 409.626 205.834 410.107 205.971C410.589 206.107 411.081 206.342 411.582 206.674L410.869 207.885C410.413 207.598 410.003 207.4 409.639 207.289C409.281 207.172 408.916 207.113 408.545 207.113C407.9 207.113 407.409 207.234 407.07 207.475C406.732 207.709 406.562 208.051 406.562 208.5C406.562 208.949 406.735 209.288 407.08 209.516C407.432 209.743 407.995 209.958 408.77 210.16C409.785 210.434 410.544 210.818 411.045 211.312C411.553 211.801 411.807 212.442 411.807 213.236C411.807 214.161 411.478 214.893 410.82 215.434C410.169 215.967 409.274 216.234 408.135 216.234C407.523 216.234 406.934 216.15 406.367 215.98C405.807 215.811 405.286 215.567 404.805 215.248ZM415.693 213.773L414.141 218.578H412.998L414.141 213.773H415.693ZM431.924 206L427.939 216H426.367L422.578 206H424.336L426.875 213.266C426.966 213.533 427.041 213.783 427.1 214.018C427.158 214.245 427.201 214.46 427.227 214.662H427.266C427.298 214.408 427.34 214.171 427.393 213.949C427.445 213.721 427.507 213.507 427.578 213.305L430.234 206H431.924ZM440.732 216H439.131V214.438H439.092C438.747 215.036 438.32 215.486 437.812 215.785C437.311 216.085 436.725 216.234 436.055 216.234C435.117 216.234 434.359 215.961 433.779 215.414C433.2 214.867 432.91 214.141 432.91 213.236C432.91 212.383 433.203 211.677 433.789 211.117C434.375 210.557 435.205 210.199 436.279 210.043L439.131 209.662V209.438C439.131 208.598 438.936 208.002 438.545 207.65C438.154 207.292 437.633 207.113 436.982 207.113C436.462 207.113 435.96 207.211 435.479 207.406C434.997 207.602 434.544 207.901 434.121 208.305L433.184 207.338C433.743 206.798 434.339 206.4 434.971 206.146C435.602 205.893 436.305 205.766 437.08 205.766C438.291 205.766 439.202 206.078 439.814 206.703C440.426 207.322 440.732 208.253 440.732 209.496V216ZM439.131 211.938V210.941L436.719 211.273C435.983 211.378 435.43 211.563 435.059 211.83C434.688 212.097 434.502 212.517 434.502 213.09C434.502 213.689 434.674 214.148 435.02 214.467C435.371 214.779 435.798 214.936 436.299 214.936C437.165 214.936 437.852 214.652 438.359 214.086C438.874 213.52 439.131 212.803 439.131 211.938ZM448.76 207.367C448.636 207.328 448.525 207.302 448.428 207.289C448.33 207.27 448.206 207.26 448.057 207.26C447.243 207.26 446.602 207.608 446.133 208.305C445.664 208.995 445.43 209.861 445.43 210.902V216H443.828V206H445.43V207.982H445.469C445.697 207.279 446.045 206.745 446.514 206.381C446.982 206.01 447.523 205.824 448.135 205.824C448.337 205.824 448.506 205.834 448.643 205.854C448.786 205.873 448.913 205.902 449.023 205.941L448.76 207.367ZM451.602 203.607C451.276 203.607 451.003 203.5 450.781 203.285C450.56 203.064 450.449 202.794 450.449 202.475C450.449 202.156 450.56 201.889 450.781 201.674C451.003 201.452 451.276 201.342 451.602 201.342C451.927 201.342 452.201 201.452 452.422 201.674C452.643 201.889 452.754 202.156 452.754 202.475C452.754 202.794 452.643 203.064 452.422 203.285C452.201 203.5 451.927 203.607 451.602 203.607ZM452.383 216H450.781V206H452.383V216ZM462.705 216H461.104V214.438H461.064C460.719 215.036 460.293 215.486 459.785 215.785C459.284 216.085 458.698 216.234 458.027 216.234C457.09 216.234 456.331 215.961 455.752 215.414C455.173 214.867 454.883 214.141 454.883 213.236C454.883 212.383 455.176 211.677 455.762 211.117C456.348 210.557 457.178 210.199 458.252 210.043L461.104 209.662V209.438C461.104 208.598 460.908 208.002 460.518 207.65C460.127 207.292 459.606 207.113 458.955 207.113C458.434 207.113 457.933 207.211 457.451 207.406C456.969 207.602 456.517 207.901 456.094 208.305L455.156 207.338C455.716 206.798 456.312 206.4 456.943 206.146C457.575 205.893 458.278 205.766 459.053 205.766C460.264 205.766 461.175 206.078 461.787 206.703C462.399 207.322 462.705 208.253 462.705 209.496V216ZM461.104 211.938V210.941L458.691 211.273C457.956 211.378 457.402 211.563 457.031 211.83C456.66 212.097 456.475 212.517 456.475 213.09C456.475 213.689 456.647 214.148 456.992 214.467C457.344 214.779 457.77 214.936 458.271 214.936C459.137 214.936 459.824 214.652 460.332 214.086C460.846 213.52 461.104 212.803 461.104 211.938ZM467.441 214.711H467.402V216H465.801V201.195H467.402V207.758H467.441C467.839 207.094 468.324 206.596 468.896 206.264C469.476 205.932 470.143 205.766 470.898 205.766C472.181 205.766 473.184 206.215 473.906 207.113C474.635 208.005 475 209.203 475 210.707C475 212.38 474.593 213.721 473.779 214.73C472.965 215.733 471.852 216.234 470.439 216.234C469.782 216.234 469.202 216.107 468.701 215.854C468.2 215.6 467.78 215.219 467.441 214.711ZM467.402 210.521V211.918C467.402 212.745 467.669 213.448 468.203 214.027C468.743 214.6 469.427 214.887 470.254 214.887C471.224 214.887 471.982 214.516 472.529 213.773C473.083 213.031 473.359 211.999 473.359 210.678C473.359 209.564 473.102 208.692 472.588 208.061C472.074 207.429 471.377 207.113 470.498 207.113C469.567 207.113 468.818 207.439 468.252 208.09C467.686 208.734 467.402 209.545 467.402 210.521ZM477.559 216V201.195H479.16V216H477.559ZM490.439 211.361H483.369C483.395 212.488 483.691 213.357 484.258 213.969C484.831 214.574 485.632 214.877 486.66 214.877C487.109 214.877 487.559 214.812 488.008 214.682C488.464 214.545 488.913 214.33 489.355 214.037L490.098 215.18C489.531 215.544 488.965 215.811 488.398 215.98C487.832 216.15 487.21 216.234 486.533 216.234C485.023 216.234 483.844 215.785 482.998 214.887C482.152 213.988 481.725 212.735 481.719 211.127C481.712 209.519 482.135 208.223 482.988 207.24C483.848 206.257 484.961 205.766 486.328 205.766C487.63 205.766 488.639 206.192 489.355 207.045C490.078 207.891 490.439 209.066 490.439 210.57V211.361ZM488.799 210.053C488.792 209.128 488.568 208.409 488.125 207.895C487.682 207.374 487.074 207.113 486.299 207.113C485.537 207.113 484.889 207.38 484.355 207.914C483.828 208.441 483.506 209.154 483.389 210.053H488.799ZM497.422 215.248L498.184 214.018C498.62 214.304 499.046 214.522 499.463 214.672C499.88 214.815 500.329 214.887 500.811 214.887C501.494 214.887 502.012 214.76 502.363 214.506C502.721 214.252 502.9 213.871 502.9 213.363C502.9 212.953 502.741 212.608 502.422 212.328C502.109 212.042 501.618 211.814 500.947 211.645C499.697 211.326 498.841 210.925 498.379 210.443C497.917 209.955 497.686 209.356 497.686 208.646C497.686 207.826 497.995 207.143 498.613 206.596C499.232 206.042 500.094 205.766 501.201 205.766C501.735 205.766 502.243 205.834 502.725 205.971C503.206 206.107 503.698 206.342 504.199 206.674L503.486 207.885C503.031 207.598 502.62 207.4 502.256 207.289C501.898 207.172 501.533 207.113 501.162 207.113C500.518 207.113 500.026 207.234 499.688 207.475C499.349 207.709 499.18 208.051 499.18 208.5C499.18 208.949 499.352 209.288 499.697 209.516C500.049 209.743 500.612 209.958 501.387 210.16C502.402 210.434 503.161 210.818 503.662 211.312C504.17 211.801 504.424 212.442 504.424 213.236C504.424 214.161 504.095 214.893 503.438 215.434C502.786 215.967 501.891 216.234 500.752 216.234C500.14 216.234 499.551 216.15 498.984 215.98C498.424 215.811 497.904 215.567 497.422 215.248ZM514.893 211.361H507.822C507.848 212.488 508.145 213.357 508.711 213.969C509.284 214.574 510.085 214.877 511.113 214.877C511.562 214.877 512.012 214.812 512.461 214.682C512.917 214.545 513.366 214.33 513.809 214.037L514.551 215.18C513.984 215.544 513.418 215.811 512.852 215.98C512.285 216.15 511.663 216.234 510.986 216.234C509.476 216.234 508.298 215.785 507.451 214.887C506.605 213.988 506.178 212.735 506.172 211.127C506.165 209.519 506.589 208.223 507.441 207.24C508.301 206.257 509.414 205.766 510.781 205.766C512.083 205.766 513.092 206.192 513.809 207.045C514.531 207.891 514.893 209.066 514.893 210.57V211.361ZM513.252 210.053C513.245 209.128 513.021 208.409 512.578 207.895C512.135 207.374 511.527 207.113 510.752 207.113C509.99 207.113 509.342 207.38 508.809 207.914C508.281 208.441 507.959 209.154 507.842 210.053H513.252ZM517.324 216V201.195H518.926V216H517.324ZM530.205 211.361H523.135C523.161 212.488 523.457 213.357 524.023 213.969C524.596 214.574 525.397 214.877 526.426 214.877C526.875 214.877 527.324 214.812 527.773 214.682C528.229 214.545 528.678 214.33 529.121 214.037L529.863 215.18C529.297 215.544 528.73 215.811 528.164 215.98C527.598 216.15 526.976 216.234 526.299 216.234C524.788 216.234 523.61 215.785 522.764 214.887C521.917 213.988 521.491 212.735 521.484 211.127C521.478 209.519 521.901 208.223 522.754 207.24C523.613 206.257 524.727 205.766 526.094 205.766C527.396 205.766 528.405 206.192 529.121 207.045C529.844 207.891 530.205 209.066 530.205 210.57V211.361ZM528.564 210.053C528.558 209.128 528.333 208.409 527.891 207.895C527.448 207.374 526.839 207.113 526.064 207.113C525.303 207.113 524.655 207.38 524.121 207.914C523.594 208.441 523.271 209.154 523.154 210.053H528.564ZM539.668 215.404C539.206 215.691 538.743 215.899 538.281 216.029C537.819 216.166 537.314 216.234 536.768 216.234C535.361 216.234 534.206 215.798 533.301 214.926C532.402 214.053 531.953 212.816 531.953 211.215C531.953 209.587 532.406 208.272 533.311 207.27C534.222 206.267 535.472 205.766 537.061 205.766C537.575 205.766 538.063 205.827 538.525 205.951C538.994 206.075 539.466 206.277 539.941 206.557L539.268 207.729C538.896 207.52 538.532 207.367 538.174 207.27C537.816 207.172 537.425 207.123 537.002 207.123C535.902 207.123 535.059 207.491 534.473 208.227C533.887 208.962 533.594 209.896 533.594 211.029C533.594 212.279 533.9 213.233 534.512 213.891C535.13 214.548 535.928 214.877 536.904 214.877C537.223 214.877 537.555 214.828 537.9 214.73C538.252 214.626 538.604 214.467 538.955 214.252L539.668 215.404ZM546.641 215.883C546.367 215.993 546.097 216.075 545.83 216.127C545.57 216.186 545.273 216.215 544.941 216.215C544.147 216.215 543.522 215.984 543.066 215.521C542.617 215.053 542.393 214.363 542.393 213.451V207.367H540.674V206H542.393V203.559L543.994 203.041V206H546.514V207.367H543.994V213.266C543.994 213.839 544.095 214.252 544.297 214.506C544.505 214.76 544.814 214.887 545.225 214.887C545.42 214.887 545.609 214.864 545.791 214.818C545.973 214.773 546.126 214.721 546.25 214.662L546.641 215.883ZM556.689 211.361H549.619C549.645 212.488 549.941 213.357 550.508 213.969C551.081 214.574 551.882 214.877 552.91 214.877C553.359 214.877 553.809 214.812 554.258 214.682C554.714 214.545 555.163 214.33 555.605 214.037L556.348 215.18C555.781 215.544 555.215 215.811 554.648 215.98C554.082 216.15 553.46 216.234 552.783 216.234C551.273 216.234 550.094 215.785 549.248 214.887C548.402 213.988 547.975 212.735 547.969 211.127C547.962 209.519 548.385 208.223 549.238 207.24C550.098 206.257 551.211 205.766 552.578 205.766C553.88 205.766 554.889 206.192 555.605 207.045C556.328 207.891 556.689 209.066 556.689 210.57V211.361ZM555.049 210.053C555.042 209.128 554.818 208.409 554.375 207.895C553.932 207.374 553.324 207.113 552.549 207.113C551.787 207.113 551.139 207.38 550.605 207.914C550.078 208.441 549.756 209.154 549.639 210.053H555.049ZM566.016 214.301C565.645 214.945 565.173 215.43 564.6 215.756C564.033 216.075 563.359 216.234 562.578 216.234C561.322 216.234 560.316 215.788 559.561 214.896C558.812 213.998 558.438 212.777 558.438 211.234C558.438 209.581 558.854 208.256 559.688 207.26C560.521 206.264 561.631 205.766 563.018 205.766C563.708 205.766 564.3 205.902 564.795 206.176C565.296 206.443 565.703 206.846 566.016 207.387H566.055V201.195H567.656V216H566.055V214.301H566.016ZM560.078 211.156C560.078 212.309 560.345 213.22 560.879 213.891C561.419 214.555 562.142 214.887 563.047 214.887C563.945 214.887 564.671 214.564 565.225 213.92C565.778 213.275 566.055 212.462 566.055 211.479V210.004C566.055 209.197 565.785 208.513 565.244 207.953C564.71 207.393 564.036 207.113 563.223 207.113C562.246 207.113 561.478 207.471 560.918 208.188C560.358 208.904 560.078 209.893 560.078 211.156ZM579.199 216H577.598V210.297C577.598 209.236 577.402 208.441 577.012 207.914C576.628 207.38 576.048 207.113 575.273 207.113C574.473 207.113 573.809 207.416 573.281 208.021C572.76 208.62 572.5 209.379 572.5 210.297V216H570.898V206H572.5V207.66H572.539C572.917 207.029 573.379 206.557 573.926 206.244C574.473 205.925 575.104 205.766 575.82 205.766C576.914 205.766 577.751 206.12 578.33 206.83C578.91 207.533 579.199 208.552 579.199 209.887V216ZM590.264 211.361H583.193C583.219 212.488 583.516 213.357 584.082 213.969C584.655 214.574 585.456 214.877 586.484 214.877C586.934 214.877 587.383 214.812 587.832 214.682C588.288 214.545 588.737 214.33 589.18 214.037L589.922 215.18C589.355 215.544 588.789 215.811 588.223 215.98C587.656 216.15 587.035 216.234 586.357 216.234C584.847 216.234 583.669 215.785 582.822 214.887C581.976 213.988 581.549 212.735 581.543 211.127C581.536 209.519 581.96 208.223 582.812 207.24C583.672 206.257 584.785 205.766 586.152 205.766C587.454 205.766 588.464 206.192 589.18 207.045C589.902 207.891 590.264 209.066 590.264 210.57V211.361ZM588.623 210.053C588.617 209.128 588.392 208.409 587.949 207.895C587.507 207.374 586.898 207.113 586.123 207.113C585.361 207.113 584.714 207.38 584.18 207.914C583.652 208.441 583.33 209.154 583.213 210.053H588.623ZM591.758 215.248L592.52 214.018C592.956 214.304 593.382 214.522 593.799 214.672C594.215 214.815 594.665 214.887 595.146 214.887C595.83 214.887 596.348 214.76 596.699 214.506C597.057 214.252 597.236 213.871 597.236 213.363C597.236 212.953 597.077 212.608 596.758 212.328C596.445 212.042 595.954 211.814 595.283 211.645C594.033 211.326 593.177 210.925 592.715 210.443C592.253 209.955 592.021 209.356 592.021 208.646C592.021 207.826 592.331 207.143 592.949 206.596C593.568 206.042 594.43 205.766 595.537 205.766C596.071 205.766 596.579 205.834 597.061 205.971C597.542 206.107 598.034 206.342 598.535 206.674L597.822 207.885C597.367 207.598 596.956 207.4 596.592 207.289C596.234 207.172 595.869 207.113 595.498 207.113C594.854 207.113 594.362 207.234 594.023 207.475C593.685 207.709 593.516 208.051 593.516 208.5C593.516 208.949 593.688 209.288 594.033 209.516C594.385 209.743 594.948 209.958 595.723 210.16C596.738 210.434 597.497 210.818 597.998 211.312C598.506 211.801 598.76 212.442 598.76 213.236C598.76 214.161 598.431 214.893 597.773 215.434C597.122 215.967 596.227 216.234 595.088 216.234C594.476 216.234 593.887 216.15 593.32 215.98C592.76 215.811 592.24 215.567 591.758 215.248ZM600.254 215.248L601.016 214.018C601.452 214.304 601.878 214.522 602.295 214.672C602.712 214.815 603.161 214.887 603.643 214.887C604.326 214.887 604.844 214.76 605.195 214.506C605.553 214.252 605.732 213.871 605.732 213.363C605.732 212.953 605.573 212.608 605.254 212.328C604.941 212.042 604.45 211.814 603.779 211.645C602.529 211.326 601.673 210.925 601.211 210.443C600.749 209.955 600.518 209.356 600.518 208.646C600.518 207.826 600.827 207.143 601.445 206.596C602.064 206.042 602.926 205.766 604.033 205.766C604.567 205.766 605.075 205.834 605.557 205.971C606.038 206.107 606.53 206.342 607.031 206.674L606.318 207.885C605.863 207.598 605.452 207.4 605.088 207.289C604.73 207.172 604.365 207.113 603.994 207.113C603.35 207.113 602.858 207.234 602.52 207.475C602.181 207.709 602.012 208.051 602.012 208.5C602.012 208.949 602.184 209.288 602.529 209.516C602.881 209.743 603.444 209.958 604.219 210.16C605.234 210.434 605.993 210.818 606.494 211.312C607.002 211.801 607.256 212.442 607.256 213.236C607.256 214.161 606.927 214.893 606.27 215.434C605.618 215.967 604.723 216.234 603.584 216.234C602.972 216.234 602.383 216.15 601.816 215.98C601.257 215.811 600.736 215.567 600.254 215.248ZM611.143 213.773L609.59 218.578H608.447L609.59 213.773H611.143ZM618.574 215.248L619.336 214.018C619.772 214.304 620.199 214.522 620.615 214.672C621.032 214.815 621.481 214.887 621.963 214.887C622.646 214.887 623.164 214.76 623.516 214.506C623.874 214.252 624.053 213.871 624.053 213.363C624.053 212.953 623.893 212.608 623.574 212.328C623.262 212.042 622.77 211.814 622.1 211.645C620.85 211.326 619.993 210.925 619.531 210.443C619.069 209.955 618.838 209.356 618.838 208.646C618.838 207.826 619.147 207.143 619.766 206.596C620.384 206.042 621.247 205.766 622.354 205.766C622.887 205.766 623.395 205.834 623.877 205.971C624.359 206.107 624.85 206.342 625.352 206.674L624.639 207.885C624.183 207.598 623.773 207.4 623.408 207.289C623.05 207.172 622.686 207.113 622.314 207.113C621.67 207.113 621.178 207.234 620.84 207.475C620.501 207.709 620.332 208.051 620.332 208.5C620.332 208.949 620.505 209.288 620.85 209.516C621.201 209.743 621.764 209.958 622.539 210.16C623.555 210.434 624.313 210.818 624.814 211.312C625.322 211.801 625.576 212.442 625.576 213.236C625.576 214.161 625.247 214.893 624.59 215.434C623.939 215.967 623.044 216.234 621.904 216.234C621.292 216.234 620.703 216.15 620.137 215.98C619.577 215.811 619.056 215.567 618.574 215.248ZM629.648 214.555H629.609V220.6H628.008V206H629.609V207.758H629.648C630.046 207.094 630.531 206.596 631.104 206.264C631.683 205.932 632.35 205.766 633.105 205.766C634.395 205.766 635.4 206.215 636.123 207.113C636.846 208.005 637.207 209.203 637.207 210.707C637.207 212.38 636.8 213.721 635.986 214.73C635.173 215.733 634.059 216.234 632.646 216.234C632.002 216.234 631.429 216.094 630.928 215.814C630.426 215.535 630 215.115 629.648 214.555ZM629.609 210.521V211.918C629.609 212.745 629.876 213.448 630.41 214.027C630.951 214.6 631.634 214.887 632.461 214.887C633.431 214.887 634.189 214.516 634.736 213.773C635.29 213.031 635.566 211.999 635.566 210.678C635.566 209.564 635.309 208.692 634.795 208.061C634.281 207.429 633.584 207.113 632.705 207.113C631.774 207.113 631.025 207.439 630.459 208.09C629.893 208.734 629.609 209.545 629.609 210.521ZM647.803 211.361H640.732C640.758 212.488 641.055 213.357 641.621 213.969C642.194 214.574 642.995 214.877 644.023 214.877C644.473 214.877 644.922 214.812 645.371 214.682C645.827 214.545 646.276 214.33 646.719 214.037L647.461 215.18C646.895 215.544 646.328 215.811 645.762 215.98C645.195 216.15 644.574 216.234 643.896 216.234C642.386 216.234 641.208 215.785 640.361 214.887C639.515 213.988 639.089 212.735 639.082 211.127C639.076 209.519 639.499 208.223 640.352 207.24C641.211 206.257 642.324 205.766 643.691 205.766C644.993 205.766 646.003 206.192 646.719 207.045C647.441 207.891 647.803 209.066 647.803 210.57V211.361ZM646.162 210.053C646.156 209.128 645.931 208.409 645.488 207.895C645.046 207.374 644.437 207.113 643.662 207.113C642.9 207.113 642.253 207.38 641.719 207.914C641.191 208.441 640.869 209.154 640.752 210.053H646.162ZM658.271 211.361H651.201C651.227 212.488 651.523 213.357 652.09 213.969C652.663 214.574 653.464 214.877 654.492 214.877C654.941 214.877 655.391 214.812 655.84 214.682C656.296 214.545 656.745 214.33 657.188 214.037L657.93 215.18C657.363 215.544 656.797 215.811 656.23 215.98C655.664 216.15 655.042 216.234 654.365 216.234C652.855 216.234 651.676 215.785 650.83 214.887C649.984 213.988 649.557 212.735 649.551 211.127C649.544 209.519 649.967 208.223 650.82 207.24C651.68 206.257 652.793 205.766 654.16 205.766C655.462 205.766 656.471 206.192 657.188 207.045C657.91 207.891 658.271 209.066 658.271 210.57V211.361ZM656.631 210.053C656.624 209.128 656.4 208.409 655.957 207.895C655.514 207.374 654.906 207.113 654.131 207.113C653.369 207.113 652.721 207.38 652.188 207.914C651.66 208.441 651.338 209.154 651.221 210.053H656.631ZM667.734 215.404C667.272 215.691 666.81 215.899 666.348 216.029C665.885 216.166 665.381 216.234 664.834 216.234C663.428 216.234 662.272 215.798 661.367 214.926C660.469 214.053 660.02 212.816 660.02 211.215C660.02 209.587 660.472 208.272 661.377 207.27C662.288 206.267 663.538 205.766 665.127 205.766C665.641 205.766 666.13 205.827 666.592 205.951C667.061 206.075 667.533 206.277 668.008 206.557L667.334 207.729C666.963 207.52 666.598 207.367 666.24 207.27C665.882 207.172 665.492 207.123 665.068 207.123C663.968 207.123 663.125 207.491 662.539 208.227C661.953 208.962 661.66 209.896 661.66 211.029C661.66 212.279 661.966 213.233 662.578 213.891C663.197 214.548 663.994 214.877 664.971 214.877C665.29 214.877 665.622 214.828 665.967 214.73C666.318 214.626 666.67 214.467 667.021 214.252L667.734 215.404ZM678.242 216H676.641V210.238C676.641 209.197 676.445 208.415 676.055 207.895C675.671 207.374 675.091 207.113 674.316 207.113C673.535 207.113 672.878 207.416 672.344 208.021C671.81 208.62 671.543 209.392 671.543 210.336V216H669.941V201.195H671.543V207.66H671.582C671.966 207.029 672.432 206.557 672.979 206.244C673.525 205.925 674.154 205.766 674.863 205.766C675.99 205.766 676.833 206.104 677.393 206.781C677.959 207.458 678.242 208.477 678.242 209.838V216Z" fill="#E2E2E2" fill-opacity="0.67"/>
<path d="M70.5625 148H72.4375V136.594H72.6914L74.2734 142.336H76.0703L77.6523 136.594H77.9062V148H79.7812V134.133H76.832L75.25 140.09H75.0938L73.5117 134.133H70.5625V148ZM82.3984 148H84.3516V142.727H87.1641C87.2227 142.727 87.2715 142.727 87.3301 142.727L89.8398 148H92.1836L89.3223 142.346C90.8457 141.711 91.6758 140.324 91.6758 138.332C91.6758 135.656 90.0352 134.133 87.1641 134.133H82.3984V148ZM84.3516 140.871V135.988H87.1641C88.7168 135.988 89.625 136.906 89.625 138.527C89.625 140.012 88.7168 140.871 87.1641 140.871H84.3516ZM97.6328 148H99.5859V135.988H103.688V134.133H93.5312V135.988H97.6328V148ZM106.031 148H107.984V143.557C109.029 143.459 109.967 143.166 110.807 142.717L113.551 148H115.914L112.457 141.496C114.264 139.709 115.25 136.994 115.25 134.133H113.238C113.238 137.775 111.607 141.311 107.984 141.633V134.133H106.031V148ZM117.75 148H123.062C125.738 148 127.262 146.613 127.262 144.191C127.262 142.014 125.709 140.754 122.965 140.715V140.598C125.094 140.373 126.285 139.338 126.285 137.648C126.285 135.402 124.684 134.133 121.871 134.133H117.75V148ZM119.703 146.145V141.604H122.359C124.176 141.604 125.211 142.443 125.211 143.898C125.211 145.324 124.215 146.145 122.496 146.145H119.703ZM119.703 139.748V135.988H121.773C123.346 135.988 124.234 136.652 124.234 137.844C124.234 139.064 123.385 139.748 121.91 139.748H119.703ZM135.895 148.098L139.215 148V146.34L137.457 146.125V141.809C137.457 139.074 135.816 137.629 132.398 137.58L130.309 137.551L130.113 139.387L132.594 139.455C134.508 139.504 135.484 140.119 135.484 141.496V141.975C134.918 141.857 134.273 141.809 133.531 141.809C130.543 141.809 128.844 143.02 128.844 145.207C128.844 147.111 130.084 148.195 132.242 148.195C134.166 148.195 135.445 147.404 135.592 145.812H135.797L135.895 148.098ZM135.484 143.566V144.289C135.484 145.383 134.508 146.535 132.574 146.535C131.441 146.535 130.797 145.979 130.797 145.012C130.797 143.996 131.725 143.469 133.492 143.469C134.166 143.469 134.82 143.469 135.484 143.566ZM144.684 148.195C148.277 148.195 149.82 147.238 149.82 145.012C149.82 143.352 148.844 142.59 146.676 142.062L144.762 141.594C143.873 141.379 143.453 141.184 143.453 140.578C143.453 139.68 144.43 139.309 146.754 139.309C147.516 139.309 148.277 139.348 149.332 139.445L149.547 137.648C148.629 137.512 147.809 137.453 146.812 137.453C142.945 137.453 141.305 138.41 141.305 140.676C141.305 142.238 142.232 142.873 144.273 143.391L146.656 143.996C147.34 144.172 147.672 144.426 147.672 145.051C147.672 145.949 146.773 146.34 144.684 146.34C143.746 146.34 142.75 146.242 141.383 146.027L141.148 147.902C142.066 148.117 143.121 148.195 144.684 148.195ZM158.199 148.195C158.98 148.195 159.996 148.156 161.227 147.922L160.973 146.105C160.113 146.281 159.293 146.379 158.434 146.379C156.354 146.379 155.045 145.471 154.684 143.742H161.676C161.715 143.332 161.734 142.902 161.734 142.414C161.734 139.191 160.133 137.453 157.34 137.453C154.371 137.453 152.672 139.426 152.672 142.805C152.672 146.281 154.664 148.195 158.199 148.195ZM154.605 142.16C154.771 140.314 155.758 139.27 157.359 139.27C158.922 139.27 159.859 140.305 159.859 142.16H154.605ZM164.703 148H173.141V146.145H169.889V135.988H173.141V134.133H164.703V135.988H167.936V146.145H164.703V148ZM182.789 148H184.859V141.262C184.859 138.84 183.609 137.453 181.422 137.453C179.684 137.453 178.805 138.137 178.688 139.523H178.463L178.297 137.648H176.422V148H178.492V142.18C178.492 140.256 179.312 139.309 180.934 139.309C182.105 139.309 182.789 140.012 182.789 141.262V148ZM194.137 148.195C195.113 148.195 195.934 148.117 196.852 147.961L196.617 146.145C195.68 146.262 194.977 146.34 194.332 146.34C192.496 146.34 191.754 145.637 191.754 143.996V139.348H196.461V137.648H191.754V134.523H189.684V137.648H187.086V139.348H189.684V144.094C189.684 146.965 190.992 148.195 194.137 148.195ZM205.074 148.195C205.855 148.195 206.871 148.156 208.102 147.922L207.848 146.105C206.988 146.281 206.168 146.379 205.309 146.379C203.229 146.379 201.92 145.471 201.559 143.742H208.551C208.59 143.332 208.609 142.902 208.609 142.414C208.609 139.191 207.008 137.453 204.215 137.453C201.246 137.453 199.547 139.426 199.547 142.805C199.547 146.281 201.539 148.195 205.074 148.195ZM201.48 142.16C201.646 140.314 202.633 139.27 204.234 139.27C205.797 139.27 206.734 140.305 206.734 142.16H201.48ZM215.094 143.547C215.094 140.773 215.953 139.211 217.711 139.211C218.707 139.211 219.137 139.836 219.137 141.34H221.188C221.188 138.605 220.27 137.453 218.141 137.453C216.344 137.453 215.406 138.391 215.289 140.305H215.055L214.703 137.648H211.109V139.348H213.023V146.301H210.719V148H217.633V146.301H215.094V143.547ZM229.645 148.098L232.965 148V146.34L231.207 146.125V141.809C231.207 139.074 229.566 137.629 226.148 137.58L224.059 137.551L223.863 139.387L226.344 139.455C228.258 139.504 229.234 140.119 229.234 141.496V141.975C228.668 141.857 228.023 141.809 227.281 141.809C224.293 141.809 222.594 143.02 222.594 145.207C222.594 147.111 223.834 148.195 225.992 148.195C227.916 148.195 229.195 147.404 229.342 145.812H229.547L229.645 148.098ZM229.234 143.566V144.289C229.234 145.383 228.258 146.535 226.324 146.535C225.191 146.535 224.547 145.979 224.547 145.012C224.547 143.996 225.475 143.469 227.242 143.469C227.916 143.469 228.57 143.469 229.234 143.566ZM240.035 148.195C241.188 148.195 242.418 148.137 243.551 147.902L243.316 146.086C242.34 146.242 241.305 146.34 240.27 146.34C238.082 146.34 236.852 145.07 236.852 142.707C236.852 140.539 237.965 139.309 239.879 139.309C240.963 139.309 241.91 139.855 242.496 140.803L244.088 139.602C243.473 138.234 241.969 137.453 239.957 137.453C236.588 137.453 234.703 139.426 234.703 142.805C234.703 146.281 236.637 148.195 240.035 148.195ZM252.73 148.195C253.707 148.195 254.527 148.117 255.445 147.961L255.211 146.145C254.273 146.262 253.57 146.34 252.926 146.34C251.09 146.34 250.348 145.637 250.348 143.996V139.348H255.055V137.648H250.348V134.523H248.277V137.648H245.68V139.348H248.277V144.094C248.277 146.965 249.586 148.195 252.73 148.195ZM264.801 148.098L268.121 148V146.34L266.363 146.125V141.809C266.363 139.074 264.723 137.629 261.305 137.58L259.215 137.551L259.02 139.387L261.5 139.455C263.414 139.504 264.391 140.119 264.391 141.496V141.975C263.824 141.857 263.18 141.809 262.438 141.809C259.449 141.809 257.75 143.02 257.75 145.207C257.75 147.111 258.99 148.195 261.148 148.195C263.072 148.195 264.352 147.404 264.498 145.812H264.703L264.801 148.098ZM264.391 143.566V144.289C264.391 145.383 263.414 146.535 261.48 146.535C260.348 146.535 259.703 145.979 259.703 145.012C259.703 143.996 260.631 143.469 262.398 143.469C263.072 143.469 263.727 143.469 264.391 143.566ZM272.945 148.195C276.998 148.195 279.312 145.988 279.312 142.141C279.312 139.152 277.73 137.453 274.977 137.453C273.375 137.453 272.535 138.137 272.438 139.523H272.242V133.352H270.172V148C271.109 148.117 272.008 148.195 272.945 148.195ZM272.242 142.18C272.242 140.188 273.121 139.211 274.879 139.211C276.402 139.211 277.262 140.266 277.262 142.141C277.262 144.875 275.846 146.438 273.355 146.438C272.984 146.438 272.613 146.438 272.242 146.408V142.18ZM287.555 148.195C288.668 148.195 289.586 148.078 290.641 147.785L290.406 145.969C289.547 146.223 288.922 146.34 288.336 146.34C286.559 146.34 286.227 145.637 286.227 143.996V133.352H281.109V135.051H284.156V144.094C284.156 146.965 285.152 148.195 287.555 148.195ZM298.824 148.195C299.605 148.195 300.621 148.156 301.852 147.922L301.598 146.105C300.738 146.281 299.918 146.379 299.059 146.379C296.979 146.379 295.67 145.471 295.309 143.742H302.301C302.34 143.332 302.359 142.902 302.359 142.414C302.359 139.191 300.758 137.453 297.965 137.453C294.996 137.453 293.297 139.426 293.297 142.805C293.297 146.281 295.289 148.195 298.824 148.195ZM295.23 142.16C295.396 140.314 296.383 139.27 297.984 139.27C299.547 139.27 300.484 140.305 300.484 142.16H295.23Z" fill="#E2E2E2"/>
<rect x="47" y="118" width="279" height="47" rx="23.5" stroke="white" stroke-opacity="0.62" stroke-width="2"/>
<path d="M74.6934 214.195C78.0137 214.195 79.6348 212.936 79.6348 210.426C79.6348 208.531 78.541 207.428 76.4902 206.461L74.459 205.504C73.5215 205.064 73.0332 204.547 73.0332 203.648C73.0332 202.389 73.8047 201.734 75.1426 201.734C76.2168 201.734 77.1543 202.135 78.3066 203.072L79.6738 201.686C78.3457 200.455 76.998 199.938 75.1328 199.938C72.4668 199.938 70.9434 201.324 70.9434 203.746C70.9434 205.543 71.9785 206.695 73.873 207.555L76.2754 208.648C77.0957 209.02 77.5449 209.605 77.5449 210.465C77.5449 211.764 76.666 212.398 74.8496 212.398C73.5801 212.398 72.252 212.076 70.8262 211.461L70.5723 213.434C71.7441 213.941 73.1113 214.195 74.6934 214.195ZM88.668 214.195C89.6445 214.195 90.4648 214.117 91.3828 213.961L91.1484 212.145C90.2109 212.262 89.5078 212.34 88.8633 212.34C87.0273 212.34 86.2852 211.637 86.2852 209.996V205.348H90.9922V203.648H86.2852V200.523H84.2148V203.648H81.6172V205.348H84.2148V210.094C84.2148 212.965 85.5234 214.195 88.668 214.195ZM100.738 214.098L104.059 214V212.34L102.301 212.125V207.809C102.301 205.074 100.66 203.629 97.2422 203.58L95.1523 203.551L94.957 205.387L97.4375 205.455C99.3516 205.504 100.328 206.119 100.328 207.496V207.975C99.7617 207.857 99.1172 207.809 98.375 207.809C95.3867 207.809 93.6875 209.02 93.6875 211.207C93.6875 213.111 94.9277 214.195 97.0859 214.195C99.0098 214.195 100.289 213.404 100.436 211.812H100.641L100.738 214.098ZM100.328 209.566V210.289C100.328 211.383 99.3516 212.535 97.418 212.535C96.2852 212.535 95.6406 211.979 95.6406 211.012C95.6406 209.996 96.5684 209.469 98.3359 209.469C99.0098 209.469 99.6641 209.469 100.328 209.566ZM112.105 214.195C113.082 214.195 113.902 214.117 114.82 213.961L114.586 212.145C113.648 212.262 112.945 212.34 112.301 212.34C110.465 212.34 109.723 211.637 109.723 209.996V205.348H114.43V203.648H109.723V200.523H107.652V203.648H105.055V205.348H107.652V210.094C107.652 212.965 108.961 214.195 112.105 214.195ZM123.043 214.195C123.824 214.195 124.84 214.156 126.07 213.922L125.816 212.105C124.957 212.281 124.137 212.379 123.277 212.379C121.197 212.379 119.889 211.471 119.527 209.742H126.52C126.559 209.332 126.578 208.902 126.578 208.414C126.578 205.191 124.977 203.453 122.184 203.453C119.215 203.453 117.516 205.426 117.516 208.805C117.516 212.281 119.508 214.195 123.043 214.195ZM119.449 208.16C119.615 206.314 120.602 205.27 122.203 205.27C123.766 205.27 124.703 206.305 124.703 208.16H119.449ZM131.832 214H133.902V207.691H138.141V205.992H133.902V204.43C133.902 202.145 134.82 201.012 136.676 201.012C137.262 201.012 137.848 201.051 138.668 201.148L138.883 199.352C138.16 199.215 137.516 199.156 136.734 199.156C133.453 199.156 131.832 200.934 131.832 204.527V205.992H128.57V207.691H131.832V214ZM144.566 214.195C145.953 214.195 146.949 213.414 147.281 212.008H147.467L147.613 214.098L150.934 214V212.34L149.508 212.125V203.648H147.438V209.215C147.438 211.471 146.656 212.34 145.152 212.34C143.932 212.34 143.219 211.676 143.219 210.484V203.648H141.148V210.484C141.148 212.848 142.389 214.195 144.566 214.195ZM158.648 214.195C159.762 214.195 160.68 214.078 161.734 213.785L161.5 211.969C160.641 212.223 160.016 212.34 159.43 212.34C157.652 212.34 157.32 211.637 157.32 209.996V199.352H152.203V201.051H155.25V210.094C155.25 212.965 156.246 214.195 158.648 214.195ZM164.703 214H173.141V212.145H169.889V201.988H173.141V200.133H164.703V201.988H167.936V212.145H164.703V214ZM182.789 214H184.859V207.262C184.859 204.84 183.609 203.453 181.422 203.453C179.684 203.453 178.805 204.137 178.688 205.523H178.463L178.297 203.648H176.422V214H178.492V208.18C178.492 206.256 179.312 205.309 180.934 205.309C182.105 205.309 182.789 206.012 182.789 207.262V214ZM194.137 214.195C195.113 214.195 195.934 214.117 196.852 213.961L196.617 212.145C195.68 212.262 194.977 212.34 194.332 212.34C192.496 212.34 191.754 211.637 191.754 209.996V205.348H196.461V203.648H191.754V200.523H189.684V203.648H187.086V205.348H189.684V210.094C189.684 212.965 190.992 214.195 194.137 214.195ZM205.074 214.195C205.855 214.195 206.871 214.156 208.102 213.922L207.848 212.105C206.988 212.281 206.168 212.379 205.309 212.379C203.229 212.379 201.92 211.471 201.559 209.742H208.551C208.59 209.332 208.609 208.902 208.609 208.414C208.609 205.191 207.008 203.453 204.215 203.453C201.246 203.453 199.547 205.426 199.547 208.805C199.547 212.281 201.539 214.195 205.074 214.195ZM201.48 208.16C201.646 206.314 202.633 205.27 204.234 205.27C205.797 205.27 206.734 206.305 206.734 208.16H201.48ZM215.094 209.547C215.094 206.773 215.953 205.211 217.711 205.211C218.707 205.211 219.137 205.836 219.137 207.34H221.188C221.188 204.605 220.27 203.453 218.141 203.453C216.344 203.453 215.406 204.391 215.289 206.305H215.055L214.703 203.648H211.109V205.348H213.023V212.301H210.719V214H217.633V212.301H215.094V209.547ZM229.645 214.098L232.965 214V212.34L231.207 212.125V207.809C231.207 205.074 229.566 203.629 226.148 203.58L224.059 203.551L223.863 205.387L226.344 205.455C228.258 205.504 229.234 206.119 229.234 207.496V207.975C228.668 207.857 228.023 207.809 227.281 207.809C224.293 207.809 222.594 209.02 222.594 211.207C222.594 213.111 223.834 214.195 225.992 214.195C227.916 214.195 229.195 213.404 229.342 211.812H229.547L229.645 214.098ZM229.234 209.566V210.289C229.234 211.383 228.258 212.535 226.324 212.535C225.191 212.535 224.547 211.979 224.547 211.012C224.547 209.996 225.475 209.469 227.242 209.469C227.916 209.469 228.57 209.469 229.234 209.566ZM240.035 214.195C241.188 214.195 242.418 214.137 243.551 213.902L243.316 212.086C242.34 212.242 241.305 212.34 240.27 212.34C238.082 212.34 236.852 211.07 236.852 208.707C236.852 206.539 237.965 205.309 239.879 205.309C240.963 205.309 241.91 205.855 242.496 206.803L244.088 205.602C243.473 204.234 241.969 203.453 239.957 203.453C236.588 203.453 234.703 205.426 234.703 208.805C234.703 212.281 236.637 214.195 240.035 214.195ZM252.73 214.195C253.707 214.195 254.527 214.117 255.445 213.961L255.211 212.145C254.273 212.262 253.57 212.34 252.926 212.34C251.09 212.34 250.348 211.637 250.348 209.996V205.348H255.055V203.648H250.348V200.523H248.277V203.648H245.68V205.348H248.277V210.094C248.277 212.965 249.586 214.195 252.73 214.195ZM264.801 214.098L268.121 214V212.34L266.363 212.125V207.809C266.363 205.074 264.723 203.629 261.305 203.58L259.215 203.551L259.02 205.387L261.5 205.455C263.414 205.504 264.391 206.119 264.391 207.496V207.975C263.824 207.857 263.18 207.809 262.438 207.809C259.449 207.809 257.75 209.02 257.75 211.207C257.75 213.111 258.99 214.195 261.148 214.195C263.072 214.195 264.352 213.404 264.498 211.812H264.703L264.801 214.098ZM264.391 209.566V210.289C264.391 211.383 263.414 212.535 261.48 212.535C260.348 212.535 259.703 211.979 259.703 211.012C259.703 209.996 260.631 209.469 262.398 209.469C263.072 209.469 263.727 209.469 264.391 209.566ZM272.945 214.195C276.998 214.195 279.312 211.988 279.312 208.141C279.312 205.152 277.73 203.453 274.977 203.453C273.375 203.453 272.535 204.137 272.438 205.523H272.242V199.352H270.172V214C271.109 214.117 272.008 214.195 272.945 214.195ZM272.242 208.18C272.242 206.188 273.121 205.211 274.879 205.211C276.402 205.211 277.262 206.266 277.262 208.141C277.262 210.875 275.846 212.438 273.355 212.438C272.984 212.438 272.613 212.438 272.242 212.408V208.18ZM287.555 214.195C288.668 214.195 289.586 214.078 290.641 213.785L290.406 211.969C289.547 212.223 288.922 212.34 288.336 212.34C286.559 212.34 286.227 211.637 286.227 209.996V199.352H281.109V201.051H284.156V210.094C284.156 212.965 285.152 214.195 287.555 214.195ZM298.824 214.195C299.605 214.195 300.621 214.156 301.852 213.922L301.598 212.105C300.738 212.281 299.918 212.379 299.059 212.379C296.979 212.379 295.67 211.471 295.309 209.742H302.301C302.34 209.332 302.359 208.902 302.359 208.414C302.359 205.191 300.758 203.453 297.965 203.453C294.996 203.453 293.297 205.426 293.297 208.805C293.297 212.281 295.289 214.195 298.824 214.195ZM295.23 208.16C295.396 206.314 296.383 205.27 297.984 205.27C299.547 205.27 300.484 206.305 300.484 208.16H295.23Z" fill="#E2E2E2"/>
<rect x="47" y="184" width="279" height="47" rx="23.5" stroke="white" stroke-opacity="0.62" stroke-width="2"/>
<path d="M101.879 82H104.125L99.877 75.1348L104.125 68.1328H101.879L98.9004 73.4453L95.9219 68.1328H93.6758L97.9238 75.1348L93.6758 82H95.9219L98.9004 76.7949L101.879 82ZM106.117 82H108.07V76.7266H110.883C110.941 76.7266 110.99 76.7266 111.049 76.7266L113.559 82H115.902L113.041 76.3457C114.564 75.7109 115.395 74.3242 115.395 72.332C115.395 69.6562 113.754 68.1328 110.883 68.1328H106.117V82ZM108.07 74.8711V69.9883H110.883C112.436 69.9883 113.344 70.9062 113.344 72.5273C113.344 74.0117 112.436 74.8711 110.883 74.8711H108.07ZM118.031 82H123.344C126.02 82 127.543 80.6133 127.543 78.1914C127.543 76.0137 125.99 74.7539 123.246 74.7148V74.5977C125.375 74.373 126.566 73.3379 126.566 71.6484C126.566 69.4023 124.965 68.1328 122.152 68.1328H118.031V82ZM119.984 80.1445V75.6035H122.641C124.457 75.6035 125.492 76.4434 125.492 77.8984C125.492 79.3242 124.496 80.1445 122.777 80.1445H119.984ZM119.984 73.748V69.9883H122.055C123.627 69.9883 124.516 70.6523 124.516 71.8438C124.516 73.0645 123.666 73.748 122.191 73.748H119.984ZM136.176 82.0977L139.496 82V80.3398L137.738 80.125V75.8086C137.738 73.0742 136.098 71.6289 132.68 71.5801L130.59 71.5508L130.395 73.3867L132.875 73.4551C134.789 73.5039 135.766 74.1191 135.766 75.4961V75.9746C135.199 75.8574 134.555 75.8086 133.812 75.8086C130.824 75.8086 129.125 77.0195 129.125 79.207C129.125 81.1113 130.365 82.1953 132.523 82.1953C134.447 82.1953 135.727 81.4043 135.873 79.8125H136.078L136.176 82.0977ZM135.766 77.5664V78.2891C135.766 79.3828 134.789 80.5352 132.855 80.5352C131.723 80.5352 131.078 79.9785 131.078 79.0117C131.078 77.9961 132.006 77.4688 133.773 77.4688C134.447 77.4688 135.102 77.4688 135.766 77.5664ZM144.965 82.1953C148.559 82.1953 150.102 81.2383 150.102 79.0117C150.102 77.3516 149.125 76.5898 146.957 76.0625L145.043 75.5938C144.154 75.3789 143.734 75.1836 143.734 74.5781C143.734 73.6797 144.711 73.3086 147.035 73.3086C147.797 73.3086 148.559 73.3477 149.613 73.4453L149.828 71.6484C148.91 71.5117 148.09 71.4531 147.094 71.4531C143.227 71.4531 141.586 72.4102 141.586 74.6758C141.586 76.2383 142.514 76.873 144.555 77.3906L146.938 77.9961C147.621 78.1719 147.953 78.4258 147.953 79.0508C147.953 79.9492 147.055 80.3398 144.965 80.3398C144.027 80.3398 143.031 80.2422 141.664 80.0273L141.43 81.9023C142.348 82.1172 143.402 82.1953 144.965 82.1953ZM158.48 82.1953C159.262 82.1953 160.277 82.1562 161.508 81.9219L161.254 80.1055C160.395 80.2812 159.574 80.3789 158.715 80.3789C156.635 80.3789 155.326 79.4707 154.965 77.7422H161.957C161.996 77.332 162.016 76.9023 162.016 76.4141C162.016 73.1914 160.414 71.4531 157.621 71.4531C154.652 71.4531 152.953 73.4258 152.953 76.8047C152.953 80.2812 154.945 82.1953 158.48 82.1953ZM154.887 76.1602C155.053 74.3145 156.039 73.2695 157.641 73.2695C159.203 73.2695 160.141 74.3047 160.141 76.1602H154.887ZM164.984 82H173.422V80.1445H170.17V69.9883H173.422V68.1328H164.984V69.9883H168.217V80.1445H164.984V82ZM183.07 82H185.141V75.2617C185.141 72.8398 183.891 71.4531 181.703 71.4531C179.965 71.4531 179.086 72.1367 178.969 73.5234H178.744L178.578 71.6484H176.703V82H178.773V76.1797C178.773 74.2559 179.594 73.3086 181.215 73.3086C182.387 73.3086 183.07 74.0117 183.07 75.2617V82ZM194.418 82.1953C195.395 82.1953 196.215 82.1172 197.133 81.9609L196.898 80.1445C195.961 80.2617 195.258 80.3398 194.613 80.3398C192.777 80.3398 192.035 79.6367 192.035 77.9961V73.3477H196.742V71.6484H192.035V68.5234H189.965V71.6484H187.367V73.3477H189.965V78.0938C189.965 80.9648 191.273 82.1953 194.418 82.1953ZM205.355 82.1953C206.137 82.1953 207.152 82.1562 208.383 81.9219L208.129 80.1055C207.27 80.2812 206.449 80.3789 205.59 80.3789C203.51 80.3789 202.201 79.4707 201.84 77.7422H208.832C208.871 77.332 208.891 76.9023 208.891 76.4141C208.891 73.1914 207.289 71.4531 204.496 71.4531C201.527 71.4531 199.828 73.4258 199.828 76.8047C199.828 80.2812 201.82 82.1953 205.355 82.1953ZM201.762 76.1602C201.928 74.3145 202.914 73.2695 204.516 73.2695C206.078 73.2695 207.016 74.3047 207.016 76.1602H201.762ZM215.375 77.5469C215.375 74.7734 216.234 73.2109 217.992 73.2109C218.988 73.2109 219.418 73.8359 219.418 75.3398H221.469C221.469 72.6055 220.551 71.4531 218.422 71.4531C216.625 71.4531 215.688 72.3906 215.57 74.3047H215.336L214.984 71.6484H211.391V73.3477H213.305V80.3008H211V82H217.914V80.3008H215.375V77.5469ZM229.926 82.0977L233.246 82V80.3398L231.488 80.125V75.8086C231.488 73.0742 229.848 71.6289 226.43 71.5801L224.34 71.5508L224.145 73.3867L226.625 73.4551C228.539 73.5039 229.516 74.1191 229.516 75.4961V75.9746C228.949 75.8574 228.305 75.8086 227.562 75.8086C224.574 75.8086 222.875 77.0195 222.875 79.207C222.875 81.1113 224.115 82.1953 226.273 82.1953C228.197 82.1953 229.477 81.4043 229.623 79.8125H229.828L229.926 82.0977ZM229.516 77.5664V78.2891C229.516 79.3828 228.539 80.5352 226.605 80.5352C225.473 80.5352 224.828 79.9785 224.828 79.0117C224.828 77.9961 225.756 77.4688 227.523 77.4688C228.197 77.4688 228.852 77.4688 229.516 77.5664ZM240.316 82.1953C241.469 82.1953 242.699 82.1367 243.832 81.9023L243.598 80.0859C242.621 80.2422 241.586 80.3398 240.551 80.3398C238.363 80.3398 237.133 79.0703 237.133 76.707C237.133 74.5391 238.246 73.3086 240.16 73.3086C241.244 73.3086 242.191 73.8555 242.777 74.8027L244.369 73.6016C243.754 72.2344 242.25 71.4531 240.238 71.4531C236.869 71.4531 234.984 73.4258 234.984 76.8047C234.984 80.2812 236.918 82.1953 240.316 82.1953ZM253.012 82.1953C253.988 82.1953 254.809 82.1172 255.727 81.9609L255.492 80.1445C254.555 80.2617 253.852 80.3398 253.207 80.3398C251.371 80.3398 250.629 79.6367 250.629 77.9961V73.3477H255.336V71.6484H250.629V68.5234H248.559V71.6484H245.961V73.3477H248.559V78.0938C248.559 80.9648 249.867 82.1953 253.012 82.1953ZM265.082 82.0977L268.402 82V80.3398L266.645 80.125V75.8086C266.645 73.0742 265.004 71.6289 261.586 71.5801L259.496 71.5508L259.301 73.3867L261.781 73.4551C263.695 73.5039 264.672 74.1191 264.672 75.4961V75.9746C264.105 75.8574 263.461 75.8086 262.719 75.8086C259.73 75.8086 258.031 77.0195 258.031 79.207C258.031 81.1113 259.271 82.1953 261.43 82.1953C263.354 82.1953 264.633 81.4043 264.779 79.8125H264.984L265.082 82.0977ZM264.672 77.5664V78.2891C264.672 79.3828 263.695 80.5352 261.762 80.5352C260.629 80.5352 259.984 79.9785 259.984 79.0117C259.984 77.9961 260.912 77.4688 262.68 77.4688C263.354 77.4688 264.008 77.4688 264.672 77.5664ZM273.227 82.1953C277.279 82.1953 279.594 79.9883 279.594 76.1406C279.594 73.1523 278.012 71.4531 275.258 71.4531C273.656 71.4531 272.816 72.1367 272.719 73.5234H272.523V67.3516H270.453V82C271.391 82.1172 272.289 82.1953 273.227 82.1953ZM272.523 76.1797C272.523 74.1875 273.402 73.2109 275.16 73.2109C276.684 73.2109 277.543 74.2656 277.543 76.1406C277.543 78.875 276.127 80.4375 273.637 80.4375C273.266 80.4375 272.895 80.4375 272.523 80.4082V76.1797ZM287.836 82.1953C288.949 82.1953 289.867 82.0781 290.922 81.7852L290.688 79.9688C289.828 80.2227 289.203 80.3398 288.617 80.3398C286.84 80.3398 286.508 79.6367 286.508 77.9961V67.3516H281.391V69.0508H284.438V78.0938C284.438 80.9648 285.434 82.1953 287.836 82.1953ZM299.105 82.1953C299.887 82.1953 300.902 82.1562 302.133 81.9219L301.879 80.1055C301.02 80.2812 300.199 80.3789 299.34 80.3789C297.26 80.3789 295.951 79.4707 295.59 77.7422H302.582C302.621 77.332 302.641 76.9023 302.641 76.4141C302.641 73.1914 301.039 71.4531 298.246 71.4531C295.277 71.4531 293.578 73.4258 293.578 76.8047C293.578 80.2812 295.57 82.1953 299.105 82.1953ZM295.512 76.1602C295.678 74.3145 296.664 73.2695 298.266 73.2695C299.828 73.2695 300.766 74.3047 300.766 76.1602H295.512Z" fill="#E2E2E2"/>
<rect x="71" y="52" width="255" height="47" rx="23.5" stroke="white" stroke-opacity="0.62" stroke-width="2" stroke-dasharray="4 5"/>
</g>
<defs>
<clipPath id="clip0_2_2">
<rect width="901" height="282" fill="white"/>
</clipPath>
</defs>
</svg>
