<svg width="901" height="409" viewBox="0 0 901 409" fill="none" xmlns="http://www.w3.org/2000/svg">
<rect width="901" height="409" fill="#171717"/>
<path d="M336.439 173.195C339.76 173.195 341.381 171.936 341.381 169.426C341.381 167.531 340.287 166.428 338.236 165.461L336.205 164.504C335.267 164.064 334.779 163.547 334.779 162.648C334.779 161.389 335.551 160.734 336.889 160.734C337.963 160.734 338.9 161.135 340.053 162.072L341.42 160.686C340.092 159.455 338.744 158.938 336.879 158.938C334.213 158.938 332.689 160.324 332.689 162.746C332.689 164.543 333.724 165.695 335.619 166.555L338.021 167.648C338.842 168.02 339.291 168.605 339.291 169.465C339.291 170.764 338.412 171.398 336.596 171.398C335.326 171.398 333.998 171.076 332.572 170.461L332.318 172.434C333.49 172.941 334.857 173.195 336.439 173.195ZM350.414 173.195C351.391 173.195 352.211 173.117 353.129 172.961L352.894 171.145C351.957 171.262 351.254 171.34 350.609 171.34C348.773 171.34 348.031 170.637 348.031 168.996V164.348H352.738V162.648H348.031V159.523H345.961V162.648H343.363V164.348H345.961V169.094C345.961 171.965 347.269 173.195 350.414 173.195ZM362.484 173.098L365.805 173V171.34L364.047 171.125V166.809C364.047 164.074 362.406 162.629 358.988 162.58L356.898 162.551L356.703 164.387L359.183 164.455C361.098 164.504 362.074 165.119 362.074 166.496V166.975C361.508 166.857 360.863 166.809 360.121 166.809C357.133 166.809 355.433 168.02 355.433 170.207C355.433 172.111 356.674 173.195 358.832 173.195C360.756 173.195 362.035 172.404 362.182 170.812H362.387L362.484 173.098ZM362.074 168.566V169.289C362.074 170.383 361.098 171.535 359.164 171.535C358.031 171.535 357.387 170.979 357.387 170.012C357.387 168.996 358.314 168.469 360.082 168.469C360.756 168.469 361.41 168.469 362.074 168.566ZM373.851 173.195C374.828 173.195 375.648 173.117 376.566 172.961L376.332 171.145C375.394 171.262 374.691 171.34 374.047 171.34C372.211 171.34 371.469 170.637 371.469 168.996V164.348H376.176V162.648H371.469V159.523H369.398V162.648H366.801V164.348H369.398V169.094C369.398 171.965 370.707 173.195 373.851 173.195ZM384.789 173.195C385.57 173.195 386.586 173.156 387.816 172.922L387.562 171.105C386.703 171.281 385.883 171.379 385.023 171.379C382.943 171.379 381.635 170.471 381.273 168.742H388.266C388.305 168.332 388.324 167.902 388.324 167.414C388.324 164.191 386.723 162.453 383.93 162.453C380.961 162.453 379.262 164.426 379.262 167.805C379.262 171.281 381.254 173.195 384.789 173.195ZM381.195 167.16C381.361 165.314 382.348 164.27 383.949 164.27C385.512 164.27 386.449 165.305 386.449 167.16H381.195ZM393.578 173H395.648V166.691H399.887V164.992H395.648V163.43C395.648 161.145 396.566 160.012 398.422 160.012C399.008 160.012 399.594 160.051 400.414 160.148L400.629 158.352C399.906 158.215 399.262 158.156 398.48 158.156C395.199 158.156 393.578 159.934 393.578 163.527V164.992H390.316V166.691H393.578V173ZM406.312 173.195C407.699 173.195 408.695 172.414 409.027 171.008H409.213L409.359 173.098L412.68 173V171.34L411.254 171.125V162.648H409.183V168.215C409.183 170.471 408.402 171.34 406.898 171.34C405.678 171.34 404.965 170.676 404.965 169.484V162.648H402.894V169.484C402.894 171.848 404.135 173.195 406.312 173.195ZM420.394 173.195C421.508 173.195 422.426 173.078 423.48 172.785L423.246 170.969C422.387 171.223 421.762 171.34 421.176 171.34C419.398 171.34 419.066 170.637 419.066 168.996V158.352H413.949V160.051H416.996V169.094C416.996 171.965 417.992 173.195 420.394 173.195ZM426.449 173H434.887V171.145H431.635V160.988H434.887V159.133H426.449V160.988H429.682V171.145H426.449V173ZM444.535 173H446.605V166.262C446.605 163.84 445.355 162.453 443.168 162.453C441.43 162.453 440.551 163.137 440.433 164.523H440.209L440.043 162.648H438.168V173H440.238V167.18C440.238 165.256 441.058 164.309 442.68 164.309C443.851 164.309 444.535 165.012 444.535 166.262V173ZM455.883 173.195C456.859 173.195 457.68 173.117 458.598 172.961L458.363 171.145C457.426 171.262 456.723 171.34 456.078 171.34C454.242 171.34 453.5 170.637 453.5 168.996V164.348H458.207V162.648H453.5V159.523H451.43V162.648H448.832V164.348H451.43V169.094C451.43 171.965 452.738 173.195 455.883 173.195ZM466.82 173.195C467.601 173.195 468.617 173.156 469.848 172.922L469.594 171.105C468.734 171.281 467.914 171.379 467.055 171.379C464.974 171.379 463.666 170.471 463.305 168.742H470.297C470.336 168.332 470.355 167.902 470.355 167.414C470.355 164.191 468.754 162.453 465.961 162.453C462.992 162.453 461.293 164.426 461.293 167.805C461.293 171.281 463.285 173.195 466.82 173.195ZM463.226 167.16C463.392 165.314 464.379 164.27 465.98 164.27C467.543 164.27 468.48 165.305 468.48 167.16H463.226ZM476.84 168.547C476.84 165.773 477.699 164.211 479.457 164.211C480.453 164.211 480.883 164.836 480.883 166.34H482.933C482.933 163.605 482.016 162.453 479.887 162.453C478.09 162.453 477.152 163.391 477.035 165.305H476.801L476.449 162.648H472.855V164.348H474.769V171.301H472.465V173H479.379V171.301H476.84V168.547ZM491.391 173.098L494.711 173V171.34L492.953 171.125V166.809C492.953 164.074 491.312 162.629 487.894 162.58L485.805 162.551L485.609 164.387L488.09 164.455C490.004 164.504 490.98 165.119 490.98 166.496V166.975C490.414 166.857 489.769 166.809 489.027 166.809C486.039 166.809 484.34 168.02 484.34 170.207C484.34 172.111 485.58 173.195 487.738 173.195C489.662 173.195 490.941 172.404 491.088 170.812H491.293L491.391 173.098ZM490.98 168.566V169.289C490.98 170.383 490.004 171.535 488.07 171.535C486.937 171.535 486.293 170.979 486.293 170.012C486.293 168.996 487.221 168.469 488.988 168.469C489.662 168.469 490.316 168.469 490.98 168.566ZM501.781 173.195C502.933 173.195 504.164 173.137 505.297 172.902L505.062 171.086C504.086 171.242 503.051 171.34 502.016 171.34C499.828 171.34 498.598 170.07 498.598 167.707C498.598 165.539 499.711 164.309 501.625 164.309C502.709 164.309 503.656 164.855 504.242 165.803L505.834 164.602C505.219 163.234 503.715 162.453 501.703 162.453C498.334 162.453 496.449 164.426 496.449 167.805C496.449 171.281 498.383 173.195 501.781 173.195ZM514.476 173.195C515.453 173.195 516.273 173.117 517.191 172.961L516.957 171.145C516.019 171.262 515.316 171.34 514.672 171.34C512.836 171.34 512.094 170.637 512.094 168.996V164.348H516.801V162.648H512.094V159.523H510.023V162.648H507.426V164.348H510.023V169.094C510.023 171.965 511.332 173.195 514.476 173.195ZM526.547 173.098L529.867 173V171.34L528.109 171.125V166.809C528.109 164.074 526.469 162.629 523.051 162.58L520.961 162.551L520.766 164.387L523.246 164.455C525.16 164.504 526.137 165.119 526.137 166.496V166.975C525.57 166.857 524.926 166.809 524.183 166.809C521.195 166.809 519.496 168.02 519.496 170.207C519.496 172.111 520.736 173.195 522.894 173.195C524.818 173.195 526.098 172.404 526.244 170.812H526.449L526.547 173.098ZM526.137 168.566V169.289C526.137 170.383 525.16 171.535 523.226 171.535C522.094 171.535 521.449 170.979 521.449 170.012C521.449 168.996 522.377 168.469 524.144 168.469C524.818 168.469 525.473 168.469 526.137 168.566ZM534.691 173.195C538.744 173.195 541.058 170.988 541.058 167.141C541.058 164.152 539.476 162.453 536.723 162.453C535.121 162.453 534.281 163.137 534.183 164.523H533.988V158.352H531.918V173C532.855 173.117 533.754 173.195 534.691 173.195ZM533.988 167.18C533.988 165.188 534.867 164.211 536.625 164.211C538.148 164.211 539.008 165.266 539.008 167.141C539.008 169.875 537.592 171.438 535.101 171.438C534.73 171.438 534.359 171.438 533.988 171.408V167.18ZM549.301 173.195C550.414 173.195 551.332 173.078 552.387 172.785L552.152 170.969C551.293 171.223 550.668 171.34 550.082 171.34C548.305 171.34 547.973 170.637 547.973 168.996V158.352H542.855V160.051H545.902V169.094C545.902 171.965 546.898 173.195 549.301 173.195ZM560.57 173.195C561.351 173.195 562.367 173.156 563.598 172.922L563.344 171.105C562.484 171.281 561.664 171.379 560.805 171.379C558.724 171.379 557.416 170.471 557.055 168.742H564.047C564.086 168.332 564.105 167.902 564.105 167.414C564.105 164.191 562.504 162.453 559.711 162.453C556.742 162.453 555.043 164.426 555.043 167.805C555.043 171.281 557.035 173.195 560.57 173.195ZM556.976 167.16C557.142 165.314 558.129 164.27 559.73 164.27C561.293 164.27 562.23 165.305 562.23 167.16H556.976Z" fill="#E2E2E2"/>
<rect x="308.746" y="143" width="279" height="47" rx="23.5" stroke="white" stroke-opacity="0.62" stroke-width="2"/>
<path d="M362.418 285H364.371V280.703H366.5C369.869 280.703 371.793 278.965 371.793 275.918C371.793 272.881 369.869 271.133 366.5 271.133H362.418V285ZM364.371 278.848V272.988H366.5C368.56 272.988 369.742 274.053 369.742 275.918C369.742 277.773 368.56 278.848 366.5 278.848H364.371ZM377.73 280.547C377.73 277.773 378.59 276.211 380.348 276.211C381.344 276.211 381.773 276.836 381.773 278.34H383.824C383.824 275.605 382.906 274.453 380.777 274.453C378.98 274.453 378.043 275.391 377.926 277.305H377.691L377.34 274.648H373.746V276.348H375.66V283.301H373.355V285H380.269V283.301H377.73V280.547ZM391.148 285.195C391.93 285.195 392.945 285.156 394.176 284.922L393.922 283.105C393.062 283.281 392.242 283.379 391.383 283.379C389.303 283.379 387.994 282.471 387.633 280.742H394.625C394.664 280.332 394.683 279.902 394.683 279.414C394.683 276.191 393.082 274.453 390.289 274.453C387.32 274.453 385.621 276.426 385.621 279.805C385.621 283.281 387.613 285.195 391.148 285.195ZM387.555 279.16C387.721 277.314 388.707 276.27 390.308 276.27C391.871 276.27 392.808 277.305 392.808 279.16H387.555ZM401.07 285.195C404.664 285.195 406.207 284.238 406.207 282.012C406.207 280.352 405.23 279.59 403.062 279.062L401.148 278.594C400.26 278.379 399.84 278.184 399.84 277.578C399.84 276.68 400.816 276.309 403.141 276.309C403.902 276.309 404.664 276.348 405.719 276.445L405.933 274.648C405.016 274.512 404.195 274.453 403.199 274.453C399.332 274.453 397.691 275.41 397.691 277.676C397.691 279.238 398.619 279.873 400.66 280.391L403.043 280.996C403.726 281.172 404.058 281.426 404.058 282.051C404.058 282.949 403.16 283.34 401.07 283.34C400.133 283.34 399.137 283.242 397.769 283.027L397.535 284.902C398.453 285.117 399.508 285.195 401.07 285.195ZM412.789 285.195C416.383 285.195 417.926 284.238 417.926 282.012C417.926 280.352 416.949 279.59 414.781 279.062L412.867 278.594C411.978 278.379 411.558 278.184 411.558 277.578C411.558 276.68 412.535 276.309 414.859 276.309C415.621 276.309 416.383 276.348 417.437 276.445L417.652 274.648C416.734 274.512 415.914 274.453 414.918 274.453C411.051 274.453 409.41 275.41 409.41 277.676C409.41 279.238 410.338 279.873 412.379 280.391L414.762 280.996C415.445 281.172 415.777 281.426 415.777 282.051C415.777 282.949 414.879 283.34 412.789 283.34C411.851 283.34 410.855 283.242 409.488 283.027L409.254 284.902C410.172 285.117 411.226 285.195 412.789 285.195ZM427.437 285.098L430.758 285V283.34L429 283.125V278.809C429 276.074 427.359 274.629 423.941 274.58L421.851 274.551L421.656 276.387L424.137 276.455C426.051 276.504 427.027 277.119 427.027 278.496V278.975C426.461 278.857 425.816 278.809 425.074 278.809C422.086 278.809 420.387 280.02 420.387 282.207C420.387 284.111 421.627 285.195 423.785 285.195C425.709 285.195 426.988 284.404 427.135 282.812H427.34L427.437 285.098ZM427.027 280.566V281.289C427.027 282.383 426.051 283.535 424.117 283.535C422.984 283.535 422.34 282.979 422.34 282.012C422.34 280.996 423.267 280.469 425.035 280.469C425.709 280.469 426.363 280.469 427.027 280.566ZM435.582 285.195C439.635 285.195 441.949 282.988 441.949 279.141C441.949 276.152 440.367 274.453 437.613 274.453C436.012 274.453 435.172 275.137 435.074 276.523H434.879V270.352H432.808V285C433.746 285.117 434.644 285.195 435.582 285.195ZM434.879 279.18C434.879 277.188 435.758 276.211 437.516 276.211C439.039 276.211 439.898 277.266 439.898 279.141C439.898 281.875 438.482 283.438 435.992 283.438C435.621 283.438 435.25 283.438 434.879 283.408V279.18ZM450.191 285.195C451.305 285.195 452.223 285.078 453.277 284.785L453.043 282.969C452.183 283.223 451.558 283.34 450.973 283.34C449.195 283.34 448.863 282.637 448.863 280.996V270.352H443.746V272.051H446.793V281.094C446.793 283.965 447.789 285.195 450.191 285.195ZM461.461 285.195C462.242 285.195 463.258 285.156 464.488 284.922L464.234 283.105C463.375 283.281 462.555 283.379 461.695 283.379C459.615 283.379 458.307 282.471 457.945 280.742H464.937C464.976 280.332 464.996 279.902 464.996 279.414C464.996 276.191 463.394 274.453 460.601 274.453C457.633 274.453 455.933 276.426 455.933 279.805C455.933 283.281 457.926 285.195 461.461 285.195ZM457.867 279.16C458.033 277.314 459.019 276.27 460.621 276.27C462.183 276.27 463.121 277.305 463.121 279.16H457.867ZM467.887 285H473.199C475.875 285 477.398 283.613 477.398 281.191C477.398 279.014 475.846 277.754 473.101 277.715V277.598C475.23 277.373 476.422 276.338 476.422 274.648C476.422 272.402 474.82 271.133 472.008 271.133H467.887V285ZM469.84 283.145V278.604H472.496C474.312 278.604 475.348 279.443 475.348 280.898C475.348 282.324 474.351 283.145 472.633 283.145H469.84ZM469.84 276.748V272.988H471.91C473.482 272.988 474.371 273.652 474.371 274.844C474.371 276.064 473.521 276.748 472.047 276.748H469.84ZM482.984 285.195C484.371 285.195 485.367 284.414 485.699 283.008H485.885L486.031 285.098L489.351 285V283.34L487.926 283.125V274.648H485.855V280.215C485.855 282.471 485.074 283.34 483.57 283.34C482.349 283.34 481.637 282.676 481.637 281.484V274.648H479.566V281.484C479.566 283.848 480.807 285.195 482.984 285.195ZM497.398 285.195C498.375 285.195 499.195 285.117 500.113 284.961L499.879 283.145C498.941 283.262 498.238 283.34 497.594 283.34C495.758 283.34 495.016 282.637 495.016 280.996V276.348H499.723V274.648H495.016V271.523H492.945V274.648H490.348V276.348H492.945V281.094C492.945 283.965 494.254 285.195 497.398 285.195ZM509.117 285.195C510.094 285.195 510.914 285.117 511.832 284.961L511.598 283.145C510.66 283.262 509.957 283.34 509.312 283.34C507.476 283.34 506.734 282.637 506.734 280.996V276.348H511.441V274.648H506.734V271.523H504.664V274.648H502.066V276.348H504.664V281.094C504.664 283.965 505.973 285.195 509.117 285.195ZM519.058 285.195C521.93 285.195 523.59 283.242 523.59 279.824C523.59 276.406 521.93 274.453 519.058 274.453C516.187 274.453 514.527 276.406 514.527 279.824C514.527 283.242 516.187 285.195 519.058 285.195ZM519.058 283.34C517.535 283.34 516.676 282.07 516.676 279.824C516.676 277.578 517.535 276.309 519.058 276.309C520.582 276.309 521.441 277.578 521.441 279.824C521.441 282.07 520.582 283.34 519.058 283.34ZM532.926 285H534.996V278.262C534.996 275.84 533.746 274.453 531.558 274.453C529.82 274.453 528.941 275.137 528.824 276.523H528.599L528.433 274.648H526.558V285H528.629V279.18C528.629 277.256 529.449 276.309 531.07 276.309C532.242 276.309 532.926 277.012 532.926 278.262V285Z" fill="#E2E2E2"/>
<rect x="338.746" y="255" width="220" height="47" rx="23.5" stroke="white" stroke-opacity="0.62" stroke-width="2"/>
<path d="M332.387 59H340.824V57.1445H337.572V46.9883H340.824V45.1328H332.387V46.9883H335.619V57.1445H332.387V59ZM346.81 59H349.838L353.744 45.1328H351.654L348.412 57.3398H348.236L344.994 45.1328H342.904L346.81 59ZM362.172 59.0977L365.492 59V57.3398L363.734 57.125V52.8086C363.734 50.0742 362.094 48.6289 358.676 48.5801L356.586 48.5508L356.391 50.3867L358.871 50.4551C360.785 50.5039 361.762 51.1191 361.762 52.4961V52.9746C361.195 52.8574 360.551 52.8086 359.808 52.8086C356.82 52.8086 355.121 54.0195 355.121 56.207C355.121 58.1113 356.361 59.1953 358.519 59.1953C360.443 59.1953 361.723 58.4043 361.869 56.8125H362.074L362.172 59.0977ZM361.762 54.5664V55.2891C361.762 56.3828 360.785 57.5352 358.851 57.5352C357.719 57.5352 357.074 56.9785 357.074 56.0117C357.074 54.9961 358.002 54.4688 359.769 54.4688C360.443 54.4688 361.098 54.4688 361.762 54.5664ZM371.058 54.5469C371.058 51.7734 371.918 50.2109 373.676 50.2109C374.672 50.2109 375.101 50.8359 375.101 52.3398H377.152C377.152 49.6055 376.234 48.4531 374.105 48.4531C372.308 48.4531 371.371 49.3906 371.254 51.3047H371.019L370.668 48.6484H367.074V50.3477H368.988V57.3008H366.683V59H373.598V57.3008H371.058V54.5469ZM379.183 59H388.383V57.3008H385.199V48.6484H379.769V50.3672H383.129V57.3008H379.183V59ZM384.047 47.0078C384.848 47.0078 385.492 46.3633 385.492 45.5625C385.492 44.7617 384.848 44.1172 384.047 44.1172C383.246 44.1172 382.601 44.7617 382.601 45.5625C382.601 46.3633 383.246 47.0078 384.047 47.0078ZM397.328 59.0977L400.648 59V57.3398L398.891 57.125V52.8086C398.891 50.0742 397.25 48.6289 393.832 48.5801L391.742 48.5508L391.547 50.3867L394.027 50.4551C395.941 50.5039 396.918 51.1191 396.918 52.4961V52.9746C396.351 52.8574 395.707 52.8086 394.965 52.8086C391.976 52.8086 390.277 54.0195 390.277 56.207C390.277 58.1113 391.517 59.1953 393.676 59.1953C395.599 59.1953 396.879 58.4043 397.025 56.8125H397.23L397.328 59.0977ZM396.918 54.5664V55.2891C396.918 56.3828 395.941 57.5352 394.008 57.5352C392.875 57.5352 392.23 56.9785 392.23 56.0117C392.23 54.9961 393.158 54.4688 394.926 54.4688C395.599 54.4688 396.254 54.4688 396.918 54.5664ZM405.473 59.1953C409.525 59.1953 411.84 56.9883 411.84 53.1406C411.84 50.1523 410.258 48.4531 407.504 48.4531C405.902 48.4531 405.062 49.1367 404.965 50.5234H404.769V44.3516H402.699V59C403.637 59.1172 404.535 59.1953 405.473 59.1953ZM404.769 53.1797C404.769 51.1875 405.648 50.2109 407.406 50.2109C408.93 50.2109 409.789 51.2656 409.789 53.1406C409.789 55.875 408.373 57.4375 405.883 57.4375C405.512 57.4375 405.141 57.4375 404.769 57.4082V53.1797ZM420.082 59.1953C421.195 59.1953 422.113 59.0781 423.168 58.7852L422.933 56.9688C422.074 57.2227 421.449 57.3398 420.863 57.3398C419.086 57.3398 418.754 56.6367 418.754 54.9961V44.3516H413.637V46.0508H416.683V55.0938C416.683 57.9648 417.68 59.1953 420.082 59.1953ZM431.351 59.1953C432.133 59.1953 433.148 59.1562 434.379 58.9219L434.125 57.1055C433.266 57.2812 432.445 57.3789 431.586 57.3789C429.506 57.3789 428.197 56.4707 427.836 54.7422H434.828C434.867 54.332 434.887 53.9023 434.887 53.4141C434.887 50.1914 433.285 48.4531 430.492 48.4531C427.523 48.4531 425.824 50.4258 425.824 53.8047C425.824 57.2812 427.816 59.1953 431.351 59.1953ZM427.758 53.1602C427.924 51.3145 428.91 50.2695 430.512 50.2695C432.074 50.2695 433.012 51.3047 433.012 53.1602H427.758ZM441.596 59.1953C444.916 59.1953 446.537 57.9355 446.537 55.4258C446.537 53.5312 445.443 52.4277 443.392 51.4609L441.361 50.5039C440.424 50.0645 439.935 49.5469 439.935 48.6484C439.935 47.3887 440.707 46.7344 442.045 46.7344C443.119 46.7344 444.057 47.1348 445.209 48.0723L446.576 46.6855C445.248 45.4551 443.9 44.9375 442.035 44.9375C439.369 44.9375 437.846 46.3242 437.846 48.7461C437.846 50.543 438.881 51.6953 440.775 52.5547L443.178 53.6484C443.998 54.0195 444.447 54.6055 444.447 55.4648C444.447 56.7637 443.568 57.3984 441.752 57.3984C440.482 57.3984 439.154 57.0762 437.728 56.4609L437.474 58.4336C438.646 58.9414 440.014 59.1953 441.596 59.1953ZM454.789 59.1953C455.57 59.1953 456.586 59.1562 457.816 58.9219L457.562 57.1055C456.703 57.2812 455.883 57.3789 455.023 57.3789C452.943 57.3789 451.635 56.4707 451.273 54.7422H458.266C458.305 54.332 458.324 53.9023 458.324 53.4141C458.324 50.1914 456.723 48.4531 453.93 48.4531C450.961 48.4531 449.262 50.4258 449.262 53.8047C449.262 57.2812 451.254 59.1953 454.789 59.1953ZM451.195 53.1602C451.361 51.3145 452.348 50.2695 453.949 50.2695C455.512 50.2695 456.449 51.3047 456.449 53.1602H451.195ZM466.957 59.1953C468.07 59.1953 468.988 59.0781 470.043 58.7852L469.808 56.9688C468.949 57.2227 468.324 57.3398 467.738 57.3398C465.961 57.3398 465.629 56.6367 465.629 54.9961V44.3516H460.512V46.0508H463.558V55.0938C463.558 57.9648 464.555 59.1953 466.957 59.1953ZM478.226 59.1953C479.008 59.1953 480.023 59.1562 481.254 58.9219L481 57.1055C480.141 57.2812 479.32 57.3789 478.461 57.3789C476.381 57.3789 475.072 56.4707 474.711 54.7422H481.703C481.742 54.332 481.762 53.9023 481.762 53.4141C481.762 50.1914 480.16 48.4531 477.367 48.4531C474.398 48.4531 472.699 50.4258 472.699 53.8047C472.699 57.2812 474.691 59.1953 478.226 59.1953ZM474.633 53.1602C474.799 51.3145 475.785 50.2695 477.387 50.2695C478.949 50.2695 479.887 51.3047 479.887 53.1602H474.633ZM489.75 59.1953C490.902 59.1953 492.133 59.1367 493.266 58.9023L493.031 57.0859C492.055 57.2422 491.019 57.3398 489.984 57.3398C487.797 57.3398 486.566 56.0703 486.566 53.707C486.566 51.5391 487.68 50.3086 489.594 50.3086C490.678 50.3086 491.625 50.8555 492.211 51.8027L493.803 50.6016C493.187 49.2344 491.683 48.4531 489.672 48.4531C486.303 48.4531 484.418 50.4258 484.418 53.8047C484.418 57.2812 486.351 59.1953 489.75 59.1953ZM502.445 59.1953C503.422 59.1953 504.242 59.1172 505.16 58.9609L504.926 57.1445C503.988 57.2617 503.285 57.3398 502.641 57.3398C500.805 57.3398 500.062 56.6367 500.062 54.9961V50.3477H504.769V48.6484H500.062V45.5234H497.992V48.6484H495.394V50.3477H497.992V55.0938C497.992 57.9648 499.301 59.1953 502.445 59.1953ZM508.168 59H516.605V57.1445H513.353V46.9883H516.605V45.1328H508.168V46.9883H511.4V57.1445H508.168V59ZM526.254 59H528.324V52.2617C528.324 49.8398 527.074 48.4531 524.887 48.4531C523.148 48.4531 522.269 49.1367 522.152 50.5234H521.928L521.762 48.6484H519.887V59H521.957V53.1797C521.957 51.2559 522.777 50.3086 524.398 50.3086C525.57 50.3086 526.254 51.0117 526.254 52.2617V59ZM537.601 59.1953C538.578 59.1953 539.398 59.1172 540.316 58.9609L540.082 57.1445C539.144 57.2617 538.441 57.3398 537.797 57.3398C535.961 57.3398 535.219 56.6367 535.219 54.9961V50.3477H539.926V48.6484H535.219V45.5234H533.148V48.6484H530.551V50.3477H533.148V55.0938C533.148 57.9648 534.457 59.1953 537.601 59.1953ZM548.539 59.1953C549.32 59.1953 550.336 59.1562 551.566 58.9219L551.312 57.1055C550.453 57.2812 549.633 57.3789 548.773 57.3789C546.693 57.3789 545.385 56.4707 545.023 54.7422H552.016C552.055 54.332 552.074 53.9023 552.074 53.4141C552.074 50.1914 550.473 48.4531 547.68 48.4531C544.711 48.4531 543.012 50.4258 543.012 53.8047C543.012 57.2812 545.004 59.1953 548.539 59.1953ZM544.945 53.1602C545.111 51.3145 546.098 50.2695 547.699 50.2695C549.262 50.2695 550.199 51.3047 550.199 53.1602H544.945ZM558.558 54.5469C558.558 51.7734 559.418 50.2109 561.176 50.2109C562.172 50.2109 562.601 50.8359 562.601 52.3398H564.652C564.652 49.6055 563.734 48.4531 561.605 48.4531C559.808 48.4531 558.871 49.3906 558.754 51.3047H558.519L558.168 48.6484H554.574V50.3477H556.488V57.3008H554.183V59H561.098V57.3008H558.558V54.5469ZM573.109 59.0977L576.43 59V57.3398L574.672 57.125V52.8086C574.672 50.0742 573.031 48.6289 569.613 48.5801L567.523 48.5508L567.328 50.3867L569.808 50.4551C571.723 50.5039 572.699 51.1191 572.699 52.4961V52.9746C572.133 52.8574 571.488 52.8086 570.746 52.8086C567.758 52.8086 566.058 54.0195 566.058 56.207C566.058 58.1113 567.299 59.1953 569.457 59.1953C571.381 59.1953 572.66 58.4043 572.807 56.8125H573.012L573.109 59.0977ZM572.699 54.5664V55.2891C572.699 56.3828 571.723 57.5352 569.789 57.5352C568.656 57.5352 568.012 56.9785 568.012 56.0117C568.012 54.9961 568.939 54.4688 570.707 54.4688C571.381 54.4688 572.035 54.4688 572.699 54.5664ZM583.5 59.1953C584.652 59.1953 585.883 59.1367 587.016 58.9023L586.781 57.0859C585.805 57.2422 584.769 57.3398 583.734 57.3398C581.547 57.3398 580.316 56.0703 580.316 53.707C580.316 51.5391 581.43 50.3086 583.344 50.3086C584.428 50.3086 585.375 50.8555 585.961 51.8027L587.553 50.6016C586.937 49.2344 585.433 48.4531 583.422 48.4531C580.053 48.4531 578.168 50.4258 578.168 53.8047C578.168 57.2812 580.101 59.1953 583.5 59.1953ZM596.195 59.1953C597.172 59.1953 597.992 59.1172 598.91 58.9609L598.676 57.1445C597.738 57.2617 597.035 57.3398 596.391 57.3398C594.555 57.3398 593.812 56.6367 593.812 54.9961V50.3477H598.519V48.6484H593.812V45.5234H591.742V48.6484H589.144V50.3477H591.742V55.0938C591.742 57.9648 593.051 59.1953 596.195 59.1953ZM606.137 59.1953C609.008 59.1953 610.668 57.2422 610.668 53.8242C610.668 50.4062 609.008 48.4531 606.137 48.4531C603.266 48.4531 601.605 50.4062 601.605 53.8242C601.605 57.2422 603.266 59.1953 606.137 59.1953ZM606.137 57.3398C604.613 57.3398 603.754 56.0703 603.754 53.8242C603.754 51.5781 604.613 50.3086 606.137 50.3086C607.66 50.3086 608.519 51.5781 608.519 53.8242C608.519 56.0703 607.66 57.3398 606.137 57.3398ZM617.152 54.5469C617.152 51.7734 618.012 50.2109 619.769 50.2109C620.766 50.2109 621.195 50.8359 621.195 52.3398H623.246C623.246 49.6055 622.328 48.4531 620.199 48.4531C618.402 48.4531 617.465 49.3906 617.348 51.3047H617.113L616.762 48.6484H613.168V50.3477H615.082V57.3008H612.777V59H619.691V57.3008H617.152V54.5469Z" fill="#E2E2E2" fill-opacity="0.67"/>
<path d="M373.25 99H371.248L368.025 93.6387C367.973 93.554 367.921 93.4564 367.869 93.3457C367.817 93.2285 367.762 93.0951 367.703 92.9453H367.664C367.631 93.0234 367.586 93.1211 367.527 93.2383C367.475 93.349 367.41 93.4824 367.332 93.6387L364.012 99H362L366.687 91.959L362.371 84.9961H364.383L367.244 89.918C367.335 90.0807 367.423 90.2435 367.508 90.4062C367.592 90.569 367.67 90.7318 367.742 90.8945H367.781C367.885 90.6797 367.983 90.4876 368.074 90.3184C368.165 90.1491 368.25 90.0026 368.328 89.8789L371.307 84.9961H373.191L368.787 91.9395L373.25 99ZM385.301 99H383.348L380.945 95.0254C380.496 94.2832 380.112 93.8079 379.793 93.5996C379.474 93.3848 379.086 93.2773 378.631 93.2773H377.019V99H375.379V84.9961H379.558C380.776 84.9961 381.788 85.3184 382.596 85.9629C383.409 86.6074 383.816 87.5579 383.816 88.8145C383.816 89.804 383.559 90.6341 383.045 91.3047C382.53 91.9753 381.824 92.4603 380.926 92.7598V92.7988C381.219 92.9746 381.476 93.1667 381.697 93.375C381.918 93.5833 382.153 93.8893 382.4 94.293L385.301 99ZM377.019 86.4805V91.793H379.246C380.06 91.793 380.737 91.5293 381.277 91.002C381.824 90.4746 382.098 89.791 382.098 88.9512C382.098 88.2025 381.853 87.6035 381.365 87.1543C380.883 86.7051 380.183 86.4805 379.266 86.4805H377.019ZM388.992 99H387.351V84.9961H388.992V99ZM397.898 99H407.098V97.3008H403.914V88.6484H398.484V90.3672H401.844V97.3008H397.898V99ZM402.762 87.0078C403.562 87.0078 404.207 86.3633 404.207 85.5625C404.207 84.7617 403.562 84.1172 402.762 84.1172C401.961 84.1172 401.316 84.7617 401.316 85.5625C401.316 86.3633 401.961 87.0078 402.762 87.0078ZM413.113 99.1953C416.707 99.1953 418.25 98.2383 418.25 96.0117C418.25 94.3516 417.273 93.5898 415.105 93.0625L413.191 92.5938C412.303 92.3789 411.883 92.1836 411.883 91.5781C411.883 90.6797 412.859 90.3086 415.183 90.3086C415.945 90.3086 416.707 90.3477 417.762 90.4453L417.976 88.6484C417.058 88.5117 416.238 88.4531 415.242 88.4531C411.375 88.4531 409.734 89.4102 409.734 91.6758C409.734 93.2383 410.662 93.873 412.703 94.3906L415.086 94.9961C415.769 95.1719 416.101 95.4258 416.101 96.0508C416.101 96.9492 415.203 97.3398 413.113 97.3398C412.176 97.3398 411.18 97.2422 409.812 97.0273L409.578 98.9023C410.496 99.1172 411.551 99.1953 413.113 99.1953ZM425.154 99.1953C428.474 99.1953 430.096 97.9355 430.096 95.4258C430.096 93.5312 429.002 92.4277 426.951 91.4609L424.92 90.5039C423.982 90.0645 423.494 89.5469 423.494 88.6484C423.494 87.3887 424.266 86.7344 425.603 86.7344C426.678 86.7344 427.615 87.1348 428.767 88.0723L430.135 86.6855C428.807 85.4551 427.459 84.9375 425.594 84.9375C422.928 84.9375 421.404 86.3242 421.404 88.7461C421.404 90.543 422.439 91.6953 424.334 92.5547L426.736 93.6484C427.557 94.0195 428.006 94.6055 428.006 95.4648C428.006 96.7637 427.127 97.3984 425.31 97.3984C424.041 97.3984 422.713 97.0762 421.287 96.4609L421.033 98.4336C422.205 98.9414 423.572 99.1953 425.154 99.1953ZM438.348 99.1953C439.129 99.1953 440.144 99.1562 441.375 98.9219L441.121 97.1055C440.262 97.2812 439.441 97.3789 438.582 97.3789C436.502 97.3789 435.193 96.4707 434.832 94.7422H441.824C441.863 94.332 441.883 93.9023 441.883 93.4141C441.883 90.1914 440.281 88.4531 437.488 88.4531C434.519 88.4531 432.82 90.4258 432.82 93.8047C432.82 97.2812 434.812 99.1953 438.348 99.1953ZM434.754 93.1602C434.92 91.3145 435.906 90.2695 437.508 90.2695C439.07 90.2695 440.008 91.3047 440.008 93.1602H434.754ZM450.516 99.1953C451.629 99.1953 452.547 99.0781 453.601 98.7852L453.367 96.9688C452.508 97.2227 451.883 97.3398 451.297 97.3398C449.519 97.3398 449.187 96.6367 449.187 94.9961V84.3516H444.07V86.0508H447.117V95.0938C447.117 97.9648 448.113 99.1953 450.516 99.1953ZM461.785 99.1953C462.566 99.1953 463.582 99.1562 464.812 98.9219L464.558 97.1055C463.699 97.2812 462.879 97.3789 462.019 97.3789C459.939 97.3789 458.631 96.4707 458.269 94.7422H465.262C465.301 94.332 465.32 93.9023 465.32 93.4141C465.32 90.1914 463.719 88.4531 460.926 88.4531C457.957 88.4531 456.258 90.4258 456.258 93.8047C456.258 97.2812 458.25 99.1953 461.785 99.1953ZM458.191 93.1602C458.357 91.3145 459.344 90.2695 460.945 90.2695C462.508 90.2695 463.445 91.3047 463.445 93.1602H458.191ZM473.308 99.1953C474.461 99.1953 475.691 99.1367 476.824 98.9023L476.59 97.0859C475.613 97.2422 474.578 97.3398 473.543 97.3398C471.355 97.3398 470.125 96.0703 470.125 93.707C470.125 91.5391 471.238 90.3086 473.152 90.3086C474.236 90.3086 475.183 90.8555 475.769 91.8027L477.361 90.6016C476.746 89.2344 475.242 88.4531 473.23 88.4531C469.861 88.4531 467.976 90.4258 467.976 93.8047C467.976 97.2812 469.91 99.1953 473.308 99.1953ZM486.004 99.1953C486.98 99.1953 487.801 99.1172 488.719 98.9609L488.484 97.1445C487.547 97.2617 486.844 97.3398 486.199 97.3398C484.363 97.3398 483.621 96.6367 483.621 94.9961V90.3477H488.328V88.6484H483.621V85.5234H481.551V88.6484H478.953V90.3477H481.551V95.0938C481.551 97.9648 482.859 99.1953 486.004 99.1953ZM496.941 99.1953C497.723 99.1953 498.738 99.1562 499.969 98.9219L499.715 97.1055C498.855 97.2812 498.035 97.3789 497.176 97.3789C495.096 97.3789 493.787 96.4707 493.426 94.7422H500.418C500.457 94.332 500.476 93.9023 500.476 93.4141C500.476 90.1914 498.875 88.4531 496.082 88.4531C493.113 88.4531 491.414 90.4258 491.414 93.8047C491.414 97.2812 493.406 99.1953 496.941 99.1953ZM493.348 93.1602C493.514 91.3145 494.5 90.2695 496.101 90.2695C497.664 90.2695 498.601 91.3047 498.601 93.1602H493.348ZM506.863 99.1953C508.426 99.1953 509.48 98.5898 509.617 97.3984H509.851L510.027 99.0977L511.883 99V84.3516H509.812V90.5234H509.617C509.441 89.1367 508.543 88.4531 506.883 88.4531C504.246 88.4531 502.742 90.4453 502.742 93.9219C502.742 97.3203 504.246 99.1953 506.863 99.1953ZM509.812 94.5469V95.6797C509.812 96.8516 508.953 97.4375 507.195 97.4375C505.613 97.4375 504.793 96.2461 504.793 93.9219C504.793 91.5586 505.652 90.2109 507.176 90.2109C508.933 90.2109 509.812 91.1875 509.812 93.1797V94.5469Z" fill="#A7A7A7"/>
<path d="M401.996 228H410.433V226.145H407.182V215.988H410.433V214.133H401.996V215.988H405.228V226.145H401.996V228ZM413.637 228H415.59V223.703H417.719C421.088 223.703 423.012 221.965 423.012 218.918C423.012 215.881 421.088 214.133 417.719 214.133H413.637V228ZM415.59 221.848V215.988H417.719C419.779 215.988 420.961 217.053 420.961 218.918C420.961 220.773 419.779 221.848 417.719 221.848H415.59ZM429.652 228.195C432.523 228.195 434.183 226.242 434.183 222.824C434.183 219.406 432.523 217.453 429.652 217.453C426.781 217.453 425.121 219.406 425.121 222.824C425.121 226.242 426.781 228.195 429.652 228.195ZM429.652 226.34C428.129 226.34 427.269 225.07 427.269 222.824C427.269 220.578 428.129 219.309 429.652 219.309C431.176 219.309 432.035 220.578 432.035 222.824C432.035 225.07 431.176 226.34 429.652 226.34ZM437.074 228H439.144V224.074H440.199C440.736 224.074 441.234 224.016 441.693 223.908L444.086 228H446.644L443.598 222.99C444.867 221.965 445.658 220.188 445.98 217.648H443.832C443.383 220.998 442.289 222.219 439.711 222.219H439.144V213.352H437.074V228ZM454.086 228.195C454.867 228.195 455.883 228.156 457.113 227.922L456.859 226.105C456 226.281 455.18 226.379 454.32 226.379C452.24 226.379 450.932 225.471 450.57 223.742H457.562C457.601 223.332 457.621 222.902 457.621 222.414C457.621 219.191 456.019 217.453 453.226 217.453C450.258 217.453 448.558 219.426 448.558 222.805C448.558 226.281 450.551 228.195 454.086 228.195ZM450.492 222.16C450.658 220.314 451.644 219.27 453.246 219.27C454.808 219.27 455.746 220.305 455.746 222.16H450.492ZM460.59 228H469.027V226.145H465.775V215.988H469.027V214.133H460.59V215.988H463.822V226.145H460.59V228ZM478.676 228H480.746V221.262C480.746 218.84 479.496 217.453 477.308 217.453C475.57 217.453 474.691 218.137 474.574 219.523H474.349L474.183 217.648H472.308V228H474.379V222.18C474.379 220.256 475.199 219.309 476.82 219.309C477.992 219.309 478.676 220.012 478.676 221.262V228ZM490.023 228.195C491 228.195 491.82 228.117 492.738 227.961L492.504 226.145C491.566 226.262 490.863 226.34 490.219 226.34C488.383 226.34 487.641 225.637 487.641 223.996V219.348H492.348V217.648H487.641V214.523H485.57V217.648H482.973V219.348H485.57V224.094C485.57 226.965 486.879 228.195 490.023 228.195ZM500.961 228.195C501.742 228.195 502.758 228.156 503.988 227.922L503.734 226.105C502.875 226.281 502.055 226.379 501.195 226.379C499.115 226.379 497.807 225.471 497.445 223.742H504.437C504.476 223.332 504.496 222.902 504.496 222.414C504.496 219.191 502.894 217.453 500.101 217.453C497.133 217.453 495.433 219.426 495.433 222.805C495.433 226.281 497.426 228.195 500.961 228.195ZM497.367 222.16C497.533 220.314 498.519 219.27 500.121 219.27C501.683 219.27 502.621 220.305 502.621 222.16H497.367ZM510.98 223.547C510.98 220.773 511.84 219.211 513.598 219.211C514.594 219.211 515.023 219.836 515.023 221.34H517.074C517.074 218.605 516.156 217.453 514.027 217.453C512.23 217.453 511.293 218.391 511.176 220.305H510.941L510.59 217.648H506.996V219.348H508.91V226.301H506.605V228H513.519V226.301H510.98V223.547ZM525.531 228.098L528.851 228V226.34L527.094 226.125V221.809C527.094 219.074 525.453 217.629 522.035 217.58L519.945 217.551L519.75 219.387L522.23 219.455C524.144 219.504 525.121 220.119 525.121 221.496V221.975C524.555 221.857 523.91 221.809 523.168 221.809C520.18 221.809 518.48 223.02 518.48 225.207C518.48 227.111 519.721 228.195 521.879 228.195C523.803 228.195 525.082 227.404 525.228 225.812H525.433L525.531 228.098ZM525.121 223.566V224.289C525.121 225.383 524.144 226.535 522.211 226.535C521.078 226.535 520.433 225.979 520.433 225.012C520.433 223.996 521.361 223.469 523.129 223.469C523.803 223.469 524.457 223.469 525.121 223.566ZM535.922 228.195C537.074 228.195 538.305 228.137 539.437 227.902L539.203 226.086C538.226 226.242 537.191 226.34 536.156 226.34C533.969 226.34 532.738 225.07 532.738 222.707C532.738 220.539 533.851 219.309 535.766 219.309C536.849 219.309 537.797 219.855 538.383 220.803L539.974 219.602C539.359 218.234 537.855 217.453 535.844 217.453C532.474 217.453 530.59 219.426 530.59 222.805C530.59 226.281 532.523 228.195 535.922 228.195ZM548.617 228.195C549.594 228.195 550.414 228.117 551.332 227.961L551.098 226.145C550.16 226.262 549.457 226.34 548.812 226.34C546.976 226.34 546.234 225.637 546.234 223.996V219.348H550.941V217.648H546.234V214.523H544.164V217.648H541.566V219.348H544.164V224.094C544.164 226.965 545.473 228.195 548.617 228.195ZM558.558 228.195C561.43 228.195 563.09 226.242 563.09 222.824C563.09 219.406 561.43 217.453 558.558 217.453C555.687 217.453 554.027 219.406 554.027 222.824C554.027 226.242 555.687 228.195 558.558 228.195ZM558.558 226.34C557.035 226.34 556.176 225.07 556.176 222.824C556.176 220.578 557.035 219.309 558.558 219.309C560.082 219.309 560.941 220.578 560.941 222.824C560.941 225.07 560.082 226.34 558.558 226.34ZM569.574 223.547C569.574 220.773 570.433 219.211 572.191 219.211C573.187 219.211 573.617 219.836 573.617 221.34H575.668C575.668 218.605 574.75 217.453 572.621 217.453C570.824 217.453 569.887 218.391 569.769 220.305H569.535L569.183 217.648H565.59V219.348H567.504V226.301H565.199V228H572.113V226.301H569.574V223.547Z" fill="#A7A7A7"/>
<path d="M371.596 366.195C374.916 366.195 376.537 364.936 376.537 362.426C376.537 360.531 375.443 359.428 373.392 358.461L371.361 357.504C370.424 357.064 369.935 356.547 369.935 355.648C369.935 354.389 370.707 353.734 372.045 353.734C373.119 353.734 374.057 354.135 375.209 355.072L376.576 353.686C375.248 352.455 373.9 351.938 372.035 351.938C369.369 351.938 367.846 353.324 367.846 355.746C367.846 357.543 368.881 358.695 370.775 359.555L373.178 360.648C373.998 361.02 374.447 361.605 374.447 362.465C374.447 363.764 373.568 364.398 371.752 364.398C370.482 364.398 369.154 364.076 367.728 363.461L367.474 365.434C368.646 365.941 370.014 366.195 371.596 366.195ZM384.789 366.195C385.57 366.195 386.586 366.156 387.816 365.922L387.562 364.105C386.703 364.281 385.883 364.379 385.023 364.379C382.943 364.379 381.635 363.471 381.273 361.742H388.266C388.305 361.332 388.324 360.902 388.324 360.414C388.324 357.191 386.723 355.453 383.93 355.453C380.961 355.453 379.262 357.426 379.262 360.805C379.262 364.281 381.254 366.195 384.789 366.195ZM381.195 360.16C381.361 358.314 382.348 357.27 383.949 357.27C385.512 357.27 386.449 358.305 386.449 360.16H381.195ZM396.957 366.195C398.07 366.195 398.988 366.078 400.043 365.785L399.808 363.969C398.949 364.223 398.324 364.34 397.738 364.34C395.961 364.34 395.629 363.637 395.629 361.996V351.352H390.512V353.051H393.558V362.094C393.558 364.965 394.555 366.195 396.957 366.195ZM408.226 366.195C409.008 366.195 410.023 366.156 411.254 365.922L411 364.105C410.141 364.281 409.32 364.379 408.461 364.379C406.381 364.379 405.072 363.471 404.711 361.742H411.703C411.742 361.332 411.762 360.902 411.762 360.414C411.762 357.191 410.16 355.453 407.367 355.453C404.398 355.453 402.699 357.426 402.699 360.805C402.699 364.281 404.691 366.195 408.226 366.195ZM404.633 360.16C404.799 358.314 405.785 357.27 407.387 357.27C408.949 357.27 409.887 358.305 409.887 360.16H404.633ZM419.75 366.195C420.902 366.195 422.133 366.137 423.266 365.902L423.031 364.086C422.055 364.242 421.019 364.34 419.984 364.34C417.797 364.34 416.566 363.07 416.566 360.707C416.566 358.539 417.68 357.309 419.594 357.309C420.678 357.309 421.625 357.855 422.211 358.803L423.803 357.602C423.187 356.234 421.683 355.453 419.672 355.453C416.303 355.453 414.418 357.426 414.418 360.805C414.418 364.281 416.351 366.195 419.75 366.195ZM432.445 366.195C433.422 366.195 434.242 366.117 435.16 365.961L434.926 364.145C433.988 364.262 433.285 364.34 432.641 364.34C430.805 364.34 430.062 363.637 430.062 361.996V357.348H434.769V355.648H430.062V352.523H427.992V355.648H425.394V357.348H427.992V362.094C427.992 364.965 429.301 366.195 432.445 366.195ZM443.383 366.195C444.164 366.195 445.18 366.156 446.41 365.922L446.156 364.105C445.297 364.281 444.476 364.379 443.617 364.379C441.537 364.379 440.228 363.471 439.867 361.742H446.859C446.898 361.332 446.918 360.902 446.918 360.414C446.918 357.191 445.316 355.453 442.523 355.453C439.555 355.453 437.855 357.426 437.855 360.805C437.855 364.281 439.848 366.195 443.383 366.195ZM439.789 360.16C439.955 358.314 440.941 357.27 442.543 357.27C444.105 357.27 445.043 358.305 445.043 360.16H439.789ZM453.305 366.195C454.867 366.195 455.922 365.59 456.058 364.398H456.293L456.469 366.098L458.324 366V351.352H456.254V357.523H456.058C455.883 356.137 454.984 355.453 453.324 355.453C450.687 355.453 449.183 357.445 449.183 360.922C449.183 364.32 450.687 366.195 453.305 366.195ZM456.254 361.547V362.68C456.254 363.852 455.394 364.438 453.637 364.438C452.055 364.438 451.234 363.246 451.234 360.922C451.234 358.559 452.094 357.211 453.617 357.211C455.375 357.211 456.254 358.188 456.254 360.18V361.547ZM467.973 366H470.043V359.262C470.043 356.84 468.793 355.453 466.605 355.453C464.867 355.453 463.988 356.137 463.871 357.523H463.646L463.48 355.648H461.605V366H463.676V360.18C463.676 358.256 464.496 357.309 466.117 357.309C467.289 357.309 467.973 358.012 467.973 359.262V366ZM478.539 366.195C479.32 366.195 480.336 366.156 481.566 365.922L481.312 364.105C480.453 364.281 479.633 364.379 478.773 364.379C476.693 364.379 475.385 363.471 475.023 361.742H482.016C482.055 361.332 482.074 360.902 482.074 360.414C482.074 357.191 480.473 355.453 477.68 355.453C474.711 355.453 473.012 357.426 473.012 360.805C473.012 364.281 475.004 366.195 478.539 366.195ZM474.945 360.16C475.111 358.314 476.098 357.27 477.699 357.27C479.262 357.27 480.199 358.305 480.199 360.16H474.945ZM488.461 366.195C492.055 366.195 493.598 365.238 493.598 363.012C493.598 361.352 492.621 360.59 490.453 360.062L488.539 359.594C487.65 359.379 487.23 359.184 487.23 358.578C487.23 357.68 488.207 357.309 490.531 357.309C491.293 357.309 492.055 357.348 493.109 357.445L493.324 355.648C492.406 355.512 491.586 355.453 490.59 355.453C486.723 355.453 485.082 356.41 485.082 358.676C485.082 360.238 486.01 360.873 488.051 361.391L490.433 361.996C491.117 362.172 491.449 362.426 491.449 363.051C491.449 363.949 490.551 364.34 488.461 364.34C487.523 364.34 486.527 364.242 485.16 364.027L484.926 365.902C485.844 366.117 486.898 366.195 488.461 366.195ZM500.18 366.195C503.773 366.195 505.316 365.238 505.316 363.012C505.316 361.352 504.34 360.59 502.172 360.062L500.258 359.594C499.369 359.379 498.949 359.184 498.949 358.578C498.949 357.68 499.926 357.309 502.25 357.309C503.012 357.309 503.773 357.348 504.828 357.445L505.043 355.648C504.125 355.512 503.305 355.453 502.308 355.453C498.441 355.453 496.801 356.41 496.801 358.676C496.801 360.238 497.728 360.873 499.769 361.391L502.152 361.996C502.836 362.172 503.168 362.426 503.168 363.051C503.168 363.949 502.269 364.34 500.18 364.34C499.242 364.34 498.246 364.242 496.879 364.027L496.644 365.902C497.562 366.117 498.617 366.195 500.18 366.195ZM516.117 367.953H516.586L516.391 366.195H516.312C513.226 366.195 511.488 363.568 511.488 359.008C511.488 354.525 513.226 351.938 516.312 351.938H516.391L516.586 350.18H516.117C511.879 350.18 509.437 353.393 509.437 359.008C509.437 364.701 511.879 367.953 516.117 367.953ZM520.531 367.953H521C525.238 367.953 527.68 364.701 527.68 359.008C527.68 353.393 525.238 350.18 521 350.18H520.531L520.726 351.938H520.805C523.891 351.938 525.629 354.525 525.629 359.008C525.629 363.568 523.891 366.195 520.805 366.195H520.726L520.531 367.953Z" fill="#A7A7A7"/>
<path d="M377.99 190C377.99 189.448 377.542 189 376.99 189C376.438 189 375.99 189.448 375.99 190L377.99 190ZM376.283 253.207C376.673 253.598 377.306 253.598 377.697 253.207L384.061 246.843C384.451 246.453 384.451 245.819 384.061 245.429C383.67 245.038 383.037 245.038 382.647 245.429L376.99 251.086L371.333 245.429C370.942 245.038 370.309 245.038 369.919 245.429C369.528 245.819 369.528 246.453 369.919 246.843L376.283 253.207ZM375.99 190L375.99 252.5L377.99 252.5L377.99 190L375.99 190Z" fill="#A0A0A0" fill-opacity="0.58"/>
<path d="M407.493 236.5C407.493 235.948 407.046 235.5 406.493 235.5C405.941 235.5 405.493 235.948 405.493 236.5L407.493 236.5ZM405.786 253.207C406.177 253.598 406.81 253.598 407.2 253.207L413.564 246.843C413.955 246.453 413.955 245.819 413.564 245.429C413.174 245.038 412.541 245.038 412.15 245.429L406.493 251.086L400.836 245.429C400.446 245.038 399.813 245.038 399.422 245.429C399.032 245.819 399.032 246.453 399.422 246.843L405.786 253.207ZM405.493 236.5L405.493 252.5L407.493 252.5L407.493 236.5L405.493 236.5Z" fill="#A0A0A0" fill-opacity="0.58"/>
<path d="M369.243 109.5C369.243 108.948 368.795 108.5 368.243 108.5C367.691 108.5 367.243 108.948 367.243 109.5L369.243 109.5ZM367.536 141.207C367.926 141.598 368.56 141.598 368.95 141.207L375.314 134.843C375.705 134.453 375.705 133.819 375.314 133.429C374.923 133.038 374.29 133.038 373.9 133.429L368.243 139.086L362.586 133.429C362.196 133.038 361.562 133.038 361.172 133.429C360.781 133.819 360.781 134.453 361.172 134.843L367.536 141.207ZM367.243 109.5L367.243 140.5L369.243 140.5L369.243 109.5L367.243 109.5Z" fill="#A0A0A0" fill-opacity="0.58"/>
<path d="M338.243 68C338.243 67.4477 337.795 67 337.243 67C336.691 67 336.243 67.4477 336.243 68L338.243 68ZM336.536 141.207C336.926 141.598 337.559 141.598 337.95 141.207L344.314 134.843C344.704 134.453 344.704 133.819 344.314 133.429C343.923 133.038 343.29 133.038 342.9 133.429L337.243 139.086L331.586 133.429C331.196 133.038 330.562 133.038 330.172 133.429C329.781 133.819 329.781 134.453 330.172 134.843L336.536 141.207ZM336.243 68L336.243 140.5L338.243 140.5L338.243 68L336.243 68Z" fill="#A0A0A0" fill-opacity="0.58"/>
<path d="M449.743 302C449.743 301.448 449.295 301 448.743 301C448.191 301 447.743 301.448 447.743 302L449.743 302ZM448.036 334.707C448.426 335.098 449.059 335.098 449.45 334.707L455.814 328.343C456.204 327.953 456.204 327.319 455.814 326.929C455.423 326.538 454.79 326.538 454.4 326.929L448.743 332.586L443.086 326.929C442.695 326.538 442.062 326.538 441.672 326.929C441.281 327.319 441.281 327.953 441.672 328.343L448.036 334.707ZM447.743 302L447.743 334L449.743 334L449.743 302L447.743 302Z" fill="#A0A0A0" fill-opacity="0.58"/>
</svg>
