<svg width="901" height="408" viewBox="0 0 901 408" fill="none" xmlns="http://www.w3.org/2000/svg">
<rect width="901" height="408" fill="#171717"/>
<path d="M276.414 55.3262C276.414 57.2988 275.971 58.7767 275.086 59.7598C274.201 60.7428 272.869 61.2344 271.092 61.2344C269.393 61.2344 268.117 60.7624 267.264 59.8184C266.417 58.8743 265.994 57.4551 265.994 55.5605V46.9961H267.635V55.4531C267.635 56.8854 267.938 57.9629 268.543 58.6855C269.148 59.4017 270.057 59.7598 271.268 59.7598C272.439 59.7598 273.315 59.4147 273.895 58.7246C274.48 58.028 274.773 56.9863 274.773 55.5996V46.9961H276.414V55.3262ZM290.389 60.043C289.686 60.4401 288.943 60.7396 288.162 60.9414C287.381 61.1367 286.561 61.2344 285.701 61.2344C283.65 61.2344 282.02 60.6159 280.809 59.3789C279.604 58.1419 279.002 56.4102 279.002 54.1836C279.002 51.9115 279.676 50.1081 281.023 48.7734C282.378 47.4323 284.113 46.7617 286.229 46.7617C287.003 46.7617 287.723 46.8431 288.387 47.0059C289.051 47.1621 289.728 47.416 290.418 47.7676L289.744 49.0957C289.165 48.7962 288.595 48.5814 288.035 48.4512C287.475 48.3145 286.87 48.2461 286.219 48.2461C284.617 48.2461 283.299 48.7539 282.264 49.7695C281.235 50.7852 280.721 52.2174 280.721 54.0664C280.721 55.9414 281.173 57.3607 282.078 58.3242C282.983 59.2812 284.259 59.7598 285.906 59.7598C286.453 59.7598 286.964 59.7077 287.439 59.6035C287.915 59.4928 288.351 59.3268 288.748 59.1055V55.1797H285.682V53.6953H290.389V60.043ZM303.895 55.3262C303.895 57.2988 303.452 58.7767 302.566 59.7598C301.681 60.7428 300.35 61.2344 298.572 61.2344C296.873 61.2344 295.597 60.7624 294.744 59.8184C293.898 58.8743 293.475 57.4551 293.475 55.5605V46.9961H295.115V55.4531C295.115 56.8854 295.418 57.9629 296.023 58.6855C296.629 59.4017 297.537 59.7598 298.748 59.7598C299.92 59.7598 300.796 59.4147 301.375 58.7246C301.961 58.028 302.254 56.9863 302.254 55.5996V46.9961H303.895V55.3262ZM309.041 61H307.4V46.9961H309.041V61ZM322.244 61.1953C325.643 61.1953 327.361 58.8711 327.361 54.1641C327.361 49.3398 325.643 46.9375 322.244 46.9375C318.846 46.9375 317.127 49.3398 317.127 54.1641C317.127 58.8711 318.846 61.1953 322.244 61.1953ZM322.244 59.3984C320.203 59.3984 319.178 57.6602 319.178 54.1641C319.178 50.5312 320.203 48.7344 322.244 48.7344C324.285 48.7344 325.311 50.5312 325.311 54.1641C325.311 57.6602 324.285 59.3984 322.244 59.3984ZM336.111 61H338.182V54.2617C338.182 51.8398 336.932 50.4531 334.744 50.4531C333.006 50.4531 332.127 51.1367 332.01 52.5234H331.785L331.619 50.6484H329.744V61H331.814V55.1797C331.814 53.2559 332.635 52.3086 334.256 52.3086C335.428 52.3086 336.111 53.0117 336.111 54.2617V61ZM341.385 61H343.338V56.7031H345.467C348.836 56.7031 350.76 54.9648 350.76 51.918C350.76 48.8809 348.836 47.1328 345.467 47.1328H341.385V61ZM343.338 54.8477V48.9883H345.467C347.527 48.9883 348.709 50.0527 348.709 51.918C348.709 53.7734 347.527 54.8477 345.467 54.8477H343.338ZM357.4 61.1953C360.271 61.1953 361.932 59.2422 361.932 55.8242C361.932 52.4062 360.271 50.4531 357.4 50.4531C354.529 50.4531 352.869 52.4062 352.869 55.8242C352.869 59.2422 354.529 61.1953 357.4 61.1953ZM357.4 59.3398C355.877 59.3398 355.018 58.0703 355.018 55.8242C355.018 53.5781 355.877 52.3086 357.4 52.3086C358.924 52.3086 359.783 53.5781 359.783 55.8242C359.783 58.0703 358.924 59.3398 357.4 59.3398ZM364.822 61H374.021V59.3008H370.838V50.6484H365.408V52.3672H368.768V59.3008H364.822V61ZM369.686 49.0078C370.486 49.0078 371.131 48.3633 371.131 47.5625C371.131 46.7617 370.486 46.1172 369.686 46.1172C368.885 46.1172 368.24 46.7617 368.24 47.5625C368.24 48.3633 368.885 49.0078 369.686 49.0078ZM382.986 61H385.057V54.2617C385.057 51.8398 383.807 50.4531 381.619 50.4531C379.881 50.4531 379.002 51.1367 378.885 52.5234H378.66L378.494 50.6484H376.619V61H378.689V55.1797C378.689 53.2559 379.51 52.3086 381.131 52.3086C382.303 52.3086 382.986 53.0117 382.986 54.2617V61ZM394.334 61.1953C395.311 61.1953 396.131 61.1172 397.049 60.9609L396.814 59.1445C395.877 59.2617 395.174 59.3398 394.529 59.3398C392.693 59.3398 391.951 58.6367 391.951 56.9961V52.3477H396.658V50.6484H391.951V47.5234H389.881V50.6484H387.283V52.3477H389.881V57.0938C389.881 59.9648 391.189 61.1953 394.334 61.1953ZM405.271 61.1953C406.053 61.1953 407.068 61.1562 408.299 60.9219L408.045 59.1055C407.186 59.2812 406.365 59.3789 405.506 59.3789C403.426 59.3789 402.117 58.4707 401.756 56.7422H408.748C408.787 56.332 408.807 55.9023 408.807 55.4141C408.807 52.1914 407.205 50.4531 404.412 50.4531C401.443 50.4531 399.744 52.4258 399.744 55.8047C399.744 59.2812 401.736 61.1953 405.271 61.1953ZM401.678 55.1602C401.844 53.3145 402.83 52.2695 404.432 52.2695C405.994 52.2695 406.932 53.3047 406.932 55.1602H401.678ZM415.291 56.5469C415.291 53.7734 416.15 52.2109 417.908 52.2109C418.904 52.2109 419.334 52.8359 419.334 54.3398H421.385C421.385 51.6055 420.467 50.4531 418.338 50.4531C416.541 50.4531 415.604 51.3906 415.486 53.3047H415.252L414.9 50.6484H411.307V52.3477H413.221V59.3008H410.916V61H417.83V59.3008H415.291V56.5469ZM423.416 61H432.596V59.1445H425.369V54.9844H430.838V53.1289H425.369V48.9883H432.596V47.1328H423.416V61ZM441.58 61H443.65V54.2617C443.65 51.8398 442.4 50.4531 440.213 50.4531C438.475 50.4531 437.596 51.1367 437.479 52.5234H437.254L437.088 50.6484H435.213V61H437.283V55.1797C437.283 53.2559 438.104 52.3086 439.725 52.3086C440.896 52.3086 441.58 53.0117 441.58 54.2617V61ZM452.928 61.1953C453.904 61.1953 454.725 61.1172 455.643 60.9609L455.408 59.1445C454.471 59.2617 453.768 59.3398 453.123 59.3398C451.287 59.3398 450.545 58.6367 450.545 56.9961V52.3477H455.252V50.6484H450.545V47.5234H448.475V50.6484H445.877V52.3477H448.475V57.0938C448.475 59.9648 449.783 61.1953 452.928 61.1953ZM463.865 61.1953C464.646 61.1953 465.662 61.1562 466.893 60.9219L466.639 59.1055C465.779 59.2812 464.959 59.3789 464.1 59.3789C462.02 59.3789 460.711 58.4707 460.35 56.7422H467.342C467.381 56.332 467.4 55.9023 467.4 55.4141C467.4 52.1914 465.799 50.4531 463.006 50.4531C460.037 50.4531 458.338 52.4258 458.338 55.8047C458.338 59.2812 460.33 61.1953 463.865 61.1953ZM460.271 55.1602C460.438 53.3145 461.424 52.2695 463.025 52.2695C464.588 52.2695 465.525 53.3047 465.525 55.1602H460.271ZM473.885 56.5469C473.885 53.7734 474.744 52.2109 476.502 52.2109C477.498 52.2109 477.928 52.8359 477.928 54.3398H479.979C479.979 51.6055 479.061 50.4531 476.932 50.4531C475.135 50.4531 474.197 51.3906 474.08 53.3047H473.846L473.494 50.6484H469.9V52.3477H471.814V59.3008H469.51V61H476.424V59.3008H473.885V56.5469ZM484.373 65.2578H486.248L487.42 58.5195H485.154L484.373 65.2578ZM505.447 61H514.627V59.1445H507.4V54.9844H512.869V53.1289H507.4V48.9883H514.627V47.1328H505.447V61ZM516.639 61H518.982L521.414 57.4062L523.943 61H526.287L522.537 55.8047L526.287 50.6484H523.943L521.463 54.2715L518.982 50.6484H516.639L520.34 55.8828L516.639 61ZM528.885 61H538.084V59.3008H534.9V50.6484H529.471V52.3672H532.83V59.3008H528.885V61ZM533.748 49.0078C534.549 49.0078 535.193 48.3633 535.193 47.5625C535.193 46.7617 534.549 46.1172 533.748 46.1172C532.947 46.1172 532.303 46.7617 532.303 47.5625C532.303 48.3633 532.947 49.0078 533.748 49.0078ZM546.678 61.1953C547.654 61.1953 548.475 61.1172 549.393 60.9609L549.158 59.1445C548.221 59.2617 547.518 59.3398 546.873 59.3398C545.037 59.3398 544.295 58.6367 544.295 56.9961V52.3477H549.002V50.6484H544.295V47.5234H542.225V50.6484H539.627V52.3477H542.225V57.0938C542.225 59.9648 543.533 61.1953 546.678 61.1953ZM554.686 65.2578H556.561L557.732 58.5195H555.467L554.686 65.2578ZM575.76 61H579.119C583.357 61 585.467 58.7637 585.467 54.2617C585.467 49.4863 583.357 47.1328 579.119 47.1328H575.76V61ZM577.713 59.1445V48.9883H579.119C581.971 48.9883 583.416 50.7363 583.416 54.2617C583.416 57.5137 581.971 59.1445 579.119 59.1445H577.713ZM591.775 61.1953C594.646 61.1953 596.307 59.2422 596.307 55.8242C596.307 52.4062 594.646 50.4531 591.775 50.4531C588.904 50.4531 587.244 52.4062 587.244 55.8242C587.244 59.2422 588.904 61.1953 591.775 61.1953ZM591.775 59.3398C590.252 59.3398 589.393 58.0703 589.393 55.8242C589.393 53.5781 590.252 52.3086 591.775 52.3086C593.299 52.3086 594.158 53.5781 594.158 55.8242C594.158 58.0703 593.299 59.3398 591.775 59.3398ZM604.666 61H607.205L608.67 50.6484H606.619L605.74 59.4375H605.564L604.344 50.6484H602.449L601.229 59.4375H601.053L600.271 50.6484H598.318L599.49 61H602.127L603.338 52.7773H603.455L604.666 61ZM617.361 61H619.432V54.2617C619.432 51.8398 618.182 50.4531 615.994 50.4531C614.256 50.4531 613.377 51.1367 613.26 52.5234H613.035L612.869 50.6484H610.994V61H613.064V55.1797C613.064 53.2559 613.885 52.3086 615.506 52.3086C616.678 52.3086 617.361 53.0117 617.361 54.2617V61ZM624.998 65.2578H626.873L628.045 58.5195H625.779L624.998 65.2578ZM654.275 61.1953C655.076 61.1953 655.721 60.5508 655.721 59.75C655.721 58.9492 655.076 58.3047 654.275 58.3047C653.475 58.3047 652.83 58.9492 652.83 59.75C652.83 60.5508 653.475 61.1953 654.275 61.1953ZM662.088 61.1953C662.889 61.1953 663.533 60.5508 663.533 59.75C663.533 58.9492 662.889 58.3047 662.088 58.3047C661.287 58.3047 660.643 58.9492 660.643 59.75C660.643 60.5508 661.287 61.1953 662.088 61.1953ZM669.9 61.1953C670.701 61.1953 671.346 60.5508 671.346 59.75C671.346 58.9492 670.701 58.3047 669.9 58.3047C669.1 58.3047 668.455 58.9492 668.455 59.75C668.455 60.5508 669.1 61.1953 669.9 61.1953Z" fill="#A7A7A7"/>
<path d="M473 76C473 75.4477 472.552 75 472 75C471.448 75 471 75.4477 471 76L473 76ZM471.293 99.7071C471.683 100.098 472.317 100.098 472.707 99.7071L479.071 93.3431C479.462 92.9526 479.462 92.3195 479.071 91.9289C478.681 91.5384 478.047 91.5384 477.657 91.9289L472 97.5858L466.343 91.9289C465.953 91.5384 465.319 91.5384 464.929 91.9289C464.538 92.3195 464.538 92.9526 464.929 93.3431L471.293 99.7071ZM471 76L471 99L473 99L473 76L471 76Z" fill="#676767"/>
<path d="M473 149C473 148.448 472.552 148 472 148C471.448 148 471 148.448 471 149L473 149ZM471.293 210.707C471.683 211.098 472.317 211.098 472.707 210.707L479.071 204.343C479.462 203.953 479.462 203.319 479.071 202.929C478.681 202.538 478.047 202.538 477.657 202.929L472 208.586L466.343 202.929C465.953 202.538 465.319 202.538 464.929 202.929C464.538 203.319 464.538 203.953 464.929 204.343L471.293 210.707ZM471 151.033C471 151.586 471.448 152.033 472 152.033C472.552 152.033 473 151.586 473 151.033L471 151.033ZM473 159.167C473 158.614 472.552 158.167 472 158.167C471.448 158.167 471 158.614 471 159.167L473 159.167ZM471 163.233C471 163.786 471.448 164.233 472 164.233C472.552 164.233 473 163.786 473 163.233L471 163.233ZM473 171.367C473 170.814 472.552 170.367 472 170.367C471.448 170.367 471 170.814 471 171.367L473 171.367ZM471 175.433C471 175.986 471.448 176.433 472 176.433C472.552 176.433 473 175.986 473 175.433L471 175.433ZM473 183.567C473 183.014 472.552 182.567 472 182.567C471.448 182.567 471 183.014 471 183.567L473 183.567ZM471 187.633C471 188.186 471.448 188.633 472 188.633C472.552 188.633 473 188.186 473 187.633L471 187.633ZM473 195.767C473 195.214 472.552 194.767 472 194.767C471.448 194.767 471 195.214 471 195.767L473 195.767ZM471 199.833C471 200.386 471.448 200.833 472 200.833C472.552 200.833 473 200.386 473 199.833L471 199.833ZM473 207.967C473 207.414 472.552 206.967 472 206.967C471.448 206.967 471 207.414 471 207.967L473 207.967ZM471 149L471 151.033L473 151.033L473 149L471 149ZM471 159.167L471 163.233L473 163.233L473 159.167L471 159.167ZM471 171.367L471 175.433L473 175.433L473 171.367L471 171.367ZM471 183.567L471 187.633L473 187.633L473 183.567L471 183.567ZM471 195.767L471 199.833L473 199.833L473 195.767L471 195.767ZM471 207.967L471 210L473 210L473 207.967L471 207.967Z" fill="#676767"/>
<path d="M473 259C473 258.448 472.552 258 472 258C471.448 258 471 258.448 471 259H473ZM471.293 318.707C471.683 319.098 472.317 319.098 472.707 318.707L479.071 312.343C479.462 311.953 479.462 311.319 479.071 310.929C478.681 310.538 478.047 310.538 477.657 310.929L472 316.586L466.343 310.929C465.953 310.538 465.319 310.538 464.929 310.929C464.538 311.319 464.538 311.953 464.929 312.343L471.293 318.707ZM471 259V318H473V259H471Z" fill="#676767"/>
<path d="M307.898 131.195C310.867 131.195 312.43 129.652 312.43 126.547V117.133H310.477V126.547C310.477 128.402 309.617 129.34 307.938 129.34C306.18 129.34 305.398 128.402 305.398 126.547V117.133H303.445V126.547C303.445 129.652 304.93 131.195 307.898 131.195ZM320.945 131.195C322.703 131.195 324.188 130.785 324.734 130.609V124.066H320.047V125.922H322.879V129.203C322.391 129.311 321.824 129.398 321.18 129.398C318.289 129.398 316.824 127.582 316.824 123.949C316.824 120.629 318.357 118.734 320.984 118.734C322.02 118.734 322.967 119.242 323.572 120.121L325.027 118.676C324.334 117.572 322.811 116.938 320.867 116.938C316.98 116.938 314.734 119.535 314.734 124.047C314.734 128.812 316.805 131.195 320.945 131.195ZM331.336 131.195C334.305 131.195 335.867 129.652 335.867 126.547V117.133H333.914V126.547C333.914 128.402 333.055 129.34 331.375 129.34C329.617 129.34 328.836 128.402 328.836 126.547V117.133H326.883V126.547C326.883 129.652 328.367 131.195 331.336 131.195ZM338.875 131H347.312V129.145H344.061V118.988H347.312V117.133H338.875V118.988H342.107V129.145H338.875V131ZM350.594 131H359.031V129.145H355.779V118.988H359.031V117.133H350.594V118.988H353.826V129.145H350.594V131ZM368.68 131H370.75V124.262C370.75 121.84 369.5 120.453 367.312 120.453C365.574 120.453 364.695 121.137 364.578 122.523H364.354L364.188 120.648H362.312V131H364.383V125.18C364.383 123.256 365.203 122.309 366.824 122.309C367.996 122.309 368.68 123.012 368.68 124.262V131ZM379.051 131.195C381.668 131.195 383.172 129.32 383.172 125.922C383.172 122.445 381.668 120.453 379.031 120.453C377.371 120.453 376.473 121.137 376.297 122.523H376.072L375.906 120.648H374.031V135.492H376.102V129.398H376.297C376.434 130.59 377.488 131.195 379.051 131.195ZM376.102 127.68V124.789C376.102 123.061 376.883 122.211 378.445 122.211C380.154 122.211 381.121 123.559 381.121 125.922C381.121 128.246 380.203 129.438 378.426 129.438C376.863 129.438 376.102 128.852 376.102 127.68ZM389.051 131.195C390.438 131.195 391.434 130.414 391.766 129.008H391.951L392.098 131.098L395.418 131V129.34L393.992 129.125V120.648H391.922V126.215C391.922 128.471 391.141 129.34 389.637 129.34C388.416 129.34 387.703 128.676 387.703 127.484V120.648H385.633V127.484C385.633 129.848 386.873 131.195 389.051 131.195ZM403.465 131.195C404.441 131.195 405.262 131.117 406.18 130.961L405.945 129.145C405.008 129.262 404.305 129.34 403.66 129.34C401.824 129.34 401.082 128.637 401.082 126.996V122.348H405.789V120.648H401.082V117.523H399.012V120.648H396.414V122.348H399.012V127.094C399.012 129.965 400.32 131.195 403.465 131.195ZM407.986 131H410.037L410.945 127.621H415.867L416.775 131H418.826L414.822 117.133H411.99L407.986 131ZM411.443 125.766L413.318 118.812H413.494L415.369 125.766H411.443ZM424.324 131.195C425.887 131.195 426.941 130.59 427.078 129.398H427.312L427.488 131.098L429.344 131V116.352H427.273V122.523H427.078C426.902 121.137 426.004 120.453 424.344 120.453C421.707 120.453 420.203 122.445 420.203 125.922C420.203 129.32 421.707 131.195 424.324 131.195ZM427.273 126.547V127.68C427.273 128.852 426.414 129.438 424.656 129.438C423.074 129.438 422.254 128.246 422.254 125.922C422.254 123.559 423.113 122.211 424.637 122.211C426.395 122.211 427.273 123.188 427.273 125.18V126.547ZM438.973 131.098L442.293 131V129.34L440.535 129.125V124.809C440.535 122.074 438.895 120.629 435.477 120.58L433.387 120.551L433.191 122.387L435.672 122.455C437.586 122.504 438.562 123.119 438.562 124.496V124.975C437.996 124.857 437.352 124.809 436.609 124.809C433.621 124.809 431.922 126.02 431.922 128.207C431.922 130.111 433.162 131.195 435.32 131.195C437.244 131.195 438.523 130.404 438.67 128.812H438.875L438.973 131.098ZM438.562 126.566V127.289C438.562 128.383 437.586 129.535 435.652 129.535C434.52 129.535 433.875 128.979 433.875 128.012C433.875 126.996 434.803 126.469 436.57 126.469C437.244 126.469 437.898 126.469 438.562 126.566ZM449.363 131.195C451.98 131.195 453.484 129.32 453.484 125.922C453.484 122.445 451.98 120.453 449.344 120.453C447.684 120.453 446.785 121.137 446.609 122.523H446.385L446.219 120.648H444.344V135.492H446.414V129.398H446.609C446.746 130.59 447.801 131.195 449.363 131.195ZM446.414 127.68V124.789C446.414 123.061 447.195 122.211 448.758 122.211C450.467 122.211 451.434 123.559 451.434 125.922C451.434 128.246 450.516 129.438 448.738 129.438C447.176 129.438 446.414 128.852 446.414 127.68ZM462.059 131.195C463.035 131.195 463.855 131.117 464.773 130.961L464.539 129.145C463.602 129.262 462.898 129.34 462.254 129.34C460.418 129.34 459.676 128.637 459.676 126.996V122.348H464.383V120.648H459.676V117.523H457.605V120.648H455.008V122.348H457.605V127.094C457.605 129.965 458.914 131.195 462.059 131.195ZM472.996 131.195C473.777 131.195 474.793 131.156 476.023 130.922L475.77 129.105C474.91 129.281 474.09 129.379 473.23 129.379C471.15 129.379 469.842 128.471 469.48 126.742H476.473C476.512 126.332 476.531 125.902 476.531 125.414C476.531 122.191 474.93 120.453 472.137 120.453C469.168 120.453 467.469 122.426 467.469 125.805C467.469 129.281 469.461 131.195 472.996 131.195ZM469.402 125.16C469.568 123.314 470.555 122.27 472.156 122.27C473.719 122.27 474.656 123.305 474.656 125.16H469.402ZM483.016 126.547C483.016 123.773 483.875 122.211 485.633 122.211C486.629 122.211 487.059 122.836 487.059 124.34H489.109C489.109 121.605 488.191 120.453 486.062 120.453C484.266 120.453 483.328 121.391 483.211 123.305H482.977L482.625 120.648H479.031V122.348H480.945V129.301H478.641V131H485.555V129.301H483.016V126.547ZM507.156 131.195C507.957 131.195 508.602 130.551 508.602 129.75C508.602 128.949 507.957 128.305 507.156 128.305C506.355 128.305 505.711 128.949 505.711 129.75C505.711 130.551 506.355 131.195 507.156 131.195ZM507.156 123.344C507.957 123.344 508.602 122.699 508.602 121.898C508.602 121.098 507.957 120.453 507.156 120.453C506.355 120.453 505.711 121.098 505.711 121.898C505.711 122.699 506.355 123.344 507.156 123.344ZM530.115 131.195C533.436 131.195 535.057 129.936 535.057 127.426C535.057 125.531 533.963 124.428 531.912 123.461L529.881 122.504C528.943 122.064 528.455 121.547 528.455 120.648C528.455 119.389 529.227 118.734 530.564 118.734C531.639 118.734 532.576 119.135 533.729 120.072L535.096 118.686C533.768 117.455 532.42 116.938 530.555 116.938C527.889 116.938 526.365 118.324 526.365 120.746C526.365 122.543 527.4 123.695 529.295 124.555L531.697 125.648C532.518 126.02 532.967 126.605 532.967 127.465C532.967 128.764 532.088 129.398 530.271 129.398C529.002 129.398 527.674 129.076 526.248 128.461L525.994 130.434C527.166 130.941 528.533 131.195 530.115 131.195ZM543.309 131.195C544.09 131.195 545.105 131.156 546.336 130.922L546.082 129.105C545.223 129.281 544.402 129.379 543.543 129.379C541.463 129.379 540.154 128.471 539.793 126.742H546.785C546.824 126.332 546.844 125.902 546.844 125.414C546.844 122.191 545.242 120.453 542.449 120.453C539.48 120.453 537.781 122.426 537.781 125.805C537.781 129.281 539.773 131.195 543.309 131.195ZM539.715 125.16C539.881 123.314 540.867 122.27 542.469 122.27C544.031 122.27 544.969 123.305 544.969 125.16H539.715ZM555.477 131.195C556.59 131.195 557.508 131.078 558.562 130.785L558.328 128.969C557.469 129.223 556.844 129.34 556.258 129.34C554.48 129.34 554.148 128.637 554.148 126.996V116.352H549.031V118.051H552.078V127.094C552.078 129.965 553.074 131.195 555.477 131.195ZM566.746 131.195C567.527 131.195 568.543 131.156 569.773 130.922L569.52 129.105C568.66 129.281 567.84 129.379 566.98 129.379C564.9 129.379 563.592 128.471 563.23 126.742H570.223C570.262 126.332 570.281 125.902 570.281 125.414C570.281 122.191 568.68 120.453 565.887 120.453C562.918 120.453 561.219 122.426 561.219 125.805C561.219 129.281 563.211 131.195 566.746 131.195ZM563.152 125.16C563.318 123.314 564.305 122.27 565.906 122.27C567.469 122.27 568.406 123.305 568.406 125.16H563.152ZM578.27 131.195C579.422 131.195 580.652 131.137 581.785 130.902L581.551 129.086C580.574 129.242 579.539 129.34 578.504 129.34C576.316 129.34 575.086 128.07 575.086 125.707C575.086 123.539 576.199 122.309 578.113 122.309C579.197 122.309 580.145 122.855 580.73 123.803L582.322 122.602C581.707 121.234 580.203 120.453 578.191 120.453C574.822 120.453 572.938 122.426 572.938 125.805C572.938 129.281 574.871 131.195 578.27 131.195ZM590.965 131.195C591.941 131.195 592.762 131.117 593.68 130.961L593.445 129.145C592.508 129.262 591.805 129.34 591.16 129.34C589.324 129.34 588.582 128.637 588.582 126.996V122.348H593.289V120.648H588.582V117.523H586.512V120.648H583.914V122.348H586.512V127.094C586.512 129.965 587.82 131.195 590.965 131.195ZM603.035 131.098L606.355 131V129.34L604.598 129.125V124.809C604.598 122.074 602.957 120.629 599.539 120.58L597.449 120.551L597.254 122.387L599.734 122.455C601.648 122.504 602.625 123.119 602.625 124.496V124.975C602.059 124.857 601.414 124.809 600.672 124.809C597.684 124.809 595.984 126.02 595.984 128.207C595.984 130.111 597.225 131.195 599.383 131.195C601.307 131.195 602.586 130.404 602.732 128.812H602.938L603.035 131.098ZM602.625 126.566V127.289C602.625 128.383 601.648 129.535 599.715 129.535C598.582 129.535 597.938 128.979 597.938 128.012C597.938 126.996 598.865 126.469 600.633 126.469C601.307 126.469 601.961 126.469 602.625 126.566ZM611.18 131.195C615.232 131.195 617.547 128.988 617.547 125.141C617.547 122.152 615.965 120.453 613.211 120.453C611.609 120.453 610.77 121.137 610.672 122.523H610.477V116.352H608.406V131C609.344 131.117 610.242 131.195 611.18 131.195ZM610.477 125.18C610.477 123.188 611.355 122.211 613.113 122.211C614.637 122.211 615.496 123.266 615.496 125.141C615.496 127.875 614.08 129.438 611.59 129.438C611.219 129.438 610.848 129.438 610.477 129.408V125.18ZM625.789 131.195C626.902 131.195 627.82 131.078 628.875 130.785L628.641 128.969C627.781 129.223 627.156 129.34 626.57 129.34C624.793 129.34 624.461 128.637 624.461 126.996V116.352H619.344V118.051H622.391V127.094C622.391 129.965 623.387 131.195 625.789 131.195ZM637.059 131.195C637.84 131.195 638.855 131.156 640.086 130.922L639.832 129.105C638.973 129.281 638.152 129.379 637.293 129.379C635.213 129.379 633.904 128.471 633.543 126.742H640.535C640.574 126.332 640.594 125.902 640.594 125.414C640.594 122.191 638.992 120.453 636.199 120.453C633.23 120.453 631.531 122.426 631.531 125.805C631.531 129.281 633.523 131.195 637.059 131.195ZM633.465 125.16C633.631 123.314 634.617 122.27 636.219 122.27C637.781 122.27 638.719 123.305 638.719 125.16H633.465Z" fill="#E2E2E2"/>
<rect x="280" y="101" width="384" height="47" rx="23.5" stroke="#A7A7A7" stroke-width="2"/>
<path d="M355.855 241.195C357.086 241.195 358.277 240.98 359.43 240.531L358.98 238.812C358.062 239.203 357.145 239.398 356.188 239.398C353.062 239.398 351.48 237.582 351.48 233.949C351.48 230.619 353.121 228.734 355.641 228.734C356.695 228.734 357.643 229.242 358.229 230.121L359.674 228.686C359.02 227.572 357.535 226.938 355.621 226.938C351.656 226.938 349.391 229.535 349.391 234.047C349.391 238.812 351.559 241.195 355.855 241.195ZM368.16 241.098L371.48 241V239.34L369.723 239.125V234.809C369.723 232.074 368.082 230.629 364.664 230.58L362.574 230.551L362.379 232.387L364.859 232.455C366.773 232.504 367.75 233.119 367.75 234.496V234.975C367.184 234.857 366.539 234.809 365.797 234.809C362.809 234.809 361.109 236.02 361.109 238.207C361.109 240.111 362.35 241.195 364.508 241.195C366.432 241.195 367.711 240.404 367.857 238.812H368.062L368.16 241.098ZM367.75 236.566V237.289C367.75 238.383 366.773 239.535 364.84 239.535C363.707 239.535 363.062 238.979 363.062 238.012C363.062 236.996 363.99 236.469 365.758 236.469C366.432 236.469 367.086 236.469 367.75 236.566ZM379.898 241H381.969V234.262C381.969 231.84 380.719 230.453 378.531 230.453C376.793 230.453 375.914 231.137 375.797 232.523H375.572L375.406 230.648H373.531V241H375.602V235.18C375.602 233.256 376.422 232.309 378.043 232.309C379.215 232.309 379.898 233.012 379.898 234.262V241ZM388.092 241H390.846L394.547 230.648H392.34L389.557 239.242H389.381L386.598 230.648H384.391L388.092 241ZM403.316 241.098L406.637 241V239.34L404.879 239.125V234.809C404.879 232.074 403.238 230.629 399.82 230.58L397.73 230.551L397.535 232.387L400.016 232.455C401.93 232.504 402.906 233.119 402.906 234.496V234.975C402.34 234.857 401.695 234.809 400.953 234.809C397.965 234.809 396.266 236.02 396.266 238.207C396.266 240.111 397.506 241.195 399.664 241.195C401.588 241.195 402.867 240.404 403.014 238.812H403.219L403.316 241.098ZM402.906 236.566V237.289C402.906 238.383 401.93 239.535 399.996 239.535C398.863 239.535 398.219 238.979 398.219 238.012C398.219 236.996 399.146 236.469 400.914 236.469C401.588 236.469 402.242 236.469 402.906 236.566ZM412.105 241.195C415.699 241.195 417.242 240.238 417.242 238.012C417.242 236.352 416.266 235.59 414.098 235.062L412.184 234.594C411.295 234.379 410.875 234.184 410.875 233.578C410.875 232.68 411.852 232.309 414.176 232.309C414.938 232.309 415.699 232.348 416.754 232.445L416.969 230.648C416.051 230.512 415.23 230.453 414.234 230.453C410.367 230.453 408.727 231.41 408.727 233.676C408.727 235.238 409.654 235.873 411.695 236.391L414.078 236.996C414.762 237.172 415.094 237.426 415.094 238.051C415.094 238.949 414.195 239.34 412.105 239.34C411.168 239.34 410.172 239.242 408.805 239.027L408.57 240.902C409.488 241.117 410.543 241.195 412.105 241.195ZM420.328 241H422.281V236.703H424.41C427.779 236.703 429.703 234.965 429.703 231.918C429.703 228.881 427.779 227.133 424.41 227.133H420.328V241ZM422.281 234.848V228.988H424.41C426.471 228.988 427.652 230.053 427.652 231.918C427.652 233.773 426.471 234.848 424.41 234.848H422.281ZM435.641 236.547C435.641 233.773 436.5 232.211 438.258 232.211C439.254 232.211 439.684 232.836 439.684 234.34H441.734C441.734 231.605 440.816 230.453 438.688 230.453C436.891 230.453 435.953 231.391 435.836 233.305H435.602L435.25 230.648H431.656V232.348H433.57V239.301H431.266V241H438.18V239.301H435.641V236.547ZM448.062 241.195C450.934 241.195 452.594 239.242 452.594 235.824C452.594 232.406 450.934 230.453 448.062 230.453C445.191 230.453 443.531 232.406 443.531 235.824C443.531 239.242 445.191 241.195 448.062 241.195ZM448.062 239.34C446.539 239.34 445.68 238.07 445.68 235.824C445.68 233.578 446.539 232.309 448.062 232.309C449.586 232.309 450.445 233.578 450.445 235.824C450.445 238.07 449.586 239.34 448.062 239.34ZM454.957 241H457.301L459.732 237.406L462.262 241H464.605L460.855 235.805L464.605 230.648H462.262L459.781 234.271L457.301 230.648H454.957L458.658 235.883L454.957 241ZM466.373 245.688L468.131 245.492C470.904 245.18 472.369 243.793 473.541 240.082L476.529 230.648H474.381L471.852 239.438H471.705L468.326 230.648H466.178L470.299 241H471.305C470.562 242.709 469.547 243.441 467.896 243.637L466.275 243.832L466.373 245.688ZM479 241H487.438V239.145H484.186V228.988H487.438V227.133H479V228.988H482.232V239.145H479V241ZM497.086 241H499.156V234.262C499.156 231.84 497.906 230.453 495.719 230.453C493.98 230.453 493.102 231.137 492.984 232.523H492.76L492.594 230.648H490.719V241H492.789V235.18C492.789 233.256 493.609 232.309 495.23 232.309C496.402 232.309 497.086 233.012 497.086 234.262V241ZM508.434 241.195C509.41 241.195 510.23 241.117 511.148 240.961L510.914 239.145C509.977 239.262 509.273 239.34 508.629 239.34C506.793 239.34 506.051 238.637 506.051 236.996V232.348H510.758V230.648H506.051V227.523H503.98V230.648H501.383V232.348H503.98V237.094C503.98 239.965 505.289 241.195 508.434 241.195ZM519.371 241.195C520.152 241.195 521.168 241.156 522.398 240.922L522.145 239.105C521.285 239.281 520.465 239.379 519.605 239.379C517.525 239.379 516.217 238.471 515.855 236.742H522.848C522.887 236.332 522.906 235.902 522.906 235.414C522.906 232.191 521.305 230.453 518.512 230.453C515.543 230.453 513.844 232.426 513.844 235.805C513.844 239.281 515.836 241.195 519.371 241.195ZM515.777 235.16C515.943 233.314 516.93 232.27 518.531 232.27C520.094 232.27 521.031 233.305 521.031 235.16H515.777ZM529.391 236.547C529.391 233.773 530.25 232.211 532.008 232.211C533.004 232.211 533.434 232.836 533.434 234.34H535.484C535.484 231.605 534.566 230.453 532.438 230.453C530.641 230.453 529.703 231.391 529.586 233.305H529.352L529 230.648H525.406V232.348H527.32V239.301H525.016V241H531.93V239.301H529.391V236.547ZM543.941 241.098L547.262 241V239.34L545.504 239.125V234.809C545.504 232.074 543.863 230.629 540.445 230.58L538.355 230.551L538.16 232.387L540.641 232.455C542.555 232.504 543.531 233.119 543.531 234.496V234.975C542.965 234.857 542.32 234.809 541.578 234.809C538.59 234.809 536.891 236.02 536.891 238.207C536.891 240.111 538.131 241.195 540.289 241.195C542.213 241.195 543.492 240.404 543.639 238.812H543.844L543.941 241.098ZM543.531 236.566V237.289C543.531 238.383 542.555 239.535 540.621 239.535C539.488 239.535 538.844 238.979 538.844 238.012C538.844 236.996 539.771 236.469 541.539 236.469C542.213 236.469 542.867 236.469 543.531 236.566ZM554.332 241.195C555.484 241.195 556.715 241.137 557.848 240.902L557.613 239.086C556.637 239.242 555.602 239.34 554.566 239.34C552.379 239.34 551.148 238.07 551.148 235.707C551.148 233.539 552.262 232.309 554.176 232.309C555.26 232.309 556.207 232.855 556.793 233.803L558.385 232.602C557.77 231.234 556.266 230.453 554.254 230.453C550.885 230.453 549 232.426 549 235.805C549 239.281 550.934 241.195 554.332 241.195ZM567.027 241.195C568.004 241.195 568.824 241.117 569.742 240.961L569.508 239.145C568.57 239.262 567.867 239.34 567.223 239.34C565.387 239.34 564.645 238.637 564.645 236.996V232.348H569.352V230.648H564.645V227.523H562.574V230.648H559.977V232.348H562.574V237.094C562.574 239.965 563.883 241.195 567.027 241.195ZM576.969 241.195C579.84 241.195 581.5 239.242 581.5 235.824C581.5 232.406 579.84 230.453 576.969 230.453C574.098 230.453 572.438 232.406 572.438 235.824C572.438 239.242 574.098 241.195 576.969 241.195ZM576.969 239.34C575.445 239.34 574.586 238.07 574.586 235.824C574.586 233.578 575.445 232.309 576.969 232.309C578.492 232.309 579.352 233.578 579.352 235.824C579.352 238.07 578.492 239.34 576.969 239.34ZM587.984 236.547C587.984 233.773 588.844 232.211 590.602 232.211C591.598 232.211 592.027 232.836 592.027 234.34H594.078C594.078 231.605 593.16 230.453 591.031 230.453C589.234 230.453 588.297 231.391 588.18 233.305H587.945L587.594 230.648H584V232.348H585.914V239.301H583.609V241H590.523V239.301H587.984V236.547Z" fill="#E2E2E2"/>
<rect x="326" y="211" width="291" height="47" rx="23.5" stroke="#A7A7A7" stroke-width="2"/>
<path d="M374.879 349H377.125L372.877 342.135L377.125 335.133H374.879L371.9 340.445L368.922 335.133H366.676L370.924 342.135L366.676 349H368.922L371.9 343.795L374.879 349ZM379.117 349H381.07V343.727H383.883C383.941 343.727 383.99 343.727 384.049 343.727L386.559 349H388.902L386.041 343.346C387.564 342.711 388.395 341.324 388.395 339.332C388.395 336.656 386.754 335.133 383.883 335.133H379.117V349ZM381.07 341.871V336.988H383.883C385.436 336.988 386.344 337.906 386.344 339.527C386.344 341.012 385.436 341.871 383.883 341.871H381.07ZM391.031 349H396.344C399.02 349 400.543 347.613 400.543 345.191C400.543 343.014 398.99 341.754 396.246 341.715V341.598C398.375 341.373 399.566 340.338 399.566 338.648C399.566 336.402 397.965 335.133 395.152 335.133H391.031V349ZM392.984 347.145V342.604H395.641C397.457 342.604 398.492 343.443 398.492 344.898C398.492 346.324 397.496 347.145 395.777 347.145H392.984ZM392.984 340.748V336.988H395.055C396.627 336.988 397.516 337.652 397.516 338.844C397.516 340.064 396.666 340.748 395.191 340.748H392.984ZM409.176 349.098L412.496 349V347.34L410.738 347.125V342.809C410.738 340.074 409.098 338.629 405.68 338.58L403.59 338.551L403.395 340.387L405.875 340.455C407.789 340.504 408.766 341.119 408.766 342.496V342.975C408.199 342.857 407.555 342.809 406.812 342.809C403.824 342.809 402.125 344.02 402.125 346.207C402.125 348.111 403.365 349.195 405.523 349.195C407.447 349.195 408.727 348.404 408.873 346.812H409.078L409.176 349.098ZM408.766 344.566V345.289C408.766 346.383 407.789 347.535 405.855 347.535C404.723 347.535 404.078 346.979 404.078 346.012C404.078 344.996 405.006 344.469 406.773 344.469C407.447 344.469 408.102 344.469 408.766 344.566ZM417.965 349.195C421.559 349.195 423.102 348.238 423.102 346.012C423.102 344.352 422.125 343.59 419.957 343.062L418.043 342.594C417.154 342.379 416.734 342.184 416.734 341.578C416.734 340.68 417.711 340.309 420.035 340.309C420.797 340.309 421.559 340.348 422.613 340.445L422.828 338.648C421.91 338.512 421.09 338.453 420.094 338.453C416.227 338.453 414.586 339.41 414.586 341.676C414.586 343.238 415.514 343.873 417.555 344.391L419.938 344.996C420.621 345.172 420.953 345.426 420.953 346.051C420.953 346.949 420.055 347.34 417.965 347.34C417.027 347.34 416.031 347.242 414.664 347.027L414.43 348.902C415.348 349.117 416.402 349.195 417.965 349.195ZM431.48 349.195C432.262 349.195 433.277 349.156 434.508 348.922L434.254 347.105C433.395 347.281 432.574 347.379 431.715 347.379C429.635 347.379 428.326 346.471 427.965 344.742H434.957C434.996 344.332 435.016 343.902 435.016 343.414C435.016 340.191 433.414 338.453 430.621 338.453C427.652 338.453 425.953 340.426 425.953 343.805C425.953 347.281 427.945 349.195 431.48 349.195ZM427.887 343.16C428.053 341.314 429.039 340.27 430.641 340.27C432.203 340.27 433.141 341.305 433.141 343.16H427.887ZM437.984 349H446.422V347.145H443.17V336.988H446.422V335.133H437.984V336.988H441.217V347.145H437.984V349ZM456.07 349H458.141V342.262C458.141 339.84 456.891 338.453 454.703 338.453C452.965 338.453 452.086 339.137 451.969 340.523H451.744L451.578 338.648H449.703V349H451.773V343.18C451.773 341.256 452.594 340.309 454.215 340.309C455.387 340.309 456.07 341.012 456.07 342.262V349ZM467.418 349.195C468.395 349.195 469.215 349.117 470.133 348.961L469.898 347.145C468.961 347.262 468.258 347.34 467.613 347.34C465.777 347.34 465.035 346.637 465.035 344.996V340.348H469.742V338.648H465.035V335.523H462.965V338.648H460.367V340.348H462.965V345.094C462.965 347.965 464.273 349.195 467.418 349.195ZM478.355 349.195C479.137 349.195 480.152 349.156 481.383 348.922L481.129 347.105C480.27 347.281 479.449 347.379 478.59 347.379C476.51 347.379 475.201 346.471 474.84 344.742H481.832C481.871 344.332 481.891 343.902 481.891 343.414C481.891 340.191 480.289 338.453 477.496 338.453C474.527 338.453 472.828 340.426 472.828 343.805C472.828 347.281 474.82 349.195 478.355 349.195ZM474.762 343.16C474.928 341.314 475.914 340.27 477.516 340.27C479.078 340.27 480.016 341.305 480.016 343.16H474.762ZM488.375 344.547C488.375 341.773 489.234 340.211 490.992 340.211C491.988 340.211 492.418 340.836 492.418 342.34H494.469C494.469 339.605 493.551 338.453 491.422 338.453C489.625 338.453 488.688 339.391 488.57 341.305H488.336L487.984 338.648H484.391V340.348H486.305V347.301H484V349H490.914V347.301H488.375V344.547ZM502.926 349.098L506.246 349V347.34L504.488 347.125V342.809C504.488 340.074 502.848 338.629 499.43 338.58L497.34 338.551L497.145 340.387L499.625 340.455C501.539 340.504 502.516 341.119 502.516 342.496V342.975C501.949 342.857 501.305 342.809 500.562 342.809C497.574 342.809 495.875 344.02 495.875 346.207C495.875 348.111 497.115 349.195 499.273 349.195C501.197 349.195 502.477 348.404 502.623 346.812H502.828L502.926 349.098ZM502.516 344.566V345.289C502.516 346.383 501.539 347.535 499.605 347.535C498.473 347.535 497.828 346.979 497.828 346.012C497.828 344.996 498.756 344.469 500.523 344.469C501.197 344.469 501.852 344.469 502.516 344.566ZM513.316 349.195C514.469 349.195 515.699 349.137 516.832 348.902L516.598 347.086C515.621 347.242 514.586 347.34 513.551 347.34C511.363 347.34 510.133 346.07 510.133 343.707C510.133 341.539 511.246 340.309 513.16 340.309C514.244 340.309 515.191 340.855 515.777 341.803L517.369 340.602C516.754 339.234 515.25 338.453 513.238 338.453C509.869 338.453 507.984 340.426 507.984 343.805C507.984 347.281 509.918 349.195 513.316 349.195ZM526.012 349.195C526.988 349.195 527.809 349.117 528.727 348.961L528.492 347.145C527.555 347.262 526.852 347.34 526.207 347.34C524.371 347.34 523.629 346.637 523.629 344.996V340.348H528.336V338.648H523.629V335.523H521.559V338.648H518.961V340.348H521.559V345.094C521.559 347.965 522.867 349.195 526.012 349.195ZM538.082 349.098L541.402 349V347.34L539.645 347.125V342.809C539.645 340.074 538.004 338.629 534.586 338.58L532.496 338.551L532.301 340.387L534.781 340.455C536.695 340.504 537.672 341.119 537.672 342.496V342.975C537.105 342.857 536.461 342.809 535.719 342.809C532.73 342.809 531.031 344.02 531.031 346.207C531.031 348.111 532.271 349.195 534.43 349.195C536.354 349.195 537.633 348.404 537.779 346.812H537.984L538.082 349.098ZM537.672 344.566V345.289C537.672 346.383 536.695 347.535 534.762 347.535C533.629 347.535 532.984 346.979 532.984 346.012C532.984 344.996 533.912 344.469 535.68 344.469C536.354 344.469 537.008 344.469 537.672 344.566ZM546.227 349.195C550.279 349.195 552.594 346.988 552.594 343.141C552.594 340.152 551.012 338.453 548.258 338.453C546.656 338.453 545.816 339.137 545.719 340.523H545.523V334.352H543.453V349C544.391 349.117 545.289 349.195 546.227 349.195ZM545.523 343.18C545.523 341.188 546.402 340.211 548.16 340.211C549.684 340.211 550.543 341.266 550.543 343.141C550.543 345.875 549.127 347.438 546.637 347.438C546.266 347.438 545.895 347.438 545.523 347.408V343.18ZM560.836 349.195C561.949 349.195 562.867 349.078 563.922 348.785L563.688 346.969C562.828 347.223 562.203 347.34 561.617 347.34C559.84 347.34 559.508 346.637 559.508 344.996V334.352H554.391V336.051H557.438V345.094C557.438 347.965 558.434 349.195 560.836 349.195ZM572.105 349.195C572.887 349.195 573.902 349.156 575.133 348.922L574.879 347.105C574.02 347.281 573.199 347.379 572.34 347.379C570.26 347.379 568.951 346.471 568.59 344.742H575.582C575.621 344.332 575.641 343.902 575.641 343.414C575.641 340.191 574.039 338.453 571.246 338.453C568.277 338.453 566.578 340.426 566.578 343.805C566.578 347.281 568.57 349.195 572.105 349.195ZM568.512 343.16C568.678 341.314 569.664 340.27 571.266 340.27C572.828 340.27 573.766 341.305 573.766 343.16H568.512Z" fill="#E2E2E2"/>
<rect x="344" y="319" width="255" height="47" rx="23.5" stroke="#A7A7A7" stroke-width="2"/>
<path d="M505.125 188H503.113L495.906 176.838C495.815 176.695 495.73 176.551 495.652 176.408C495.581 176.258 495.516 176.109 495.457 175.959H495.398C495.424 176.109 495.444 176.343 495.457 176.662C495.47 176.981 495.477 177.388 495.477 177.883V188H493.836V173.996H495.965L502.977 184.982C503.126 185.21 503.247 185.402 503.338 185.559C503.436 185.715 503.504 185.835 503.543 185.92H503.582C503.549 185.718 503.523 185.445 503.504 185.1C503.491 184.755 503.484 184.341 503.484 183.859V173.996H505.125V188ZM512.762 188.234C511.284 188.234 510.102 187.769 509.217 186.838C508.338 185.9 507.898 184.66 507.898 183.117C507.898 181.444 508.354 180.135 509.266 179.191C510.177 178.247 511.421 177.772 512.996 177.766C514.487 177.759 515.649 178.218 516.482 179.143C517.322 180.067 517.742 181.34 517.742 182.961C517.742 184.562 517.29 185.842 516.385 186.799C515.486 187.756 514.279 188.234 512.762 188.234ZM512.879 186.887C513.914 186.887 514.708 186.551 515.262 185.881C515.822 185.204 516.102 184.25 516.102 183.02C516.102 181.763 515.822 180.799 515.262 180.129C514.702 179.452 513.908 179.113 512.879 179.113C511.85 179.113 511.036 179.465 510.438 180.168C509.839 180.871 509.539 181.835 509.539 183.059C509.539 184.243 509.842 185.178 510.447 185.861C511.053 186.545 511.863 186.887 512.879 186.887ZM525.066 187.883C524.793 187.993 524.523 188.075 524.256 188.127C523.995 188.186 523.699 188.215 523.367 188.215C522.573 188.215 521.948 187.984 521.492 187.521C521.043 187.053 520.818 186.363 520.818 185.451V179.367H519.1V178H520.818V175.559L522.42 175.041V178H524.939V179.367H522.42V185.266C522.42 185.839 522.521 186.252 522.723 186.506C522.931 186.76 523.24 186.887 523.65 186.887C523.846 186.887 524.035 186.864 524.217 186.818C524.399 186.773 524.552 186.721 524.676 186.662L525.066 187.883ZM527.898 175.607C527.573 175.607 527.299 175.5 527.078 175.285C526.857 175.064 526.746 174.794 526.746 174.475C526.746 174.156 526.857 173.889 527.078 173.674C527.299 173.452 527.573 173.342 527.898 173.342C528.224 173.342 528.497 173.452 528.719 173.674C528.94 173.889 529.051 174.156 529.051 174.475C529.051 174.794 528.94 175.064 528.719 175.285C528.497 175.5 528.224 175.607 527.898 175.607ZM528.68 188H527.078V178H528.68V188ZM536.697 174.504C536.515 174.445 536.349 174.403 536.199 174.377C536.056 174.351 535.903 174.338 535.74 174.338C535.193 174.338 534.786 174.484 534.52 174.777C534.253 175.07 534.119 175.5 534.119 176.066V178H536.463V179.367H534.119V188H532.527V179.367H530.818V178H532.527V175.988C532.527 175.044 532.817 174.309 533.396 173.781C533.976 173.247 534.77 172.98 535.779 172.98C536.027 172.98 536.251 173 536.453 173.039C536.655 173.072 536.863 173.124 537.078 173.195L536.697 174.504ZM539.012 175.607C538.686 175.607 538.413 175.5 538.191 175.285C537.97 175.064 537.859 174.794 537.859 174.475C537.859 174.156 537.97 173.889 538.191 173.674C538.413 173.452 538.686 173.342 539.012 173.342C539.337 173.342 539.611 173.452 539.832 173.674C540.053 173.889 540.164 174.156 540.164 174.475C540.164 174.794 540.053 175.064 539.832 175.285C539.611 175.5 539.337 175.607 539.012 175.607ZM539.793 188H538.191V178H539.793V188ZM551.072 183.361H544.002C544.028 184.488 544.324 185.357 544.891 185.969C545.464 186.574 546.264 186.877 547.293 186.877C547.742 186.877 548.191 186.812 548.641 186.682C549.096 186.545 549.546 186.33 549.988 186.037L550.73 187.18C550.164 187.544 549.598 187.811 549.031 187.98C548.465 188.15 547.843 188.234 547.166 188.234C545.656 188.234 544.477 187.785 543.631 186.887C542.785 185.988 542.358 184.735 542.352 183.127C542.345 181.519 542.768 180.223 543.621 179.24C544.48 178.257 545.594 177.766 546.961 177.766C548.263 177.766 549.272 178.192 549.988 179.045C550.711 179.891 551.072 181.066 551.072 182.57V183.361ZM549.432 182.053C549.425 181.128 549.201 180.409 548.758 179.895C548.315 179.374 547.706 179.113 546.932 179.113C546.17 179.113 545.522 179.38 544.988 179.914C544.461 180.441 544.139 181.154 544.021 182.053H549.432ZM552.566 187.248L553.328 186.018C553.764 186.304 554.191 186.522 554.607 186.672C555.024 186.815 555.473 186.887 555.955 186.887C556.639 186.887 557.156 186.76 557.508 186.506C557.866 186.252 558.045 185.871 558.045 185.363C558.045 184.953 557.885 184.608 557.566 184.328C557.254 184.042 556.762 183.814 556.092 183.645C554.842 183.326 553.986 182.925 553.523 182.443C553.061 181.955 552.83 181.356 552.83 180.646C552.83 179.826 553.139 179.143 553.758 178.596C554.376 178.042 555.239 177.766 556.346 177.766C556.88 177.766 557.387 177.834 557.869 177.971C558.351 178.107 558.842 178.342 559.344 178.674L558.631 179.885C558.175 179.598 557.765 179.4 557.4 179.289C557.042 179.172 556.678 179.113 556.307 179.113C555.662 179.113 555.171 179.234 554.832 179.475C554.493 179.709 554.324 180.051 554.324 180.5C554.324 180.949 554.497 181.288 554.842 181.516C555.193 181.743 555.757 181.958 556.531 182.16C557.547 182.434 558.305 182.818 558.807 183.312C559.314 183.801 559.568 184.442 559.568 185.236C559.568 186.161 559.24 186.893 558.582 187.434C557.931 187.967 557.036 188.234 555.896 188.234C555.285 188.234 554.695 188.15 554.129 187.98C553.569 187.811 553.048 187.567 552.566 187.248Z" fill="#A7A7A7"/>
<path d="M495.477 297H493.836V282.996H495.477V297ZM498.016 296.248L498.777 295.018C499.214 295.304 499.64 295.522 500.057 295.672C500.473 295.815 500.923 295.887 501.404 295.887C502.088 295.887 502.605 295.76 502.957 295.506C503.315 295.252 503.494 294.871 503.494 294.363C503.494 293.953 503.335 293.608 503.016 293.328C502.703 293.042 502.212 292.814 501.541 292.645C500.291 292.326 499.435 291.925 498.973 291.443C498.51 290.955 498.279 290.356 498.279 289.646C498.279 288.826 498.589 288.143 499.207 287.596C499.826 287.042 500.688 286.766 501.795 286.766C502.329 286.766 502.837 286.834 503.318 286.971C503.8 287.107 504.292 287.342 504.793 287.674L504.08 288.885C503.624 288.598 503.214 288.4 502.85 288.289C502.492 288.172 502.127 288.113 501.756 288.113C501.111 288.113 500.62 288.234 500.281 288.475C499.943 288.709 499.773 289.051 499.773 289.5C499.773 289.949 499.946 290.288 500.291 290.516C500.643 290.743 501.206 290.958 501.98 291.16C502.996 291.434 503.755 291.818 504.256 292.312C504.764 292.801 505.018 293.442 505.018 294.236C505.018 295.161 504.689 295.893 504.031 296.434C503.38 296.967 502.485 297.234 501.346 297.234C500.734 297.234 500.145 297.15 499.578 296.98C499.018 296.811 498.497 296.567 498.016 296.248ZM506.512 296.248L507.273 295.018C507.71 295.304 508.136 295.522 508.553 295.672C508.969 295.815 509.419 295.887 509.9 295.887C510.584 295.887 511.102 295.76 511.453 295.506C511.811 295.252 511.99 294.871 511.99 294.363C511.99 293.953 511.831 293.608 511.512 293.328C511.199 293.042 510.708 292.814 510.037 292.645C508.787 292.326 507.931 291.925 507.469 291.443C507.007 290.955 506.775 290.356 506.775 289.646C506.775 288.826 507.085 288.143 507.703 287.596C508.322 287.042 509.184 286.766 510.291 286.766C510.825 286.766 511.333 286.834 511.814 286.971C512.296 287.107 512.788 287.342 513.289 287.674L512.576 288.885C512.12 288.598 511.71 288.4 511.346 288.289C510.988 288.172 510.623 288.113 510.252 288.113C509.607 288.113 509.116 288.234 508.777 288.475C508.439 288.709 508.27 289.051 508.27 289.5C508.27 289.949 508.442 290.288 508.787 290.516C509.139 290.743 509.702 290.958 510.477 291.16C511.492 291.434 512.251 291.818 512.752 292.312C513.26 292.801 513.514 293.442 513.514 294.236C513.514 295.161 513.185 295.893 512.527 296.434C511.876 296.967 510.981 297.234 509.842 297.234C509.23 297.234 508.641 297.15 508.074 296.98C507.514 296.811 506.993 296.567 506.512 296.248ZM524.031 297H522.43V295.418H522.391C522.059 296.023 521.635 296.479 521.121 296.785C520.607 297.085 520.001 297.234 519.305 297.234C518.113 297.234 517.218 296.88 516.619 296.17C516.027 295.46 515.73 294.396 515.73 292.977V287H517.322V292.723C517.322 293.777 517.524 294.568 517.928 295.096C518.331 295.623 518.937 295.887 519.744 295.887C520.525 295.887 521.167 295.6 521.668 295.027C522.176 294.448 522.43 293.693 522.43 292.762V287H524.031V297ZM535.311 292.361H528.24C528.266 293.488 528.562 294.357 529.129 294.969C529.702 295.574 530.503 295.877 531.531 295.877C531.98 295.877 532.43 295.812 532.879 295.682C533.335 295.545 533.784 295.33 534.227 295.037L534.969 296.18C534.402 296.544 533.836 296.811 533.27 296.98C532.703 297.15 532.081 297.234 531.404 297.234C529.894 297.234 528.715 296.785 527.869 295.887C527.023 294.988 526.596 293.735 526.59 292.127C526.583 290.519 527.007 289.223 527.859 288.24C528.719 287.257 529.832 286.766 531.199 286.766C532.501 286.766 533.51 287.192 534.227 288.045C534.949 288.891 535.311 290.066 535.311 291.57V292.361ZM533.67 291.053C533.663 290.128 533.439 289.409 532.996 288.895C532.553 288.374 531.945 288.113 531.17 288.113C530.408 288.113 529.76 288.38 529.227 288.914C528.699 289.441 528.377 290.154 528.26 291.053H533.67ZM536.805 296.248L537.566 295.018C538.003 295.304 538.429 295.522 538.846 295.672C539.262 295.815 539.712 295.887 540.193 295.887C540.877 295.887 541.395 295.76 541.746 295.506C542.104 295.252 542.283 294.871 542.283 294.363C542.283 293.953 542.124 293.608 541.805 293.328C541.492 293.042 541.001 292.814 540.33 292.645C539.08 292.326 538.224 291.925 537.762 291.443C537.299 290.955 537.068 290.356 537.068 289.646C537.068 288.826 537.378 288.143 537.996 287.596C538.615 287.042 539.477 286.766 540.584 286.766C541.118 286.766 541.626 286.834 542.107 286.971C542.589 287.107 543.081 287.342 543.582 287.674L542.869 288.885C542.413 288.598 542.003 288.4 541.639 288.289C541.281 288.172 540.916 288.113 540.545 288.113C539.9 288.113 539.409 288.234 539.07 288.475C538.732 288.709 538.562 289.051 538.562 289.5C538.562 289.949 538.735 290.288 539.08 290.516C539.432 290.743 539.995 290.958 540.77 291.16C541.785 291.434 542.544 291.818 543.045 292.312C543.553 292.801 543.807 293.442 543.807 294.236C543.807 295.161 543.478 295.893 542.82 296.434C542.169 296.967 541.274 297.234 540.135 297.234C539.523 297.234 538.934 297.15 538.367 296.98C537.807 296.811 537.286 296.567 536.805 296.248ZM561.609 297H559.607L556.385 291.639C556.333 291.554 556.281 291.456 556.229 291.346C556.176 291.229 556.121 291.095 556.062 290.945H556.023C555.991 291.023 555.945 291.121 555.887 291.238C555.835 291.349 555.77 291.482 555.691 291.639L552.371 297H550.359L555.047 289.959L550.73 282.996H552.742L555.604 287.918C555.695 288.081 555.783 288.243 555.867 288.406C555.952 288.569 556.03 288.732 556.102 288.895H556.141C556.245 288.68 556.342 288.488 556.434 288.318C556.525 288.149 556.609 288.003 556.688 287.879L559.666 282.996H561.551L557.146 289.939L561.609 297ZM573.66 297H571.707L569.305 293.025C568.855 292.283 568.471 291.808 568.152 291.6C567.833 291.385 567.446 291.277 566.99 291.277H565.379V297H563.738V282.996H567.918C569.135 282.996 570.148 283.318 570.955 283.963C571.769 284.607 572.176 285.558 572.176 286.814C572.176 287.804 571.919 288.634 571.404 289.305C570.89 289.975 570.184 290.46 569.285 290.76V290.799C569.578 290.975 569.835 291.167 570.057 291.375C570.278 291.583 570.512 291.889 570.76 292.293L573.66 297ZM565.379 284.48V289.793H567.605C568.419 289.793 569.096 289.529 569.637 289.002C570.184 288.475 570.457 287.791 570.457 286.951C570.457 286.202 570.213 285.604 569.725 285.154C569.243 284.705 568.543 284.48 567.625 284.48H565.379ZM577.352 297H575.711V282.996H577.352V297ZM597.059 297H595.418V290.613H588.172V297H586.531V282.996H588.172V289.139H595.418V282.996H597.059V297ZM604.695 297.234C603.217 297.234 602.036 296.769 601.15 295.838C600.271 294.9 599.832 293.66 599.832 292.117C599.832 290.444 600.288 289.135 601.199 288.191C602.111 287.247 603.354 286.772 604.93 286.766C606.421 286.759 607.583 287.218 608.416 288.143C609.256 289.067 609.676 290.34 609.676 291.961C609.676 293.562 609.223 294.842 608.318 295.799C607.42 296.756 606.212 297.234 604.695 297.234ZM604.812 295.887C605.848 295.887 606.642 295.551 607.195 294.881C607.755 294.204 608.035 293.25 608.035 292.02C608.035 290.763 607.755 289.799 607.195 289.129C606.635 288.452 605.841 288.113 604.812 288.113C603.784 288.113 602.97 288.465 602.371 289.168C601.772 289.871 601.473 290.835 601.473 292.059C601.473 293.243 601.775 294.178 602.381 294.861C602.986 295.545 603.797 295.887 604.812 295.887ZM620.096 287L616.111 297H614.539L610.75 287H612.508L615.047 294.266C615.138 294.533 615.213 294.783 615.271 295.018C615.33 295.245 615.372 295.46 615.398 295.662H615.438C615.47 295.408 615.512 295.171 615.564 294.949C615.617 294.721 615.678 294.507 615.75 294.305L618.406 287H620.096ZM629.861 292.361H622.791C622.817 293.488 623.113 294.357 623.68 294.969C624.253 295.574 625.053 295.877 626.082 295.877C626.531 295.877 626.98 295.812 627.43 295.682C627.885 295.545 628.335 295.33 628.777 295.037L629.52 296.18C628.953 296.544 628.387 296.811 627.82 296.98C627.254 297.15 626.632 297.234 625.955 297.234C624.445 297.234 623.266 296.785 622.42 295.887C621.574 294.988 621.147 293.735 621.141 292.127C621.134 290.519 621.557 289.223 622.41 288.24C623.27 287.257 624.383 286.766 625.75 286.766C627.052 286.766 628.061 287.192 628.777 288.045C629.5 288.891 629.861 290.066 629.861 291.57V292.361ZM628.221 291.053C628.214 290.128 627.99 289.409 627.547 288.895C627.104 288.374 626.495 288.113 625.721 288.113C624.959 288.113 624.311 288.38 623.777 288.914C623.25 289.441 622.928 290.154 622.811 291.053H628.221ZM637.225 288.367C637.101 288.328 636.99 288.302 636.893 288.289C636.795 288.27 636.671 288.26 636.521 288.26C635.708 288.26 635.066 288.608 634.598 289.305C634.129 289.995 633.895 290.861 633.895 291.902V297H632.293V287H633.895V288.982H633.934C634.161 288.279 634.51 287.745 634.979 287.381C635.447 287.01 635.988 286.824 636.6 286.824C636.801 286.824 636.971 286.834 637.107 286.854C637.251 286.873 637.378 286.902 637.488 286.941L637.225 288.367ZM645.496 282.996L638.885 299.08H637.547L644.158 282.996H645.496ZM646.043 295.926L646.844 294.695C647.417 295.066 647.99 295.337 648.562 295.506C649.135 295.675 649.803 295.76 650.564 295.76C651.417 295.76 652.117 295.561 652.664 295.164C653.217 294.76 653.494 294.174 653.494 293.406C653.494 292.723 653.26 292.176 652.791 291.766C652.329 291.355 651.567 290.958 650.506 290.574C649.191 290.099 648.214 289.565 647.576 288.973C646.945 288.374 646.629 287.586 646.629 286.609C646.629 285.464 647.039 284.536 647.859 283.826C648.686 283.117 649.77 282.762 651.111 282.762C651.736 282.762 652.348 282.83 652.947 282.967C653.546 283.097 654.165 283.312 654.803 283.611L654.188 284.93C653.654 284.682 653.133 284.503 652.625 284.393C652.124 284.282 651.58 284.227 650.994 284.227C650.154 284.227 649.49 284.425 649.002 284.822C648.514 285.213 648.27 285.757 648.27 286.453C648.27 287.065 648.494 287.553 648.943 287.918C649.393 288.283 650.141 288.654 651.189 289.031C652.596 289.539 653.605 290.105 654.217 290.73C654.829 291.355 655.135 292.199 655.135 293.26C655.135 294.393 654.725 295.34 653.904 296.102C653.084 296.857 651.932 297.234 650.447 297.234C649.614 297.234 648.846 297.13 648.143 296.922C647.439 296.714 646.74 296.382 646.043 295.926ZM665.701 292.361H658.631C658.657 293.488 658.953 294.357 659.52 294.969C660.092 295.574 660.893 295.877 661.922 295.877C662.371 295.877 662.82 295.812 663.27 295.682C663.725 295.545 664.174 295.33 664.617 295.037L665.359 296.18C664.793 296.544 664.227 296.811 663.66 296.98C663.094 297.15 662.472 297.234 661.795 297.234C660.285 297.234 659.106 296.785 658.26 295.887C657.413 294.988 656.987 293.735 656.98 292.127C656.974 290.519 657.397 289.223 658.25 288.24C659.109 287.257 660.223 286.766 661.59 286.766C662.892 286.766 663.901 287.192 664.617 288.045C665.34 288.891 665.701 290.066 665.701 291.57V292.361ZM664.061 291.053C664.054 290.128 663.829 289.409 663.387 288.895C662.944 288.374 662.335 288.113 661.561 288.113C660.799 288.113 660.151 288.38 659.617 288.914C659.09 289.441 658.768 290.154 658.65 291.053H664.061ZM668.133 297V282.195H669.734V297H668.133ZM681.014 292.361H673.943C673.969 293.488 674.266 294.357 674.832 294.969C675.405 295.574 676.206 295.877 677.234 295.877C677.684 295.877 678.133 295.812 678.582 295.682C679.038 295.545 679.487 295.33 679.93 295.037L680.672 296.18C680.105 296.544 679.539 296.811 678.973 296.98C678.406 297.15 677.785 297.234 677.107 297.234C675.597 297.234 674.419 296.785 673.572 295.887C672.726 294.988 672.299 293.735 672.293 292.127C672.286 290.519 672.71 289.223 673.562 288.24C674.422 287.257 675.535 286.766 676.902 286.766C678.204 286.766 679.214 287.192 679.93 288.045C680.652 288.891 681.014 290.066 681.014 291.57V292.361ZM679.373 291.053C679.367 290.128 679.142 289.409 678.699 288.895C678.257 288.374 677.648 288.113 676.873 288.113C676.111 288.113 675.464 288.38 674.93 288.914C674.402 289.441 674.08 290.154 673.963 291.053H679.373ZM690.477 296.404C690.014 296.691 689.552 296.899 689.09 297.029C688.628 297.166 688.123 297.234 687.576 297.234C686.17 297.234 685.014 296.798 684.109 295.926C683.211 295.053 682.762 293.816 682.762 292.215C682.762 290.587 683.214 289.272 684.119 288.27C685.031 287.267 686.281 286.766 687.869 286.766C688.383 286.766 688.872 286.827 689.334 286.951C689.803 287.075 690.275 287.277 690.75 287.557L690.076 288.729C689.705 288.52 689.34 288.367 688.982 288.27C688.624 288.172 688.234 288.123 687.811 288.123C686.71 288.123 685.867 288.491 685.281 289.227C684.695 289.962 684.402 290.896 684.402 292.029C684.402 293.279 684.708 294.233 685.32 294.891C685.939 295.548 686.736 295.877 687.713 295.877C688.032 295.877 688.364 295.828 688.709 295.73C689.061 295.626 689.412 295.467 689.764 295.252L690.477 296.404ZM697.449 296.883C697.176 296.993 696.906 297.075 696.639 297.127C696.378 297.186 696.082 297.215 695.75 297.215C694.956 297.215 694.331 296.984 693.875 296.521C693.426 296.053 693.201 295.363 693.201 294.451V288.367H691.482V287H693.201V284.559L694.803 284.041V287H697.322V288.367H694.803V294.266C694.803 294.839 694.904 295.252 695.105 295.506C695.314 295.76 695.623 295.887 696.033 295.887C696.229 295.887 696.417 295.864 696.6 295.818C696.782 295.773 696.935 295.721 697.059 295.662L697.449 296.883Z" fill="#A7A7A7"/>
</svg>
